SplineFontDB: 3.0
FontName: Lootamatic
FullName: Lootamatic
FamilyName: Lootamatic
Weight: Normal
Copyright: 
Version: 001.001
ItalicAngle: 0
UnderlinePosition: -50
UnderlineWidth: 50
Ascent: 750
Descent: 250
sfntRevision: 0x00010000
LayerCount: 2
Layer: 0 0 "Back"  1
Layer: 1 0 "Fore"  0
NeedsXUIDChange: 1
XUID: [1021 14 500265001 629604]
FSType: 4
OS2Version: 3
OS2_WeightWidthSlopeOnly: 0
OS2_UseTypoMetrics: 1
CreationTime: 1313149323
ModificationTime: 1313210738
PfmFamily: 81
TTFWeight: 400
TTFWidth: 5
LineGap: 9
VLineGap: 0
Panose: 0 0 0 0 0 0 0 0 0 0
OS2TypoAscent: 0
OS2TypoAOffset: 1
OS2TypoDescent: 0
OS2TypoDOffset: 1
OS2TypoLinegap: 0
OS2WinAscent: -27
OS2WinAOffset: 1
OS2WinDescent: -328
OS2WinDOffset: 1
HheadAscent: -277
HheadAOffset: 1
HheadDescent: 78
HheadDOffset: 1
OS2SubXSize: 650
OS2SubYSize: 600
OS2SubXOff: 0
OS2SubYOff: 75
OS2SupXSize: 650
OS2SupYSize: 600
OS2SupXOff: 0
OS2SupYOff: 350
OS2StrikeYSize: 50
OS2StrikeYPos: 300
OS2Vendor: 'pyrs'
OS2CodePages: 00000001.00000000
OS2UnicodeRanges: 00000001.00000000.00000000.00000000
Lookup: 4 0 1 "'liga' Standard Ligatures in Latin lookup 0"  {"'liga' Standard Ligatures in Latin lookup 0-2"  } ['liga' ('DFLT' <'dflt' > 'latn' <'dflt' > ) ]
MarkAttachClasses: 1
DEI: 91125
LangName: 1033 "" "" "Regular" "" "Untitled" "Version 1.000;PS 001.001;hotconv 1.0.56" "" "Please refer to the Copyright section for the font trademark attribution notices." 
Encoding: ISO8859-1
UnicodeInterp: none
NameList: Adobe Glyph List
DisplaySize: -48
AntiAlias: 1
FitToEm: 1
WidthSeparation: 150
WinInfo: 0 28 12
BeginPrivate: 6
BlueValues 22 [-6 0 725 725 888 888]
OtherBlues 9 [-76 -72]
StdHW 4 [95]
StdVW 5 [102]
StemSnapH 15 [86 95 103 110]
StemSnapV 12 [94 102 109]
EndPrivate
BeginChars: 268 156

StartChar: numbersign
Encoding: 35 35 2
Width: 780
Flags: HMW
HStem: 149 81 160 79<83.5 105.5> 174 71<263.5 288> 367 74<129 177> 372 70<636 644 644 653.5 636 687> 383 70<323 365.5 338 365.5 338 479>
VStem: 117 85<13 16> 152 85<143.5 161 132.5 166> 375 86<14.5 30 14.5 45.5> 419 70<161 161 161 172>
LayerCount: 2
Fore
SplineSet
712 190 m 0x89
 712 158 694 149 664 149 c 0
 619 149 542.336914062 181.63671875 494.336914062 181.63671875 c 1
 441.345703125 -23.26171875 l 1
 423.345703125 -23.26171875 375 -7 375 16 c 0x8980
 375 75 419 119 419 172 c 1
 413.222833092 171.602594165 406.800068391 171.440647403 399.900077121 171.440647403 c 0
 369.498877227 171.440647403 329.833454731 174.584459896 295.30486833 174.584459896 c 0
 268.554648625 174.584459896 244.88756588 172.69753878 231 166 c 1
 234.298724417 158.52475649 235.673125571 150.879219717 235.673125571 143.081637821 c 0
 235.673125571 107.330964187 206.782158411 68.3841853546 202 28 c 1
 204.269988736 21.6156742742 205.294631561 15.6648545798 205.294631561 10.1834455307 c 0
 205.294631561 -16.7566045329 180.544080346 -32.3579012943 157.244526666 -32.3579012943 c 0
 135.94790054 -32.3579012943 115.863526903 -19.3236194539 117 10 c 1x8a40
 130.201171875 45.6796875 153.35546875 116.336914062 152 166 c 1
 139.252478353 161.110100334 127.278485305 158.856999137 116.279246254 158.856999137 c 0
 73.3526920833 158.856999137 45.2725598257 193.173853558 44 239 c 1
 180 239 l 1
 194.166015625 277.75390625 227.727539062 368.423828125 227 372 c 1
 187 372 l 1x49
 166.106521872 369.613431435 151.33221159 367.221905905 137.181306935 367.221905905 c 0
 120.561900832 367.221905905 104.802365741 370.520566345 81 381 c 1
 80.1078041794 391.235382367 75.1667993226 403.641821409 75.1667993226 415.379637914 c 0
 75.1667993226 425.765651882 79.0352623769 435.628180921 93 443 c 1
 114.844248127 442.651882563 147.410852639 440.580237794 178.751608732 440.580237794 c 0
 210.624758593 440.580237794 241.23005867 442.722863534 258 451 c 1
 266.452148438 475.743164062 306.870117188 620 340 620 c 0
 369 620 388.78125 600.875 388.78125 571.875 c 1
 342.004882812 456.234375 l 1
 359.558074301 456.234375 376.90705636 456.21050249 394.214682681 456.21050249 c 0
 431.137618832 456.21050249 467.872340426 456.319148936 506 457 c 0
 515 457 556 650 600 650 c 0
 630 650 641.661132812 617.405273438 641.661132812 595.405273438 c 1
 578.904296875 451.348632812 l 1
 604.567024889 446.021672603 624.541794802 442.336691157 644.769168063 442.336691157 c 0
 663.15130025 442.336691157 681.742050494 445.380014505 705 453 c 1x05
 719.998327114 445.013463851 726.427325648 431.005444532 726.427325648 416.860646853 c 0
 726.427325648 394.599710695 710.503893002 372 687 372 c 2
 644 372 l 2
 614 372 589 378 565 378 c 0
 550.794921875 378 551.096679688 371.616210938 551 359 c 1
 529.482421875 307.767578125 512.987304688 255.0546875 513 244 c 1
 546 240 643 232 666 230 c 0
 694 228 712 222 712 190 c 0x89
265 245 m 1x24
 444 245 l 1
 479 383 l 1
 305 383 l 1
 265 245 l 1x24
EndSplineSet
Validated: 33
EndChar

StartChar: dollar
Encoding: 36 36 3
Width: 579
Flags: HMW
HStem: -156 892<277 291.5 266 317> 274 85 516 83<311 320>
VStem: 49 93 219 89<458 476 626.5 632 632 636> 239 77<157 274> 247 89<-57 6 -45 6 1.5 6 -33 21.5> 441 89<156 166 166 199>
LayerCount: 2
Fore
SplineSet
72 146 m 0x93
 72 168.017528363 92.7069968931 182.853950147 113.888694419 182.853950147 c 0
 125.582576452 182.853950147 137.421140884 178.332007351 146 168 c 1
 146 154 l 1
 167.402173913 144.909458705 211.179347826 131.006277902 235.5 127.797851562 c 1
 235.5 138.797851562 l 2
 235.5 149.797851562 236.5 161.797851562 236.5 166.797851562 c 2
 236.5 179.797851562 l 2
 236.5 213.259852256 236.5 250.80258474 228 281 c 1
 159 300 107 292 49 356 c 1
 51.9911764706 469.376015111 125.773529412 521.982486123 218.5 562.797851562 c 1
 219 698 l 2
 219.107421875 726.999023438 258 736 274 736 c 1x99
 305.68230208 729.521406949 312.659282344 711.10792805 312.659282344 687.456995041 c 0
 312.659282344 662.507533596 307.836914062 633.209341512 307.836914062 603.939453125 c 0
 307.836914062 595.151229466 308.536839191 586.366425519 310.5 577.797851562 c 1
 331.580769231 577.797851562 441 530.778758769 441 501 c 1
 435.253113941 474.011165641 422.043056748 464.558773247 406.013612631 464.558773247 c 0
 369.874631372 464.558773247 319.477613657 492.516004948 307.5 494.797851562 c 1
 308 359 l 1x59
 407 359 530 262 530 168 c 0
 530 70.042932581 426.68556701 39.9683943383 333.5 28.7978515625 c 1
 333.5 -66.4665408829 351 -65.2452025182 351 -97 c 0
 351 -127 335 -156 299 -156 c 0
 298.783406074 -156.001550047 298.567528965 -156.002323399 298.352367034 -156.002323399 c 0
 256.78642383 -156.002323399 241.911100305 -127.140632881 241.911100305 -93.5130010603 c 0
 241.911100305 -81.5832066001 243.783246566 -69.0535906183 247 -57 c 1
 247 -45 l 1
 247.652124745 -37.7608763875 247.872110972 -31.7147934977 247.872110972 -25.894906904 c 0
 247.872110972 -8.96703843059 245.361606658 6.83053732482 244.5 29.7978515625 c 0
 244.5 54.0414652653 72 72.4331722122 72 146 c 0x93
441 156 m 0
 441.237420102 159.023969855 441.353498776 161.984831068 441.353498776 164.883210829 c 0
 441.353498776 233.503052604 376.289419906 267.100972914 316 274 c 1x55
 316 221.55729886 320.5 168.240552702 323.5 115.797851562 c 1
 362.326086957 115.797851562 437.706288214 129.795567618 441 156 c 0
218.5 454.797851562 m 2
 218.5 476.797851562 l 1
 182.156083884 470.422095987 121.50257732 450.44396541 122 401 c 1
 122.95098284 376.780274925 162.682254485 366.694838193 192.280601706 366.694838193 c 0
 209.368187153 366.694838193 223.078537605 370.056245863 224 376 c 1
 222.9 400.427333984 218.5 426.430625 218.5 454.797851562 c 2
EndSplineSet
Validated: 33
EndChar

StartChar: percent
Encoding: 37 37 4
Width: 878
Flags: HMW
HStem: -245 70<607.5 655> 13 74<661 693> 150 75<198 238 198 253.5> 389 84<185 204 155.5 228.5>
VStem: 51 79<263 297> 303 75<277 313.5 251 319.5> 471 80<-128 -88 -144.5 -87> 752 81<-105 -48>
LayerCount: 2
Fore
SplineSet
834 156.200195312 m 4
 834 103.200195312 738 0.2001953125 683 0.2001953125 c 6
 579 0.2001953125 l 6
 548 0.2001953125 514 27.2001953125 494 46.2001953125 c 5
 494 55.2001953125 l 5
 479.001809073 79.0181383974 472.58984375 103.814543659 472.58984375 128.430664062 c 4
 472.58984375 204.447708379 533.736486885 278.745500448 592 317.200195312 c 5
 592 319.200195312 l 5
 617.742245389 328.739925815 642.684405205 333.169921875 666.15234375 333.169921875 c 4
 762.500501869 333.169921875 834 258.500534536 834 156.200195312 c 4
676 604.200195312 m 6
 676 573.200195312 623 550.200195312 609 532.200195312 c 4
 532.62109375 436.3515625 459.905273438 305.826171875 376 209.200195312 c 4
 328.921875 155.708007812 279.690429688 74.7246093745 234 18.2001953125 c 5
 226.328123631 12.6759705916 216.219692656 10.01171875 206.025390625 10.01171875 c 4
 182.901378744 10.01171875 159.335530364 23.7200998311 162.763671875 48.8525390625 c 5
 618.469726562 665.673828125 l 5
 642.469726562 653.673828125 656 625.200195313 676 623.200195312 c 5
 676 604.200195312 l 6
552 123.200195312 m 4
 552 78.2001953125 590 70.2001953125 627 70.2001953125 c 4
 685 70.2001953125 753 108.200195312 753 172.200195312 c 4
 753 222.200195312 718 258.200195312 670 258.200195312 c 4
 601 258.200195312 552 191.200195312 552 123.200195312 c 4
379 542.200195312 m 4
 379 450.200195312 299 395.200195312 210 395.200195312 c 4
 139 395.200195312 52 468.200195312 52 542.200195312 c 4
 52 589.370117188 128 718.200195312 185 718.200195312 c 5
 255.487304688 700.475585938 379 656.657226562 379 542.200195312 c 4
131 531.200195312 m 4
 131 489.132849103 167.911082962 469.760742188 207.634765625 469.760742188 c 4
 253.911274588 469.760742188 304.004882812 496.051453436 304.004882812 543.37890625 c 4
 304.004882812 584.992741827 251.54086019 634.200195312 208 634.200195312 c 4
 164 634.200195312 131 571.200195312 131 531.200195312 c 4
EndSplineSet
Validated: 33
EndChar

StartChar: ampersand
Encoding: 38 38 5
Width: 789
Flags: HMW
HStem: -216 75<194 249 194 251.5> -128 81<681 692 692 692.5 681 709> 171 54 511 61<254 318>
VStem: 48 79<-43 -32 -32 -32> 73 74<345.5 413 345.5 432> 370 69<429 443 346.5 451.5>
LayerCount: 2
Fore
SplineSet
650 249 m 0xf6
 690.888671875 249 741.184570312 219.606445312 741.184570312 196.852539062 c 0
 741.184570312 182.599609375 726.55078125 171 689 171 c 1
 671.947265625 159.631835938 631.856445312 175.02734375 606 144 c 0
 591.856445312 127.02734375 531 33 519 6 c 1
 550.691871368 -21.3512610559 627.35077457 -46.4487214385 680.022662731 -46.4487214385 c 0
 687.182772239 -46.4487214385 693.899622542 -45.9849421689 700 -45 c 1
 700 -43 l 1
 718 -43 742 -64 742 -79 c 0
 741.596599984 -116.786869865 715.276184288 -128.56960803 683.321947047 -128.56960803 c 0
 655.32547989 -128.56960803 623.004346064 -119.524874432 600 -111 c 1
 600 -102 l 1
 571 -88 482 -58 481 -58 c 0
 426 -117 296 -216 207 -216 c 0
 120 -216 48 -128 48 -43 c 2
 48 -32 l 1xfa
 75 46 109 123 162 191 c 1
 162 193 l 1
 151 222 73 287 73 360 c 0
 73 504 173 572 304 572 c 0
 406 572 439 487 439 399 c 0
 439 294 256 227 256 192 c 1
 256 192 257 190 259 189 c 1
 259 191 l 1
 262 188 261 187 261 184 c 1
 310.109375 131.1015625 390.487304688 87.4765625 453 47 c 1
 474.420898438 46.546875 527.999023438 249 650 249 c 0xf6
127 -6 m 2
 127 -79 l 2
 127 -117 178 -141 210 -141 c 0
 291.831054688 -140.03125 364.78125 -73.8935546875 414 -13 c 1
 385.0625 10.435546875 236.874023438 105.983398438 209 137 c 1
 179 106 127 20 127 -6 c 2
147 370 m 0xf6
 147 321 178.694335938 288.993164062 212.694335938 247.993164062 c 1
 310 328 l 1
 348.563972554 341.317144088 369.387833537 384.948412037 369.387833537 426.266230794 c 0
 369.387833537 469.924603108 346.137908143 511 296 511 c 0
 212 511 147 456 147 370 c 0xf6
EndSplineSet
Validated: 33
EndChar

StartChar: asterisk
Encoding: 42 42 6
Width: 726
Flags: HMW
HStem: 60 104<492 537.5> 179 89<331.5 347> 476 67 485 63<515.5 544.5 515.5 570> 636 99<360.5 362 362 367>
VStem: 45 94<461.5 538> 154 73<56 173.5> 181 73<301.5 310> 503 46
LayerCount: 2
Fore
SplineSet
549 306 m 0xdd80
 549 229.641601562 566.533203125 158.599609375 581 98 c 1
 581 91 l 1
 550 91 l 1
 546.31157305 79.1300235177 549.544561635 59.9691409969 535.032032218 59.9691409969 c 0
 534.697548678 59.9691409969 534.353638606 59.9793193797 534 60 c 0
 500 60 471 116 440 133 c 0
 426 140 361 173 347 179 c 1
 305 179 244 34 191 34 c 0
 160 34 154 42 154 70 c 0xde80
 154 149 181 226 181 305 c 1
 167.649414062 344.228515625 97.20703125 438.905273438 77 476 c 1xed80
 65 476 45 488 45 501 c 0
 45 575 227.091796875 520.375 258 563 c 0
 293.61328125 612.112304688 304.659179688 730.92578125 378 735 c 0
 396 735 422 704 425 688 c 1
 425 585 l 1
 432 549 502 548 529 548 c 0
 560 548 579 551 617 558 c 1
 636.244048085 553.97486824 679.046969941 539.641386971 679.046969941 515.891939057 c 0
 679.046969941 510.992709352 677.225500103 505.692785057 673 500 c 1
 673 498 673 497 674 496 c 1
 630 457 549 358 549 306 c 0xdd80
466 335 m 1
 480.5390625 340.856445312 479.658203125 362.794921875 492 366 c 1
 517 387 576 448 576 485 c 1
 414 485 l 1
 385 514 378 636 367 636 c 0
 357 636 313 540 316 527 c 1
 285 496 l 1
 246 493 139 494 139 478 c 0
 139 445 254 355 254 327 c 0xdd80
 254 276 227 204 227 143 c 1
 260 173 305 268 358 268 c 0
 387 268 378 247 389 231 c 0
 406 204 483 164 492 164 c 1
 493.387282507 176.24015972 494.047202012 188.739696009 494.047202012 201.231610675 c 0
 494.047202012 251.877371192 483.199964707 302.397853479 466 335 c 1
EndSplineSet
Validated: 33
EndChar

StartChar: plus
Encoding: 43 43 7
Width: 592
Flags: HMW
HStem: -58 91<176.834 184.334> -47 91
VStem: 186.334 97<-165 -137 -137 -123.5> 200.334 100
LayerCount: 2
Fore
SplineSet
216.013671875 182 m 6x00
 216.013671875 222 l 6
 216.013671875 249 214.013671875 286 214.013671875 301 c 5
 211.46875 301.099609375 208.854492188 301.14453125 206.180664062 301.14453125 c 0
 180.62890625 301.14453125 149.666992188 297.03125 122.001953125 297.03125 c 0
 81.5927734375 297.03125 48.21875 305.807617188 49.013671875 349 c 5
 49.013671875 347 69.013671875 392 90.013671875 392 c 6
 225.013671875 392 l 5
 225.013671875 531 l 5
 229.354492188 557.052734375 251.846679688 569.28125 274.90625 569.28125 c 0
 302.06640625 569.28125 330.013671875 552.317382812 330.013671875 521 c 4
 330.013671875 479 320.013671875 452 317.013671875 399 c 5
 495.013671875 399 l 6
 524.796875 398.864257812 536.388671875 383.483398438 536.388671875 365.604492188 c 0
 536.388671875 343.598632812 518.829101562 317.809570312 496.013671875 312 c 5
 451.013671875 312 l 5
 444.719726562 312.35546875 438.237304688 312.474609375 431.705078125 312.474609375 c 0
 418.640625 312.474609375 405.376953125 312 393.013671875 312 c 6
 354.013671875 312 l 6
 350.013671875 312 326.013671875 311 313.013671875 309 c 5
 313.013671875 163 l 5
 311.615234375 133.495117188 286.29296875 108.893554688 259.056640625 108.893554688 c 0
 246.0078125 108.893554688 232.520507812 114.540039062 221.013671875 128 c 5
 221.013671875 136.666992188 221.013671875 145.333007812 221.013671875 154 c 5
 222.013671875 158 216.013671875 180 216.013671875 182 c 6x00
EndSplineSet
Validated: 33
EndChar

StartChar: hyphen
Encoding: 45 45 8
Width: 546
Flags: HMW
HStem: -3 83<62 318 71 122>
VStem: 36 453<24 51 51 54.5>
LayerCount: 2
Fore
SplineSet
62 80 m 5
 422 80 l 2
 426.075471698 80 430.447134211 80.0911356355 434.932716269 80.0911356355 c 0
 460.164115344 80.0911356355 489 77.2075471698 489 39 c 0
 489 9 447 -8 425 -8 c 0
 323 -8 224 -3 122 -3 c 2
 62 -3 l 1
 62 80 l 5
EndSplineSet
Validated: 1
EndChar

StartChar: zero
Encoding: 48 48 9
Width: 680
Flags: HMW
HStem: 9 99<283.5 403 283.5 444.5> 560 139<290 328.5>
VStem: 54 90<315 415 315 467.5> 530 90<288 351>
LayerCount: 2
Fore
SplineSet
54 387 m 0
 54 548 210 699 370 699 c 0
 408 699 409 670 423 649 c 1
 423 641 l 1
 566 582 620 511 620 354 c 0
 620 214 527 9 362 9 c 0
 160 9 54 201 54 387 c 0
144 379 m 0
 144 251 212 108 355 108 c 0
 460.7420188 108 531.783378598 229.343209665 531.783378598 354.11355752 c 0
 531.783378598 381.665139812 528.319349074 409.38383191 521 436 c 1
 509 440 511 467 505 477 c 0
 457.690652565 550.212909523 385.293434916 559.731285552 302.783375137 559.731285552 c 0
 285.902791257 559.731285552 268.59892094 559.332881283 251 559 c 1
 196 518 144 451 144 379 c 0
EndSplineSet
Validated: 1
EndChar

StartChar: one
Encoding: 49 49 10
Width: 636
Flags: HMW
HStem: -37 90
VStem: 291.449 107<153.5 159.5 153.5 192>
LayerCount: 2
Fore
SplineSet
146.9296875 58.3955078125 m 5
 146.041427898 61.696281578 145.619140625 64.7317089539 145.619140625 67.5302734375 c 4
 145.619140625 115.587909197 270.0982018 93.799153001 297.9296875 146.395507812 c 5
 297.43493317 159.582941389 296.754882812 192.372507543 296.754882812 225.01953125 c 4
 296.754882812 263.203178025 297.685041754 301.191835444 300.9296875 307.395507812 c 5
 300.9296875 324.395507812 l 5
 298.900226618 339.034550542 298.080078125 353.755759445 298.080078125 368.516601562 c 4
 298.080078125 424.378543837 309.825340395 480.80811418 312.224609375 535.5 c 5
 127.9296875 439.395507812 l 5
 104.9296875 439.395507812 50.48046875 471.485351562 50.48046875 505.485351562 c 5
 376.254882812 658.704101562 l 5
 379.469234614 659.170667701 382.632702452 659.395507812 385.729492188 659.395507812 c 4
 417.948362668 659.395507812 442.950195312 635.074337301 442.950195312 605.434570312 c 4
 442.950195312 596.085270921 440.462736529 586.206789705 434.9296875 576.395507812 c 5
 434.9296875 563.395507812 l 5
 428.276367188 515.61328125 408.219726562 470.413085938 403.9296875 420.395507812 c 4
 402.987209661 409.409692317 402.657226562 400.669633587 402.657226562 392.270507812 c 4
 402.657226562 379.68353265 403.39834083 367.862247553 403.9296875 350.395507812 c 6
 403.9296875 337.395507812 l 6
 403.9296875 328.395507812 409.9296875 268.395507812 409.9296875 259.395507812 c 4
 409.9296875 235.597191834 406.267578125 211.725220926 406.267578125 186.694335938 c 4
 406.267578125 175.842051272 406.955974596 164.771923569 408.9296875 153.395507812 c 5
 440.537283843 155.385579196 494.652743431 178.857421875 537.294921875 178.857421875 c 4
 565.400743647 178.857421875 588.522298754 168.660680429 596.9296875 135.395507812 c 5
 596.9296875 98.3955078125 217.9296875 14.3955078125 176.9296875 14.3955078125 c 5
 173.048828125 22.1572265625 150.008789062 38.3896484375 146.9296875 49.3955078125 c 5
 146.9296875 58.3955078125 l 5
EndSplineSet
Validated: 1
EndChar

StartChar: two
Encoding: 50 50 11
Width: 533
Flags: HMW
HStem: -38 112<93.5 120 93.5 122> -19 85<370.5 399> 547 88<246.5 301>
VStem: 337 85<400 436 350 447.5>
LayerCount: 2
Fore
SplineSet
81 66 m 1x70
 81 69 81 72 81 75 c 1
 83.4136813709 74.5030395179 85.8972533957 74.2629211333 88.4436584093 74.2629211333 c 0
 156.001415667 74.2629211333 267.785737325 243.276227907 292 269 c 1
 315 316 337 373 337 427 c 0
 337 468 328 547 274 547 c 0
 207 547 200 473 138 450 c 1
 132 450 115 462 111 470 c 1
 111 483 l 1
 110.411459504 487.719003132 110.126847459 492.349779307 110.126847459 496.889166571 c 0
 110.126847459 582.01289896 210.209802709 635 283 635 c 0
 398 635 422 477 422 395 c 0
 422 305 376 240 324 172 c 0
 290 128 265 118 252 83 c 1
 292.162223195 69.4374436795 337.252864285 65.9875966956 384.045894643 65.9875966956 c 0
 409.696179937 65.9875966956 435.858006797 67.0242221996 462 68 c 1
 479.87411 56.3399913289 487.679114725 41.4113304419 487.679114725 27.0937676774 c 0
 487.679114725 1.75225062109 463.227913524 -21.6748431036 426.879630485 -21.6748431036 c 0
 419.985819656 -21.6748431036 412.664060463 -20.8321502004 405 -19 c 1
 336 -19 278 2 219 2 c 1
 183.488665961 -5.75663943997 134.422681918 -35.1669744016 96.866319889 -35.1669744016 c 0
 73.3418088242 -35.1669744016 54.3331033736 -23.6278156379 46 12 c 1
 46 36 65 51 81 66 c 1x70
EndSplineSet
Validated: 1
EndChar

StartChar: three
Encoding: 51 51 12
Width: 500
Flags: HMW
HStem: -19 87<252 290.5 252 329.5> 99 34<78.5 130 78.5 129> 497 85<270.5 294>
VStem: 48 85 306 99<461 476.5> 363 86<143.5 194>
LayerCount: 2
Fore
SplineSet
130 99 m 1xf4
 126.879882812 66.8271484375 239.358398438 70.916015625 261 68 c 0
 264.938300388 67.4694335361 268.78188475 67.2135670713 272.526924772 67.2135670713 c 0
 327.827664332 67.2135670713 361.641163394 123.004332684 361.641163394 173.946413857 c 0
 361.641163394 214.376556112 340.342748336 251.752613563 291.583984375 255.760742188 c 1
 140.791015625 198.9921875 l 1
 115.001242015 223.529635099 104.502292451 243.066713113 104.502292451 259.612558082 c 0
 104.502292451 331.177424082 300.914136337 346.783015818 306 469 c 0
 306 484 302 497 286 497 c 0
 241.141106759 497 193.35676781 469.946592544 144.713732702 469.946592544 c 0
 143.476366104 469.946592544 142.238443863 469.964098161 141 470 c 0
 121.923828125 470.552734375 93 480 93 505 c 0
 93 581 245 582 296 582 c 0
 348 582 405 542 405 487 c 0xf8
 405 435 376 374 345 332 c 1
 403 298 449 263 449 182 c 0
 449 73 387 -19 272 -19 c 0
 230 -19 190 -5 157 1 c 0
 111 9 48 -4 48 63 c 0
 48 102.505036665 64.3685867939 133.70126988 103.516627643 133.70126988 c 0
 110.036123267 133.70126988 117.187377607 132.836082673 125 131 c 1
 129.565376421 117.139200811 135.067279167 110.891981896 135.067279167 106.058776646 c 0
 135.067279167 103.611590779 133.6567686 101.526912449 130 99 c 1xf4
EndSplineSet
Validated: 33
EndChar

StartChar: four
Encoding: 52 52 13
Width: 643
Flags: HMW
HStem: 131 86<491 501 501 517.5 491 522> 138 85<197.5 300>
VStem: 52 105<200 251 205 251> 295 87<59.5 78 78 90> 309 93
LayerCount: 2
Fore
SplineSet
355 -89 m 1xa0
 303.344836506 -86.0893762078 294.988367992 3.96811814259 294.988367992 79.7313242818 c 0
 294.988367992 98.5552339866 295.504220746 116.496743677 296 132 c 1
 277.073768253 136.958150579 242.415971813 138.228327993 205.966288025 138.228327993 c 0
 167.668954501 138.228327993 127.393466301 136.826115184 101.308595441 136.826115184 c 0
 96.3143866468 136.826115184 91.8403622206 136.877515991 88 137 c 1
 71 148 52 181 52 200 c 2
 52 270 l 1
 72 350 113 433 130 514 c 0
 133 525 138 531 144 538 c 1
 144 537 l 1
 148 542 151 539 157 562 c 1
 157 554 l 1
 179.831054688 545.0703125 223 533.595703125 223 506 c 0
 223 482 215 468 207 450 c 1
 207 441.666992188 207 433.333007812 207 425 c 1
 186 369 157 307 157 251 c 2
 157 229 l 1
 190 223 219 223 251 223 c 2
 300 223 l 1
 300 365 l 1
 302 391 334 403 357 403 c 0
 392.183115897 401.8357013 402.379746367 380.999468338 402.379746367 353.507051223 c 0
 402.379746367 315.187857027 382.570700049 263.937659734 383 235 c 1
 383 235 386 227 387 223 c 1x60
 404 223 475.8671875 217 491 217 c 0
 524 217 596 216 596 175 c 0
 596 143 583 131 548 131 c 2
 387 131 l 1
 387 78 l 1
 385.901087016 71.4217096711 385.473571451 64.2995153162 385.473571451 56.8264841455 c 0
 385.473571451 30.626608115 390.728379024 0.11442136612 390.728379024 -26.3902193384 c 0
 390.728379024 -56.4916330791 383.950610061 -81.4240238222 355 -89 c 1xa0
EndSplineSet
Validated: 33
EndChar

StartChar: five
Encoding: 53 53 14
Width: 475
Flags: HMW
HStem: -40 86<195.569 247.569 195.569 269.569> 197 94<190.569 203.069 148.069 221.569> 495 85<332.569 354.069>
VStem: 52.0683 87<320 325> 334.069 88<113.5 157>
LayerCount: 2
Fore
SplineSet
90.0673828125 46 m 0
 90.0673828125 78 90.0673828125 106 130.067382812 106 c 0
 161.067382812 106 168.067382812 46 223.067382812 46 c 0
 272.067382812 46 334.067382812 86 334.067382812 141 c 0
 334.067382812 173 317.212890625 198 286.067382812 198 c 0
 266.326171875 198 215.272460938 197.34765625 175.630859375 197.34765625 c 0
 155.810546875 197.34765625 138.842773438 197.510742188 130.067382812 198 c 0
 62.9052734375 200.651367188 59 247.036132812 59 300.577148438 c 0
 59 307.622070312 59.0673828125 314.791015625 59.0673828125 322 c 2
 59.0673828125 495 l 2
 59.0673828125 523 141.8984375 551.000976562 161.067382812 554 c 0
 195.30859375 559.356445312 289.373046875 580.2265625 328.692382812 580.2265625 c 0
 331.016601562 580.2265625 333.149414062 580.153320312 335.067382812 580 c 1
 340.8984375 581.818359375 346.682617188 582.654296875 352.303710938 582.654296875 c 0
 384.190429688 582.654296875 410.815429688 555.75 410.815429688 528.598632812 c 0
 410.815429688 515.872070312 404.965820312 503.090820312 391.067382812 493 c 1
 376.081054688 494.430664062 362.127929688 495.094726562 348.764648438 495.094726562 c 0
 308.864257812 495.094726562 274.227539062 489.168945312 233.067382812 480 c 1
 233.067382812 475 l 1
 176.95703125 458.908203125 140.0234375 395.9921875 140.0234375 336.111328125 c 0
 140.0234375 321.3046875 142.282226562 306.682617188 147.067382812 293 c 1
 147.067382812 291 l 1
 257.067382812 291 422.067382812 287 422.067382812 137 c 0
 422.067382812 29 318.067382812 -40 221.067382812 -40 c 0
 170.067382812 -40 90.0673828125 -18 90.0673828125 46 c 0
EndSplineSet
Validated: 1
EndChar

StartChar: six
Encoding: 54 54 15
Width: 492
Flags: HMW
HStem: -37 86<255 332 332 334.5> 112 92<300.5 325> 581 74<265.5 336.5 219 353.5>
VStem: 54 78<211 289.5 211 307.5> 351 87<60.5 79> 378 59<528.5 544>
LayerCount: 2
Fore
SplineSet
54 240 m 0xf4
 54 375 135 655 303 655 c 0
 370.2421875 655 436.778320312 608.970703125 437 536.884765625 c 0
 437 519.95703125 414.162109375 471.061523438 392.8359375 471.061523438 c 0
 386.936523438 471.061523438 381.15234375 474.803710938 376 484 c 1
 376.393554688 498.053710938 377.971679688 513.373046875 377.971679688 527.59765625 c 0
 377.971679688 556.565429688 371.426757812 581 335 581 c 0
 196 581 132 345 132 234 c 0
 132 188 140 130 177 98 c 1
 201 130 234 204 308 204 c 0
 389 204 438 124 438 50 c 0xf8
 438 -29 370 -37 299 -37 c 0
 151 -37 54 102 54 240 c 0xf4
255 49 m 1xf8
 351 49 l 1
 351 75 338 112 312 112 c 0
 289 112 255 72 255 49 c 1xf8
EndSplineSet
Validated: 1
EndChar

StartChar: seven
Encoding: 55 55 16
Width: 613
Flags: HMW
HStem: 575 86<231.154 295.154 231.154 433.654>
VStem: 412.654 92<-55 -53 -53 -48.5> 445.654 73
LayerCount: 2
Fore
SplineSet
86.654296875 673 m 0x80
 165.12890625 673 242.295898438 667.7109375 317.18359375 667.7109375 c 0
 371.3203125 667.7109375 424.266601562 670.474609375 475.654296875 680 c 0
 480.376953125 680.875 485.045898438 681.293945312 489.624023438 681.293945312 c 0
 530.501953125 681.293945312 564.1640625 647.8984375 564.1640625 607.788085938 c 0
 564.1640625 591.048828125 558.301757812 573.139648438 544.654296875 556 c 1
 543.654296875 557 542.654296875 557 542.654296875 557 c 1
 527.717773438 552.928710938 523.037109375 456.994140625 523.037109375 368.081054688 c 0
 523.037109375 316.666015625 524.6015625 267.598632812 526.654296875 240 c 0
 527.486328125 228.814453125 527.85546875 217.680664062 527.85546875 206.5859375 c 0
 527.85546875 119.172851562 504.947265625 34.1669921875 504.947265625 -54.6865234375 c 0
 504.947265625 -63.4189453125 505.16796875 -72.1875 505.654296875 -81 c 1
 501.106445312 -104.979492188 482.889648438 -108.993164062 463.282226562 -108.993164062 c 0
 454.3046875 -108.993164062 445.03515625 -108.151367188 436.654296875 -108 c 1
 436.654296875 -89.6669921875 436.654296875 -71.3330078125 436.654296875 -53 c 0
 436.654296875 -44 411.654296875 -29 411.654296875 -22 c 0
 411.654296875 27 425.654296875 70 425.654296875 113 c 0
 425.654296875 261.083984375 445.654296875 425 445.654296875 575 c 1
 105.654296875 575 l 1
 102.997070312 574.641601562 100.41015625 574.469726562 97.896484375 574.469726562 c 0
 64.4111328125 574.469726562 44 604.96875 44 632.029296875 c 0
 44 653.607421875 56.978515625 673 86.654296875 673 c 0x80
EndSplineSet
Validated: 1
EndChar

StartChar: eight
Encoding: 56 56 17
Width: 498
Flags: HMW
HStem: -35 93<218 254.5> 216 117<243.5 268.5 243.5 269> 487 98<263.5 292 237 296.5>
VStem: 48 98<382.5 416 382.5 443> 112 73<128 135 135 139.5 103 146> 299 86<86.5 121.5> 345 97<410 428 378 440>
LayerCount: 2
Fore
SplineSet
112 135 m 1xec
 110.312547885 142.248878577 109.552050031 149.195794502 109.552050031 155.861919658 c 0
 109.552050031 208.702680153 157.336785412 243.90037626 170 272 c 1
 170 283 48 325 48 418 c 0xf0
 48 468 213 585 261 585 c 0
 323 585 427 564 436 489 c 1
 436 490 l 2
 436 486 432 477 430 471 c 1
 438.278606922 452.19179067 441.863975159 435.014160025 441.863975159 419.207040822 c 0
 441.863975159 349.656433911 372.452678377 306.638381038 328 268 c 1
 347 230 360 184 385 142 c 1
 385 44 l 2
 385 -21 273 -35 236 -35 c 0
 130.785465756 -34.6962899116 111.972170613 38.6930255737 111.972170613 128.884243697 c 0
 111.972170613 130.91452894 111.981704071 132.953328387 112 135 c 1xec
146 396 m 1
 146 369 233 333 254 333 c 0
 283 333 345 394 345 426 c 0xf2
 345 468.871756343 320.29313783 484.998920758 288.239444341 484.998920758 c 0
 233.154437916 484.998920758 156.371880479 437.370227869 146 396 c 1
251 216 m 0
 215.39199326 216 184.628491294 161.82146763 184.628491294 116.915961447 c 0
 184.628491294 85.1464089755 200.026294816 58.0182083057 240 58 c 0
 281 58 299 65 299 108 c 0xe4
 299 135 287 216 251 216 c 0
EndSplineSet
Validated: 1
EndChar

StartChar: nine
Encoding: 57 57 18
Width: 496
Flags: HMW
HStem: 257 88<294 300 294 300.5> 452 126<238 249 249 258>
VStem: 50 93<377 407 377 453> 341 72
LayerCount: 2
Fore
SplineSet
413 270 m 0
 413 183.624023438 425.284179688 86.154296875 440 10 c 0
 440.853515625 5.5810546875 441.255859375 1.4638671875 441.255859375 -2.3583984375 c 0
 441.255859375 -29.8525390625 420.44921875 -42.134765625 397.162109375 -42.134765625 c 0
 367.971679688 -42.134765625 334.884765625 -22.8349609375 334 10 c 1
 338.994140625 33.7197265625 340.849609375 59.1328125 340.849609375 85.443359375 c 0
 340.849609375 141.450195312 332.44140625 201.526367188 328 258 c 1
 317.399414062 257.447265625 306.35546875 257.141601562 295.04296875 257.141601562 c 0
 185.166992188 257.141601562 50 286.040039062 50 399 c 0
 50 507 183 578 274 578 c 0
 370 578 427 496 427 400 c 1
 414 355 413 307 413 270 c 0
143 395 m 0
 143 359 211 357 237 353 c 1
 321 353 l 1
 321 363 317 464 298 466 c 1
 298 458 l 1
 288 454 258 452 258 452 c 1
 236 452 217 472 207 472 c 0
 185 472 143 419 143 395 c 0
EndSplineSet
Validated: 1
EndChar

StartChar: less
Encoding: 60 60 19
Width: 434
Flags: HMW
HStem: -30 539<322.167 334.667>
VStem: 52.6673 121<197 204.5 197 208.5> 52.6673 319<181.5 471>
LayerCount: 2
Fore
SplineSet
48 190.244140625 m 1xc0
 48 215.244140625 66.6669921875 233 83.6669921875 241 c 1
 83.6669921875 250 l 1
 111.666992188 276 177.666992188 333 196.666992188 359 c 1
 196.666992188 360 l 1
 196.666992188 359 l 1
 199.666992188 363 208.666992188 373 208.666992188 373 c 1
 208.666992188 381 l 1
 240.666992188 420 271.953125 454.595703125 293.666992188 491 c 0
 301.417495036 503.994051496 312.275405945 509.319200117 323.709578895 509.319200117 c 0
 350.883405793 509.319200117 381.311941265 479.242940267 381.020507812 450.549804688 c 1
 172.931640625 189.33203125 l 1
 186.931640625 178.33203125 251.666992188 126 256.666992188 123 c 1
 289.666992188 93 365.666992188 65 365.666992188 12 c 0
 365.666992188 -14 348.2578125 -30.505859375 320.2578125 -30.505859375 c 1
 48 190.244140625 l 1xc0
EndSplineSet
Validated: 37
EndChar

StartChar: at
Encoding: 64 64 20
Width: 771
Flags: HMW
HStem: -13 83<345 417 417 435 345 447> 149 78<346.5 376.5 335 384> 149 83<547 589.5 542.5 591> 428 69<353 398> 591 78<364.5 426>
VStem: 54 84<278.5 420 278.5 426.5> 203 84<274.5 278 278 320.5> 411 89<400 403 403 407 400 408> 630 83
LayerCount: 2
Fore
SplineSet
612 66 m 0xbf80
 612 -2.345703125 494.807617188 9.4287109375 447 -13 c 1
 417 -13 l 2
 220 -13 54 139 54 342 c 0
 54 511 122 604 283 660 c 1
 289.385735384 658.640876305 295.456823667 658.086316512 301.339370357 658.086316512 c 0
 327.436732247 658.086316512 349.823276419 669.000992018 379.510027463 669.000992018 c 0
 547.46531725 669.000992018 712.766802152 517.8750161 712.766802152 343.461735819 c 0
 712.766802152 305.52844832 705.058064971 266.309351873 688 227 c 1xdf80
 688 219 l 1
 662.104427683 180.783640964 607.444739252 150.280961095 557.267316613 150.280961095 c 0
 523.392041572 150.280961095 491.559663979 164.183270723 472 199 c 1
 441.499242785 166.308193121 397.262796305 148.235949995 351.144282772 148.235949995 c 0
 318.289460485 148.235949995 284.479463664 157.407858285 254 177 c 0
 237.186523438 187.807617188 227 213 203 228 c 1
 203 278 l 1
 202.044894641 286.39967441 201.577581965 294.677683567 201.577581965 302.817350307 c 0
 201.577581965 390.619813012 255.953638473 462.324884249 339 497 c 1
 469 497 l 2
 473 497 515 446 515 439 c 1
 514 439 508 422 505 414 c 1
 505.916015625 402.346679688 502.08203125 377.99609375 503 379 c 1
 506.08984375 337.2890625 516.42578125 232 569 232 c 0
 610.793945312 232.65625 631.759765625 292.991210938 631 331 c 1
 623.944335938 342.640625 623.6796875 346.259765625 628 359 c 0
 627.840820312 361.200195312 628.879882812 364.201171875 630 368 c 1
 629 491 483 591 369 591 c 0
 238 591 138 485 138 355 c 0
 138 202 269 70 421 70 c 0
 453.942382812 70 532.626953125 99.482421875 573 109 c 1
 598 109 612 90 612 66 c 0xbf80
386 428 m 0
 328.004047101 428 286.077622448 359.12182616 286.077622448 302.003892475 c 0
 286.077622448 261.546023988 307.112929204 226.988497857 358.372535847 226.988497857 c 0
 358.911676765 226.988497857 359.454161252 226.99232079 360 227 c 0
 393 227 422 258 428 293 c 1
 424.276367188 344.561523438 411 382.654296875 411 403 c 0
 411 413 410 428 386 428 c 0
EndSplineSet
Validated: 33
EndChar

StartChar: A
Encoding: 65 65 21
Width: 637
Flags: HMW
HStem: 1 21G<513.5 572> 217 83 433 182<309.5 330>
VStem: 53 542<19.5 114>
LayerCount: 2
Fore
SplineSet
406 217 m 0
 358 217 240 187 199 183 c 1
 179 151 161 27 122 27 c 0
 85 27 53 61 53 97 c 0
 53 131 79 155 79 187 c 0
 79 203 61 214 61 230 c 0
 61 271 132 292 148 329 c 0
 174 390 265 615 309 615 c 0
 398 615 411.545898438 444.228515625 449 355 c 0
 479.545898438 282.228515625 595 79 595 28 c 0
 595 11 579 1 565 1 c 0
 462 1 468 217 406 217 c 0
324 433 m 0
 295 433 258 337 258 300 c 1
 261.314285714 300 265.085714286 299.973877551 269.196361516 299.973877551 c 0
 301.053877551 299.973877551 353.285714286 301.542857143 371 329 c 1
 369 336 336 433 324 433 c 0
EndSplineSet
Validated: 1
EndChar

StartChar: B
Encoding: 66 66 22
Width: 632
Flags: HW
LayerCount: 2
Fore
SplineSet
101.85546875 243 m 0
 101.85546875 333.20703125 75.12109375 446.220703125 42 530.395507812 c 1
 62.32421875 635.345703125 242.571184506 664 323.602136869 664 c 0
 404.771887076 664 525.85546875 610.25 525.85546875 513 c 0
 525.85546875 421.026367188 455.558403706 449.920898438 423.513451498 394.017578125 c 0
 421.064247877 389.744140625 l 1
 425.680240061 388.198242188 l 0
 518.905273438 357.4296875 585.85546875 302.678710938 585.85546875 203 c 0
 585.85546875 54.236328125 334.064988226 46.052734375 233.830775836 42.998046875 c 0
 230.469747491 42.8955078125 l 1
 230.054317833 39.4931640625 l 0
 229.560814389 35.4462890625 223.604073588 33 214.456910126 33 c 0
 213.759099529 33 213.055059632 32.9998383285 212.345180998 32.9998383285 c 0
 176.624934768 32.9998383285 126.121107891 33.4091876746 110.59375 75.423828125 c 0
 103.111328125 95.0673828125 101.85546875 142.10546875 101.85546875 185 c 0
 101.85546875 243 l 0
204.41527167 175.962890625 m 1
 205.530473791 174.521484375 l 2
 232.438941901 139.750976562 249.188178938 138 277.799812259 138 c 0
 278.69861229 137.999989283 l 0
 328.567347702 137.999989283 481.85546875 138.289424916 481.85546875 234 c 0
 481.85546875 288.784179688 388.518081232 311 350.888443555 311 c 0
 340.69409409 311 188.118376076 290.679899189 188.118376076 262.615003243 c 0
 188.118376076 237.7967688 205.468063446 209.44817411 205.468063446 185.620963476 c 0
 205.468063446 182.941183275 205.248609399 180.318593502 204.760338532 177.764648438 c 0
 204.41527167 175.962890625 l 1
384.996085944 577 m 0
 378.331861689 577 345.168815738 578 338.220248678 578 c 0
 296.966445077 578 144.85546875 567.537109375 144.85546875 493 c 0
 144.85546875 451.876953125 162.489647949 395.672851562 208.343057877 395.672851562 c 0
 209.280907198 395.672851562 l 1
 427.104845708 508.249023438 l 1
 427.104845708 510.706054688 l 0
 427.104845708 527.256835938 401.009887183 566.499023438 387.239020546 576.282226562 c 0
 386.228880682 577 l 1
 384.996085944 577 l 0
EndSplineSet
Validated: 1
EndChar

StartChar: C
Encoding: 67 67 23
Width: 586
Flags: HMW
HStem: 72 112<249.5 312.5> 486 86<261 326.5>
VStem: 51 103<268.5 358 268.5 399>
LayerCount: 2
Fore
SplineSet
51 322 m 0
 51 476 163 572 314 572 c 0
 354 572 413 553 413 503 c 0
 413 478.766628838 401.982921723 471.656190581 386.621878915 471.656190581 c 0
 364.804389809 471.656190581 334.223868509 486 314 486 c 0
 208 486 154 408 154 308 c 0
 154 229 213 184 286 184 c 0
 361 184 427 221 499 221 c 0
 500.076923077 221 501.24260355 221.00591716 502.47701411 221.00591716 c 0
 517.289940828 221.00591716 542 220.153846154 542 198 c 0
 542 114 352 72 273 72 c 0
 140 72 51 198 51 322 c 0
EndSplineSet
Validated: 1
EndChar

StartChar: D
Encoding: 68 68 24
Width: 655
Flags: HMW
HStem: -8 131<139.5 306.5> 616 94<203.5 231 76 285>
VStem: 41 120<546 686.5> 507 94<389 457.5>
LayerCount: 2
Fore
SplineSet
601 394 m 0
 601 175.700195312 370.899414062 35.9580078125 169 -8 c 1
 93.2314453125 -4.5537109375 83 36.2255859375 83 103 c 0
 83 129 86 157 102 175 c 1
 100.1328125 346.083984375 82.3173828125 522.655273438 41 676 c 1
 41 697 50 710 76 710 c 2
 282 710 l 1
 446 680 601 543 601 394 c 0
265 123 m 0
 352.405273438 123 507 290.416015625 507 392 c 0
 507 515.173319356 368.568334591 613.715607236 228.280206098 613.715607236 c 0
 206.052325124 613.715607236 183.777838281 611.241736956 162 606 c 1
 160.950898963 592.943335432 160.489801791 580.68228172 160.489801791 568.935031898 c 0
 160.489801791 510.763868494 171.796493434 465.19183279 179 398 c 0
 185.310546875 339.13671875 161 123 265 123 c 0
EndSplineSet
Validated: 1
EndChar

StartChar: E
Encoding: 69 69 25
Width: 595
Flags: HMW
HStem: 88 99 320 93<254 296 254 435 175 296> 530 80 546 98<174 183 174 183>
VStem: 79 95<325.5 546>
LayerCount: 2
Fore
SplineSet
72 563 m 1xd8
 65.73046875 577.75390625 51 589.552734375 51 606 c 0
 51 638.142857143 69.8775510204 642.734693878 93.7842565598 642.734693878 c 0
 103.346938776 642.734693878 113.714285714 642 124 642 c 2
 277 642 l 1
 312 639 485 614 519 610 c 1
 534.125504255 602.064338964 540.61766685 589.727260749 540.61766685 577.005570348 c 0
 540.61766685 553.114690248 517.721433581 527.86737919 486.110231902 527.86737919 c 0
 480.951692032 527.86737919 475.561072336 528.539715711 470 530 c 1
 439 530 l 2xe8
 438.379110994 529.999728803 l 0
 351.450990395 529.999728803 260.983742103 545.919137852 175 546 c 1
 175 416 l 1
 448 416 l 1
 463 412 484 381 484 359 c 0
 484 338 455 320 435 320 c 2
 175 320 l 1
 175 303.384615385 174.360946746 282.721893491 174.360946746 261.747837961 c 0
 174.360946746 237.278106509 175.230769231 212.384615385 179 193 c 1
 211.465062169 187.913925716 268.891251212 186.621484031 328.761437026 186.621484031 c 0
 390.634941639 186.621484031 455.118736779 188.001865678 497.358875519 188.001865678 c 0
 498.249210323 188.001865678 499.129662731 188.001252403 500 188 c 1
 518 182 518 171 518 163 c 0
 518 93 256 88 157 88 c 2
 121 88 l 2
 81.609375 88.0810546875 63.8408203125 110.3515625 65 149 c 1
 77.3388671875 180.616210938 79 297.727539062 79 338 c 0
 79 369.658203125 74.041015625 514.85546875 72 547 c 1
 72 563 l 1xd8
EndSplineSet
Validated: 33
EndChar

StartChar: F
Encoding: 70 70 26
Width: 549
Flags: HMW
HStem: 295 104<263 330 263 330>
VStem: 94 108<61 123.5 67 123.5 458.5 460 460 469>
LayerCount: 2
Fore
SplineSet
94 61 m 1
 92.130859375 109.662109375 87.267578125 182.94921875 87.267578125 246.3203125 c 0
 87.267578125 259.770507812 87.486328125 272.7734375 88 285 c 1
 71 296 53 321 53 338 c 0
 53 370 94 381 94 386 c 2
 94 561 l 2
 94 600 57 594 44 645 c 1
 61 674 86 693 117 693 c 0
 143 693 452 625 452 598 c 0
 452 556 384 552 366 552 c 0
 315 552 270 563 213 565 c 1
 208.504882812 530.65234375 202.034179688 495.983398438 202.034179688 461.674804688 c 0
 202.034179688 439.9140625 204.637695312 418.297851562 212 397 c 1
 287.640625 398.431640625 387.998046875 400.456054688 473 402 c 0
 500 402 500 383 500 370 c 0
 500 302 314.892578125 297.844726562 271 295 c 0
 206.892578125 290.844726562 192 298 192 260 c 0
 192 229.403320312 205.379882812 168.889648438 205.379882812 115.46484375 c 0
 205.379882812 69.65625 195.54296875 29.05859375 159 17 c 1
 130 17 104 36 94 61 c 1
EndSplineSet
Validated: 1
EndChar

StartChar: G
Encoding: 71 71 27
Width: 723
Flags: HMW
HStem: 77 99<245.5 323.5> 542 101<271 300 300 363 271 391>
VStem: 49 106<311 389 311 433.5> 548 107<274 320.5 274 323>
LayerCount: 2
Fore
SplineSet
620 34 m 0
 560.163071198 34.9923261798 548.327720566 86.3167199737 548.327720566 138.639522496 c 0
 548.327720566 146.458937164 548.592051276 154.300650292 549 162 c 1
 549 150 l 1
 502 150 l 1
 436 115 360 77 287 77 c 0
 146 77 49 228 49 356 c 0
 49 511 195 643 347 643 c 0
 379 643 429 643 429 592 c 0
 429 573 424 542 391 542 c 2
 300 542 l 2
 231 542 155 422 155 356 c 0
 155 266 199 176 292 176 c 0
 377 176 548 224 548 321 c 0
 548 343.872254061 542.394792209 369.304151738 542.394792209 391.671302716 c 0
 542.394792209 418.262998501 550.317295822 440.522925029 585 449 c 1
 610 449 638 429 656 409 c 1
 655.596644065 371.687968282 654.701187459 330.222423918 654.701187459 288.621774477 c 0
 654.701187459 216.510595168 657.391789825 143.99346203 670 92 c 1
 670 62 653 34 620 34 c 0
EndSplineSet
Validated: 5
EndChar

StartChar: H
Encoding: 72 72 28
Width: 613
Flags: HMW
HStem: 329 86<387.5 421 421 425 154 438>
VStem: 51 103<415 583.5> 451 115
LayerCount: 2
Fore
SplineSet
51 570 m 1
 54.2360380629 595.298205516 68.5273614939 605.118884575 85.481629098 605.118884575 c 0
 115.552298448 605.118884575 154 574.225204731 154 544 c 2
 154 415 l 1
 430 415 l 1
 430 462 412 522 412 570 c 0
 412 600 414 622 451 622 c 0
 532 622 521.963867188 354.69921875 533 312 c 0
 536.229492188 299.506835938 547.3125 223.291015625 567 209 c 1
 567 189 551 146 541 131 c 1
 421 168 471 229 438 329 c 1
 363 329 244 308 171 286 c 1
 170.855647125 283.739044461 170.786984742 281.504262552 170.786984742 279.293423388 c 0
 170.786984742 236.275621103 196.782654538 202.322573773 197 161 c 0
 197 139 183 113 155 113 c 0
 73 113 62 353 60 406 c 0
 59 431 53 545 51 570 c 1
EndSplineSet
Validated: 1
EndChar

StartChar: I
Encoding: 73 73 29
Width: 643
Flags: HMW
HStem: 42 111<187 218> 576 94<112.5 152.5> 589 108<412 472 412 507 411 472>
VStem: 110 18 327 93<249 282>
LayerCount: 2
Fore
SplineSet
201 153 m 0xb8
 220.576733065 153 242.390690815 150.827255852 262.409203304 150.827255852 c 0
 298.979955546 150.827255852 329.55864508 158.078504034 329.55864508 199.07483713 c 0
 329.55864508 205.776291216 328.741560647 213.379438082 327 222 c 1
 327 342 326 470 291 585 c 1
 257 585 l 1
 255.470473796 585.034212194 253.919946702 585.050654459 252.349798221 585.050654459 c 0
 213.459221271 585.050654459 162.531124598 574.96349297 120.527576047 574.96349297 c 0
 76.3212045313 574.96349297 42 586.136414483 42 632 c 0
 42 652 60 665 76 671 c 1
 88.5910235599 670.415620529 101.092160592 670.155713522 113.522486225 670.155713522 c 0
 213.598563118 670.155713522 309.084787726 687.002362299 409.935461064 687.002362299 c 0
 410.623390051 687.002362299 411.311568643 687.001578431 412 687 c 2
 472 687 l 1
 523.001159668 689.299743652 529.001159668 598.299743652 490.000976562 591.299804688 c 1
 411 589 l 1
 407.312931748 552.620859289 402.494003516 514.740048125 402.494003516 477.711789648 c 0
 402.494003516 442.844331459 404.300863084 408.727555594 410.000976562 377.299804688 c 5
 420 249 l 1
 422 211 424 189 463 189 c 1
 479.782260714 194.544237679 497.318591072 197.475874461 514.060204826 197.475874461 c 0
 561.178798965 197.475874461 602.002297947 174.253844877 602.002297947 120.697248457 c 0
 602.002297947 93.5858351545 253.875291331 62 183 62 c 0
 143.882909426 62 109.094837768 91.4667149242 109.094837768 121.077829852 c 0
 109.094837768 132.999703547 114.733938714 144.944984293 128 155 c 1
 147 154 173 153 201 153 c 0xb8
EndSplineSet
Validated: 33
EndChar

StartChar: J
Encoding: 74 74 30
Width: 581
Flags: HMW
HStem: -33 73<190.5 266.5 190.5 276> 693 73 700 73<143 174 168 174 168 291>
VStem: 283 95<583 682.5> 328 81<199.5 294.5>
LayerCount: 2
Fore
SplineSet
401 693 m 1xc8
 401.437081193 691.37347123 401.637207442 689.84827206 401.637207442 688.410062747 c 0
 401.637207442 671.001760444 377.988609454 668.16340971 377.988609454 649.913610027 c 0
 377.988609454 527.634080624 408.172513338 371.667611788 408.172513338 239.664117019 c 0
 408.172513338 87.3877876838 368.005517641 -33 195 -33 c 0
 156 -33 42 -11 42 41 c 1
 51.5384904617 70.8204251752 66.8468791851 80.7970620101 85.2957276911 80.7970620101 c 0
 122.602839368 80.7970620101 172.752107635 40 214 40 c 0
 319 40 328 160 328 239 c 0
 327.849609375 396.1953125 300.541992188 550.215820312 284 700 c 1
 152 700 l 2
 134 700 107 718 107 737 c 0
 107 772 162 773 174 773 c 0xa8
 220.690390887 773 283.329924885 778.028312976 343.901662648 778.028312976 c 0
 433.75791015 778.028312976 519.063604101 766.962615558 541 712 c 1
 537.911074225 684.882561731 522.353965765 676.915069643 501.765060248 676.915069643 c 0
 472.425893645 676.915069643 432.869050691 693.094032061 404.612706662 693.094032061 c 0
 403.38660778 693.094032061 402.181786206 693.063569268 401 693 c 1xc8
EndSplineSet
Validated: 1
EndChar

StartChar: K
Encoding: 75 75 31
Width: 759
Flags: HMW
HStem: -5 21G<99.5 136>
VStem: 47 85 63 104<160 183.5 160 214>
LayerCount: 2
Fore
SplineSet
153.240234375 193.904296875 m 1xc0
 162.895091392 158.642598998 178.771873468 106.963241 178.771873468 65.1198505717 c 0
 178.771873468 25.6937520289 164.676507494 -5 118 -5 c 0
 81 -5 69 119 69 201 c 2
 69 676 l 1
 92 676 130.8359375 673.4453125 132 650 c 0
 137.8359375 532.4453125 145.776367188 455.137695312 152 348 c 0
 153.172151464 327.821795592 159.557566109 320.340574641 168.651741669 320.340574641 c 0
 188.886941501 320.340574641 222.533074612 357.379707352 242 374 c 0
 260.248046875 389.579101562 544 607 551 607 c 0
 576 607 617 603 617 574 c 0
 617 509 377 432 377 358 c 0
 377 351 384 358 393 348 c 0
 484 252 575.864257812 160.553710938 686 90 c 0
 707.222813202 76.4044535276 716.271607924 55.3824988138 716.271607924 33.9095407179 c 0
 716.271607924 -1.2449446045 692.018440153 -37.6082385057 657.225585938 -44.572265625 c 1
 567 47 l 1
 524 94 325.89453125 298.212890625 281.89453125 305.212890625 c 1
 153.240234375 193.904296875 l 1xc0
EndSplineSet
Validated: 1
EndChar

StartChar: L
Encoding: 76 76 32
Width: 672
Flags: HMW
HStem: 646 79<39 98.5> 698 27 705 20G<84.5 98.5>
VStem: 39 120<561.5 650> 39 586<161 650>
LayerCount: 2
Fore
SplineSet
211 214 m 0x10
 341.092773438 214 429.075195312 260.025390625 540.443359375 260.025390625 c 0
 541.958007812 260.025390625 543.4765625 260.017578125 545 260 c 0
 593 260 625 255 625 198 c 0x08
 625 112.887695312 292.951171875 159.13671875 247 96 c 1
 245.631835938 100.767578125 240.890625 95.361328125 244 94 c 1
 224.682617188 67.9052734375 193.928710938 54.4765625 163.97265625 54.4765625 c 0
 129.186523438 54.4765625 95.4755859375 72.5859375 82 110 c 1
 82.53125 118.444335938 82.814453125 154.057617188 82.814453125 189.650390625 c 0
 82.814453125 223.771484375 82.5537109375 257.873046875 82 268 c 0
 79.697265625 315.724609375 51.302734375 572.504882812 49 596 c 5
 49.625 601.828125 49.751953125 609.454101562 49.751953125 617.65625 c 0
 49.751953125 623.279296875 49.6923828125 629.173828125 49.6923828125 634.946289062 c 0
 49.6923828125 654.0703125 50.34765625 671.854492188 56 674 c 1
 68.37890625 674.249023438 79.0654296875 674.947265625 88.5458984375 674.947265625 c 0
 110.98046875 674.947265625 126.65625 671.036132812 142 648 c 1
 141.43359375 645.609375 141.180664062 643.172851562 141.180664062 640.702148438 c 0
 141.180664062 619.818359375 159.260742188 596.540039062 159 579 c 0
 159 461.809570312 173 361.981445312 185 250 c 0
 187 229 185 214 211 214 c 0x10
247 94 m 1
 245.708984375 93.31640625 245.276367188 92.9951171875 245.276367188 92.955078125 c 0
 245.276367188 92.8681640625 247.395507812 94.1669921875 247 96 c 2
 247 94 l 1
EndSplineSet
Validated: 37
EndChar

StartChar: M
Encoding: 77 77 33
Width: 835
Flags: HMW
HStem: 438 149<635.142 640.642>
VStem: 640.642 103<384 389 389 406 366 438>
LayerCount: 2
Fore
SplineSet
361.124023438 384.908203125 m 1
 465.466796875 421.703125 557.30859375 582.458984375 679.642578125 587 c 1
 734.150390625 577.53125 750.818359375 530.76171875 750.818359375 476.223632812 c 0
 750.818359375 453.453125 747.913085938 429.329101562 743.642578125 406 c 1
 743.642578125 389 l 2
 743.642578125 343 786.642578125 182 786.642578125 158 c 0
 786.642578125 143 766.642578125 114 751.642578125 105 c 1
 646.74609375 142.022460938 640.530273438 288.602539062 640.530273438 396.798828125 c 0
 640.530273438 411.346679688 640.642578125 425.200195312 640.642578125 438 c 1
 537.642578125 438 449.676757812 232.208007812 382.676757812 232.208007812 c 1
 175.811523438 441.081054688 l 1
 179.811523438 386.081054688 173.642578125 323 184.642578125 268 c 0
 188.642578125 248 209.642578125 212 209.642578125 191 c 0
 209.642578125 156 209.642578125 113 167.642578125 113 c 0
 88.642578125 113 96.2255859375 180.201171875 89.642578125 234 c 0
 84.62890625 274.96875 65.76171875 422.051757812 55.642578125 466 c 0
 49.89453125 490.962890625 46 510.916992188 46 528.96875 c 0
 46 549.248046875 50.916015625 567.124023438 63.642578125 587 c 1
 79.642578125 587 139.642578125 587 149.642578125 578 c 2
 361.124023438 384.908203125 l 1
EndSplineSet
Validated: 1
EndChar

StartChar: N
Encoding: 78 78 34
Width: 760
Flags: HMW
HStem: -2 21G<657.028 672.528>
VStem: 46.0275 104<470 531>
LayerCount: 2
Fore
SplineSet
657.028320312 -2 m 1
 507.241210938 99.7685546875 328.202148438 257.08984375 176.028320312 368 c 1
 169.328125 357.811523438 166.84765625 342.05859375 166.84765625 323.888671875 c 0
 166.84765625 284.624023438 178.428710938 234.072265625 184.028320312 204 c 1
 220.424804688 114.568359375 l 1
 220.424804688 78.568359375 198.028320312 57 164.028320312 57 c 0
 45.017578125 57 102.626953125 342.561523438 55.0283203125 454 c 1
 50.76171875 454.813476562 46 475.9375 46 498.9375 c 0
 46 526.689453125 52.931640625 557.171875 76.0283203125 558 c 0
 95.0283203125 558 134.028320312 542 150.028320312 531 c 1
 150.028320312 502 518.028320312 197 589.028320312 179 c 1
 595.133789062 195.370117188 597.37890625 217.245117188 597.37890625 241.931640625 c 0
 597.37890625 310.090820312 580.263671875 399.6796875 580.028320312 454 c 1
 569.88671875 470.471679688 562.615234375 496.0625 562.615234375 519.474609375 c 0
 562.615234375 548.96484375 574.153320312 575 606.028320312 575 c 0
 701.028320312 575 681.028320312 242 692.028320312 170 c 0
 694.028320312 160 704.028320312 99 709.028320312 84 c 1
 709.028320312 74 709.028320312 64 709.028320312 54 c 0
 709.028320312 23 688.028320312 -2 657.028320312 -2 c 1
EndSplineSet
Validated: 1
EndChar

StartChar: O
Encoding: 79 79 35
Width: 725
Flags: HMW
HStem: 62 103<258.5 375 258.5 401> 536 104<296 404.5>
VStem: 57 113<253 337> 575 95<324 446>
LayerCount: 2
Fore
SplineSet
50 402 m 1
 101.782436305 542.285857309 185.880246917 640.003877711 334.377755292 640.003877711 c 0
 334.917651746 640.003877711 335.458399468 640.002586024 336 640 c 0
 486 640 670 568 670 390 c 0
 670 171 494 62 308 62 c 0
 307.260762229 61.9966116241 306.523415588 61.9949189464 305.787956799 61.9949189464 c 0
 123.157347322 61.9949189464 56.9389471814 166.371900281 56.9389471814 328.87584791 c 0
 56.9389471814 345.648298974 57.6443609296 363.039967071 59 381 c 1
 53 389 50 394 50 402 c 1
170 308 m 0
 170 198 205 165 312 165 c 0
 438 165 575 254 575 394 c 0
 575 498 449 536 360 536 c 0
 232 536 170 422 170 308 c 0
EndSplineSet
Validated: 1
EndChar

StartChar: P
Encoding: 80 80 36
Width: 1070
Flags: HMW
HStem: 75 173<497.5 509 478 524>
VStem: 103 104<132 293>
LayerCount: 2
Fore
SplineSet
207 138 m 0
 207 88.56640625 176.084960938 44.8662109375 150 40 c 1
 105.170686941 50.7112642895 94.6071489214 86.0947165119 94.6071489214 129.515214999 c 0
 94.6071489214 168.218235833 103 213.306781317 103 253 c 0
 103 367.21875 89.4775390625 503.754882812 50 589 c 1
 54.37109375 602.749023438 46.5478515625 603.208984375 42 610 c 1
 42 645 57.5 655.5 90.5 655.5 c 1
 493.5 252.5 l 1
 533.5 252.5 550 346 575 377 c 0
 640 458 701 529 765 610 c 0
 785 636 777 662 790 687 c 0
 797 701 851 748 879 748 c 0
 911 748 941 693 954 670 c 1
 947.963366048 668.739505429 945.900186788 665.816398076 945.900186788 662.23736433 c 0
 945.900186788 656.455289228 951.285027159 648.961264523 954 644 c 1
 954 627 l 1
 948.402664707 596.033040224 945.845521005 563.950868497 945.845521005 531.623773559 c 0
 945.845521005 457.91733154 959.138816901 382.937657709 980 317 c 0
 993 279 1024 237 1024 197 c 0
 1024 158 1006 136 966 136 c 0
 871 136 857 460 842 541 c 1
 800 509 784 440 747 403 c 0
 690 346 575 262 575 167 c 2
 575 154 l 1
 580.180228199 148.69745567 582.482263692 143.098968139 582.482263692 137.440548471 c 0
 582.482263692 131.262755619 579.738236631 125.013523642 575 119 c 1
 575 116 581 104 584 102 c 1
 580.498784236 103.309949234 577.193122266 103.883998276 574.035586564 103.883998276 c 0
 551.637471302 103.883998276 536.692825789 74.9987963611 512.273087626 74.9987963611 c 0
 483.015345681 74.9987963611 461.475407762 78.6406469971 438 128 c 0
 383.415039062 242.767578125 281 335 188 420 c 1
 180 410 179 406 179 395 c 0
 179 315 207 222 207 138 c 0
EndSplineSet
Validated: 1
EndChar

StartChar: Q
Encoding: 81 81 37
Width: 731
Flags: HMW
HStem: 155 86<363.936 377.936> 733 87<286.936 369.436>
VStem: 51.9361 87<452 464 464 465.5 365.5 492.5> 516.936 94<413.5 498.5>
LayerCount: 2
Fore
SplineSet
610.935546875 430 m 0
 610.935546875 349.249023438 589.698242188 284.362304688 561.3359375 240.200195312 c 1
 691.536132812 -20.2001953125 l 1
 691.536132812 -58.2001953125 652.935546875 -57 628.935546875 -58 c 1
 625.935546875 -56 551.935546875 34 551.935546875 42 c 1
 541.935546875 74 497.935546875 170 467.935546875 170 c 1
 425.879882812 160.600585938 385.013671875 155.899414062 346.35546875 155.899414062 c 0
 177.65625 155.899414062 51 245.4296875 51 424.788085938 c 0
 51 433.639648438 51.30859375 442.7109375 51.935546875 452 c 1
 51.935546875 464 l 2
 51.935546875 521 51.935546875 584 74.935546875 637 c 0
 96.935546875 688 256.935546875 820 316.935546875 820 c 0
 494.935546875 820 610.935546875 578 610.935546875 430 c 0
138.935546875 436 m 0
 139.969726562 294.240234375 235.954101562 240.83984375 366.548828125 240.83984375 c 0
 377.768554688 240.83984375 389.243164062 241.233398438 400.935546875 242 c 1
 484.935546875 294 516.935546875 338 516.935546875 446 c 0
 516.935546875 551 432.935546875 733 305.935546875 733 c 0
 249.935546875 733 285.935546875 688 205.935546875 656 c 0
 139.935546875 629 138.935546875 495 138.935546875 436 c 0
EndSplineSet
Validated: 1
EndChar

StartChar: R
Encoding: 82 82 38
Width: 698
Flags: HMW
HStem: 315 93<180 345> 582 94<376 378.5>
VStem: 51 94<460.5 549> 433 95<487.5 542>
LayerCount: 2
Fore
SplineSet
51 544 m 0
 51 661.66796875 300.358398438 670.607421875 376 676 c 1
 436 676 l 1
 486 642 528 591 528 528 c 0
 528 447 418 392 418 392 c 1
 483.928710938 330.521484375 655 238.532226562 655 166 c 0
 655 130 630 91 589 91 c 0
 504 91 425 315 265 315 c 0
 231 315 177 300 177 263 c 0
 177 222.413925457 195.871028077 166.830109135 195.871028077 124.721431394 c 0
 195.871028077 89.700362523 182.818003789 64 135 64 c 0
 118 64 124 74 109 74 c 1
 81 103 51 445 51 544 c 0
152 538 m 1
 149.325195312 518.356445312 145 494.088867188 145 471 c 0
 145 450 147 429 153 409 c 1
 161.563601053 408.566190661 171.244817179 408.312607265 181.731420447 408.312607265 c 0
 275.303319266 408.312607265 433 428.502872401 433 521 c 0
 433 563 402 582 355 582 c 0
 274 582 226 557 152 538 c 1
EndSplineSet
Validated: 1
EndChar

StartChar: S
Encoding: 83 83 39
Width: 548
Flags: HW
LayerCount: 2
Fore
SplineSet
451.63671875 124.751953125 m 0
 399.5078125 116.063476562 361.190723499 94.7001953125 292.466754351 94.7001953125 c 0
 251.158507502 94.7001953125 56 123.955078125 56 201.950195312 c 0
 56 234.024414062 82.6005859375 252.364257812 107.446289062 252.364257812 c 0
 127.913085938 252.364257812 145.97265625 239.861328125 151.57421875 216.572265625 c 1
 193.744794306 196.995117188 231.159511457 190.129882812 278.677882827 190.129882812 c 0
 332.439587938 190.129882812 403.340820312 211.951171875 403.340820312 242.450195312 c 0
 403.340820312 371.379882812 56 257.642578125 56 499.219726562 c 0
 56 588.352539062 144.778320312 641.299804688 247.653425067 641.299804688 c 0
 275.222111055 641.299804688 422.630859375 637.71875 422.630859375 580.219726562 c 0
 422.630859375 564.5234375 422.442382812 517.51953125 388.280273438 517.51953125 c 0
 360.860643958 517.51953125 326.997300885 529.747070312 311.147444915 552.638671875 c 1
 301.887103668 553.340820312 296.355252349 553.512695312 288.121377965 553.512695312 c 0
 219.467852621 553.512695312 151.430664062 531.126953125 151.430664062 493.549804688 c 0
 151.430664062 374.322265625 498.771484375 463.66796875 498.771484375 231.919921875 c 0
 498.771484375 192.336914062 475.864257812 156.458984375 455.579101562 127.249023438 c 0
 454.134765625 125.16796875 l 1
 451.63671875 124.751953125 l 0
EndSplineSet
Validated: 1
EndChar

StartChar: T
Encoding: 84 84 40
Width: 706
Flags: HMW
HStem: 562 112<466.5 583 542 583 542 590>
VStem: 5 645<545 605>
LayerCount: 2
Fore
SplineSet
375 92 m 1
 380.623266254 136.438350252 383.092622157 180.341225959 383.092622157 223.825649498 c 0
 383.092622157 329.804604682 368.425141593 433.298037613 349 536 c 0
 348 544 340 545 333 545 c 0
 264.71875 545 196.4375 522.34375 129 522.34375 c 4
 108 522.34375 43 534.34375 43 562.34375 c 4
 43 587.34375 54 613.34375 77 625.34375 c 5
 567.80859375 667.3046875 l 5
 615.80859375 667.3046875 658 662.93359375 658 608.34375 c 4
 658 593.34375 616 565.34375 598 565.34375 c 6
 470 562 l 1
 463.203737822 542.192804654 460.347499065 510.770007594 460.347499065 473.484099337 c 0
 460.347499065 353.437146549 489.955380691 172.612955911 513 123 c 1
 511.586980111 79.1098836355 478.872842135 56.3158878277 443.709677224 56.3158878277 c 0
 418.531294381 56.3158878277 392.097247917 68.0028116903 375 92 c 1
EndSplineSet
Validated: 1
EndChar

StartChar: U
Encoding: 85 85 41
Width: 680
Flags: HMW
HStem: 44 103<273.04 340.04 273.04 380.04>
VStem: 51.0399 95<351 405 351 417.5> 517.04 93<368.5 412.5>
LayerCount: 2
Fore
SplineSet
119.040039062 604 m 0
 147.400390625 603.819335938 172.040039062 590.291992188 172.040039062 547 c 0
 172.040039062 488 146.040039062 436 146.040039062 374 c 0
 146.040039062 328 187.040039062 287 187.040039062 247 c 1
 212.040039062 247 233.040039062 147 313.040039062 147 c 0
 367.040039062 147 460.040039062 193 490.040039062 207 c 1
 511.07421875 246.888671875 518.911132812 315.928710938 518.911132812 388.318359375 c 0
 518.911132812 466.952148438 509.6640625 549.537109375 498.040039062 603 c 1
 502.966796875 631.55078125 531.465820312 646.258789062 558.479492188 646.258789062 c 0
 584.973632812 646.258789062 610.040039062 632.111328125 610.040039062 603 c 2
 610.040039062 139 l 1
 577.040039062 56 420.040039062 44 340.040039062 44 c 0
 167.040039062 44 51.0400390625 229 51.0400390625 392 c 0
 51.0400390625 397.099609375 51 403.299804688 51 410.329101562 c 0
 51 473.58984375 54.240234375 604 119.040039062 604 c 0
EndSplineSet
Validated: 1
EndChar

StartChar: V
Encoding: 86 86 42
Width: 588
Flags: HMW
HStem: -6 21G<309.177 378.677> -6 183<321.677 329.677 321.677 378.677>
VStem: 42.6772 493<482.5 498.5>
LayerCount: 2
Fore
SplineSet
72.6767578125 441 m 1xa0
 59.3818359375 453.836914062 43 477.665039062 43 499.251953125 c 0
 43 510.364257812 47.3408203125 520.881835938 58.6767578125 529 c 1
 116.676757812 529 l 2
 138.676757812 529 192.676757812 389 204.676757812 368 c 0
 244.676757812 296 313.676757812 177 321.676757812 177 c 1x60
 351.676757812 274 398.676757812 360 424.676757812 456 c 0
 437.676757812 504 434.676757812 537 492.676757812 537 c 0
 519.676757812 537 535.676757812 525 535.676757812 497 c 0
 535.676757812 452 492.676757812 402 475.676757812 361 c 0
 444.676757812 287 419.676757812 203 402.676757812 126 c 0
 393.676757812 84 412.676757812 -6 344.676757812 -6 c 0
 273.676757812 -6 288.2265625 77.01171875 255.676757812 126 c 0
 189.2265625 226.01171875 139.676757812 326 72.6767578125 441 c 1xa0
EndSplineSet
Validated: 1
EndChar

StartChar: W
Encoding: 87 87 43
Width: 862
Flags: HMW
HStem: 148 168<610 635 594.5 655.5> 405 140<422 452.5>
VStem: 40 769
LayerCount: 2
Fore
SplineSet
432 405 m 0
 412 405 338 255 333 221 c 0
 327 179 321 155 267 155 c 0
 233 155 218 199 208 221 c 0
 152 341 51 552 40 558 c 1
 56 586 75 603 109 603 c 0
 180 603 163 524 179 478 c 0
 192 440 245 316 274 295 c 1
 279 327 335.044921875 434.540039062 362 492 c 0
 380.133344283 530.654802702 399.064790042 546.013458956 418.242742771 546.013458956 c 0
 492.459548429 546.013458956 570.368078141 316 620 316 c 0
 650 316 686 501 707 617 c 1
 787 617 l 2
 792 617 803 594 809 580 c 1
 767 443 708 319 692 177 c 0
 690 160 663 148 648 148 c 0
 572 148 473 405 432 405 c 0
EndSplineSet
Validated: 1
EndChar

StartChar: X
Encoding: 88 88 44
Width: 584
Flags: HMW
HStem: 99 542
VStem: 43.8448 488<204 611>
LayerCount: 2
Fore
SplineSet
41 597.407226562 m 1
 41 619.407226562 71.8447265625 637 87.8447265625 641 c 1
 158.844726562 631 235.844726562 487 299.844726562 443 c 1
 351.844726562 488 413.844726562 627 479.844726562 627 c 1
 512.500421958 615.321891082 525.198827431 600.773532563 525.198827431 584.325431759 c 0
 525.198827431 526.005708863 365.556306902 443.802700196 369.841796875 380.977539062 c 1
 534.857421875 217.032226562 l 1
 534.857421875 196.853497098 484.725041608 171.998317238 474.516465044 171.998317238 c 0
 418.408165616 171.998317238 356.553387841 319.236241543 317.497519415 319.236241543 c 0
 316.601130324 319.236241543 315.716751001 319.158681112 314.844726562 319 c 1
 247.844726562 292 198.844726562 99 128.844726562 99 c 1
 122.963674054 97.7964500042 117.432318147 97.2248920806 112.282495025 97.2248920806 c 0
 84.0051181296 97.2248920806 67.2311215021 114.457613398 67.2311215021 138.917923854 c 0
 67.2311215021 146.950607566 69.0401022934 155.762745943 72.8447265625 165 c 1
 151.844726562 229 182.330078125 288.17578125 245.330078125 373.17578125 c 1
 41 597.407226562 l 1
EndSplineSet
Validated: 33
EndChar

StartChar: Y
Encoding: 89 89 45
Width: 682
Flags: HMW
HStem: 705 20G<80 80>
VStem: 313 94<144 207.5 353 362>
LayerCount: 2
Fore
SplineSet
352 538 m 1
 429.880859375 599.521484375 467.80078125 662.961914062 524 717 c 1
 524 723 l 1
 538.126717741 739.918149444 561.721400549 748.679130202 584.036596609 748.679130202 c 0
 613.644509868 748.679130202 641 733.256199321 641 701 c 0
 641 660 612.013671875 668.884765625 587 646 c 0
 565.013671875 625.884765625 441 499 407 465 c 1
 407.621150897 433.460636901 407.826281845 398.717853351 407.826281845 362.273788301 c 0
 407.826281845 291.375775852 407.049953077 214.039174844 407.049953077 141.32339251 c 0
 407.049953077 101.564948356 407.282038081 63.187906985 408 28 c 1
 397.547058585 10.1120430552 383.238462598 2.63079334292 368.813752521 2.63079334292 c 0
 340.031997144 2.63079334292 310.787961569 32.4155818385 310.787961569 68.7457888387 c 0
 310.787961569 74.369104052 311.488587837 80.1492338787 313 86 c 1
 313 443 l 1
 226 503 l 1
 151 570 39 666.819335938 39 678 c 0
 39 701 59 713 76 723 c 1
 76 725 l 1
 137 708 336 538 352 538 c 1
EndSplineSet
Validated: 1
EndChar

StartChar: Z
Encoding: 90 90 46
Width: 740
Flags: HMW
HStem: 114 73<474.5 551.5> 561 72<344.5 369>
VStem: 42 653<131 609.5> 121 125<134.5 211.5>
LayerCount: 2
Fore
SplineSet
647 99 m 1xd0
 593.807053491 110.293602403 536.041274817 113.759921015 476.251353746 113.759921015 c 0
 381.203167089 113.759921015 281.039660835 105 186 105 c 0
 147.922917266 105 120.525427627 120.408261776 120.525427627 158.494230128 c 0
 120.525427627 164.990928726 121.322625636 172.147491522 123 180 c 1
 225 276 291 401 357 517 c 0
 360 523 371 558 372 561 c 1
 123 561 l 2
 97 561 48 574 42 604 c 1xe0
 42 615 59 629 71 641 c 1
 204.723632812 640.34765625 352.001953125 634 452 634 c 0
 482.06640625 634 504 625 504 594 c 0
 504 544 459.838867188 551.745117188 438 517 c 0
 386.931640625 435.751953125 270.83984375 269.568359375 246 194 c 1
 687 194 l 1
 692.892369435 181.674590491 695.767883599 168.465868251 695.767883599 155.935140245 c 0
 695.767883599 125.530925273 678.838915213 99.1182548762 647 99 c 1xd0
EndSplineSet
Validated: 1
EndChar

StartChar: a
Encoding: 97 97 47
Width: 623
Flags: HMW
HStem: -55 10
VStem: 31 536<-44 5.5>
LayerCount: 2
Fore
SplineSet
267 193 m 0
 210.205078125 193 179.799804688 89.271484375 160 40 c 1
 151 40 139 -2 96 -2 c 0
 63 -2 53 41 48 47 c 1
 47 50 43 49 43 53 c 1
 45.763671875 54.7021484375 57.5322265625 60.4345703125 51 70 c 1
 51 72 l 1
 74.15234375 104.16015625 95.6455078125 162.961914062 119 189 c 1
 122.661132812 231.520507812 152.7109375 244.940429688 169 280 c 0
 215.979492188 381.1171875 290.666992188 455.06640625 308 562 c 1
 310.295898438 563.326171875 319.451171875 569.54296875 310 574 c 1
 308.663799085 603.417897534 331.801395511 614.984259505 355.418639574 614.984259505 c 0
 376.903510287 614.984259505 398.78532511 605.412234302 403 591 c 1
 409 591 410 549 423 535 c 1
 422 533 420 532 417 529 c 1
 454.123046875 434.28125 519.63671875 295.73046875 542 198 c 1
 542 187 560 163 560 155 c 1
 569.45703125 149.483398438 575.446289062 135.455078125 576 121 c 1
 578.821633537 118.072247005 579.961517296 114.099555766 579.961517296 109.628459606 c 0
 579.961517296 91.9634456103 562.168052765 66.5183836777 560 67 c 1
 548 57 540 54 524 54 c 1
 469.883789062 74.974609375 481.139648438 110.411132812 460 145 c 0
 458.52130129 147.914319432 451.571750421 205.324325282 399.885965584 205.324325282 c 0
 397.673633166 205.324325282 395.379337728 205.219142144 393 205 c 0
 374.966796875 203.338867188 352.0625 196 320 196 c 0
 304.857421875 196 288.6328125 193 267 193 c 0
277 284 m 1
 277.274130448 283.99555611 277.547968833 283.993365434 277.821518132 283.993365434 c 0
 296.985659972 283.993365434 314.730960661 294.745274345 332.081323435 294.745274345 c 0
 336.74277068 294.745274345 341.37571081 293.969188069 346 292 c 1
 352 292 402 299 403 313 c 1
 403 313 398 346 397 349 c 1
 398.293945312 351.298828125 370 415 361 432 c 1
 346 417 333.844726562 407.875976562 325 372 c 1
 317.436493186 354.847876037 275.210701955 315.851127908 275.210701955 291.686846787 c 0
 275.210701955 288.9101682 275.768248667 286.329336583 277 284 c 1
EndSplineSet
Validated: 33
EndChar

StartChar: b
Encoding: 98 98 48
Width: 586
Flags: HMW
HStem: -2 58<301 338 282.5 366.5> 321 94<224.5 253> 621 66<270.5 312>
VStem: 123 100<183.5 321> 131 71<487 520.5 487 555.5> 396 80<522.5 580> 461 81<129 198.5>
LayerCount: 2
Fore
SplineSet
124 137 m 1xe2
 123.346454748 158.64671248 123.071009414 180.053352525 123.071009414 201.288120344 c 0
 123.071009414 315.243434735 131.003499784 424.249038183 131.003499784 538.845083293 c 0
 131.003499784 566.967018887 109 570.187063337 109 591 c 0
 109 670 217 687 280 687 c 0
 350 687 476 656 476 563 c 0xe4
 476 479 389 410 329 372 c 1
 375 303 542 278 542 169 c 0
 542 59 415 -2 318 -2 c 0
 284 -2 175 20 80 42 c 0
 57 47 43 50.7158203125 43 79 c 0
 43 116 96 136 124 137 c 1xe2
223 321 m 1xf2
 225.228698949 307.798745747 225.986510316 292.654002931 225.986510316 276.428745882 c 0
 225.986510316 241.942434357 222.563001601 202.574763096 222.563001601 166.612083766 c 0
 222.563001601 105.026444076 232.602829546 53.4263297566 287.068645635 53.4263297566 c 0
 293.974795817 53.4263297566 301.595213848 54.2559410776 310 56 c 1
 366 56 461 95 461 163 c 0
 461 234 283 321 223 321 c 1xf2
292 621 m 0
 221.409179688 621 202 589.676757812 202 509 c 0
 202 465 208 415 241 415 c 0
 304 415 396 490 396 555 c 0xec
 396 605 332 621 292 621 c 0
EndSplineSet
Validated: 1
EndChar

StartChar: c
Encoding: 99 99 49
Width: 572
Flags: HMW
HStem: 47 87<193.176 268.176 193.176 283.676> 495 80<263.676 322.176 263.676 344.676>
VStem: 56.1759 81<299 339 339 350 348.5 360.5>
LayerCount: 2
Fore
SplineSet
237.174804688 134 m 0
 327.958984375 134 440.564453125 223.140625 500.174804688 247 c 1
 511.174804688 247 527.174804688 231 527.174804688 217 c 0
 527.174804688 121.6484375 321.174804688 47 246.174804688 47 c 0
 103.174804688 47 56.1748046875 168 56.1748046875 299 c 0
 56.1748046875 316 56.1748046875 333 56.1748046875 350 c 0
 56.0576171875 352.600585938 56 355.18359375 56 357.75 c 0
 56 488.459960938 206.069335938 575 305.174804688 575 c 0
 339.174804688 575 479.174804688 544 479.174804688 499 c 1
 470.806640625 466.833984375 458.26171875 456.268554688 442.291992188 456.268554688 c 0
 411.71484375 456.268554688 368.583984375 495 318.174804688 495 c 0
 207.174804688 495 137.174804688 416 137.174804688 308 c 0
 137.174804688 235 149.174804688 134 237.174804688 134 c 0
EndSplineSet
Validated: 1
EndChar

StartChar: d
Encoding: 100 100 50
Width: 583
Flags: HMW
HStem: 72 111<139.5 240> 615 81<185 215 92 254>
VStem: 92 58 437 85<429.5 436 429.5 455>
LayerCount: 2
Fore
SplineSet
84 117 m 1
 83.8814298053 123.900777983 83.8266679594 130.862305798 83.8266679594 137.877081352 c 0
 83.8266679594 222.803169835 91.8532890629 315.533951986 91.8532890629 402.7567825 c 0
 91.8532890629 499.751406094 81.9274384538 589.934806833 40 655 c 1
 40 693 72 696 112 696 c 0
 318 696 439 627 524 446 c 1
 522.682551821 441.687554974 522.047967258 437.470432364 522.047967258 433.402895513 c 0
 522.047967258 424.32169397 525.211068837 415.986106139 531 409 c 1
 528 394 524 349 516 329 c 1
 436.354775653 212.290002633 317.348407791 71.999363269 152.607951392 71.999363269 c 0
 152.405370089 71.999363269 152.202719629 71.9995754111 152 72 c 0
 127 72 99 97 84 117 c 1
150 600 m 1
 151.543945312 457.752929688 173.400390625 327.858398438 194 198 c 1
 200 195 248.795898438 165.061523438 255.795898438 165.061523438 c 1
 414 322 l 1
 436 337 437 370 437 392 c 0
 437 518 315 615 193 615 c 0
 177 615 160 615 150 600 c 1
EndSplineSet
Validated: 1
EndChar

StartChar: e
Encoding: 101 101 51
Width: 543
Flags: HW
LayerCount: 2
Fore
SplineSet
312.391601562 656.983398438 m 0
 341.839394604 659.316476776 376.246707149 678.66849636 406.12653991 678.66849636 c 0
 415.605849559 678.66849636 424.629485873 676.720790413 432.89453125 671.6640625 c 0
 457.397460938 656.671875 459 651.767578125 459 641 c 0
 459 547.884765625 166 601.794921875 166 553.651367188 c 2
 166 373.88671875 l 1
 182.025607805 372.959513771 198.483297083 372.575612196 215.18009521 372.575612196 c 0
 284.248326394 372.575612196 357.408089318 379.144777179 421 381 c 0
 437.59375 381 478 360.059570312 478 338.185546875 c 0
 478 322.000976562 459.474609375 307.083984375 455.897460938 296.408203125 c 1
 166 296.408203125 l 1
 166 146.209960938 l 2
 166 141.142578125 193.112304688 111.625976562 202.297851562 104.322265625 c 1
 245.241147949 97.5613854305 296.701939037 95.4106179323 347.324281918 95.4106179323 c 0
 371.021596736 95.4106179323 394.535177341 95.8819285884 416.905273438 96.572265625 c 1
 416.905273438 94.5244140625 l 2
 417.754882812 92.6396484375 423.198242188 89.88671875 424.059570312 89.5029296875 c 0
 429.993943196 94.7941269617 437.045686245 97.0307643776 444.424962562 97.0307643776 c 0
 470.176424362 97.0307643776 500.130123283 70.6492152879 500.130123283 48.7411795247 c 0
 500.130123283 20.0855256216 463.770762109 -1.14854740504 439.080078125 -1.9208984375 c 1
 362.46054277 19.6622029432 286.141741221 30.6879649352 204.657655016 30.6879649352 c 0
 177.146510361 30.6879649352 149.046568174 29.4311239482 120.147460938 26.8994140625 c 1
 78.1904296875 40.1142578125 65 66.201171875 65 118.192382812 c 0
 65 210.794921875 82 315.116210938 82 398.30859375 c 0
 82 467.16015625 71.0556640625 535.458007812 59 593 c 1
 59 653.109375 296.913085938 655.198242188 312.391601562 656.983398438 c 0
EndSplineSet
Validated: 1
EndChar

StartChar: f
Encoding: 102 102 52
Width: 547
Flags: HMW
HStem: 227 101 511 87<204 214 214 255 255 264.5 204 268>
VStem: 44 121<482.5 496.5 462 547.5> 121 95
LayerCount: 2
Fore
SplineSet
44 506 m 0xe0
 44 589 132 598 204 598 c 2
 255 598 l 2
 274 598 349 589 350 588 c 1
 350 590 l 1
 367.846539109 590.435281442 437.335746761 563.246311612 437.335746761 533.926948171 c 0
 437.335746761 526.278755171 432.607218783 518.485595403 421 511 c 1
 406.888997396 511.235677083 389.912000868 511.314236111 371.972005208 511.314236111 c 0
 336.092013889 511.314236111 296.360026041 511 268 511 c 2
 214 511 l 2
 189 511 165 509 165 484 c 0
 165 440 174 361 199 321 c 1
 271 321 337 328 408 328 c 0
 445 328 501 324 501 288 c 0
 501 270 463 258 451 256 c 1
 209 256 l 1
 203.100586809 233.724002294 200.941498549 210.699133135 200.941498549 187.203244768 c 0
 200.941498549 123.038660572 217.043409639 55.3613392825 217.043409639 -10.1699177129 c 0
 217.043409639 -12.115218939 217.029220562 -14.0586290436 217 -16 c 0
 216.416982987 -45.1712981824 192.16346118 -61.0275855639 168.321717568 -61.0275855639 c 0
 147.755420107 -61.0275855639 127.495530254 -49.2287891491 123 -24 c 1
 123 29 l 1
 117 139 109 252 87 360 c 1
 87 361 l 1
 74 415 44 459 44 506 c 0xe0
EndSplineSet
Validated: 33
EndChar

StartChar: g
Encoding: 103 103 53
Width: 639
Flags: HMW
HStem: -76 21G<531.567 562.067> 74 86<298.067 363.567> 501 86
VStem: 49.5664 98 488.567 92
LayerCount: 2
Fore
SplineSet
580.565429688 -76 m 1
 531.530273438 -73.5654296875 489.15234375 8.8720703125 489.565429688 74 c 2
 489.565429688 93 l 1
 473.565429688 93 450.565429688 90 434.565429688 86 c 1
 434.565429688 84 l 1
 404.376953125 77.3837890625 375.379882812 74.2294921875 347.791992188 74.2294921875 c 0
 180.279296875 74.2294921875 64.7041015625 190.510742188 49.5654296875 354 c 0
 49.185546875 358.103515625 49 362.205078125 49 366.30078125 c 0
 49 478.928710938 189.4609375 587 296.565429688 587 c 0
 298.501953125 587 300.587890625 587.012695312 302.788085938 587.012695312 c 0
 326.80078125 587.012695312 371.672851562 585.071289062 371.672851562 543.78125 c 0
 371.672851562 525.286132812 348.6875 515.276367188 314.565429688 502 c 1
 314.565429688 500 l 1
 249.078125 474.375 146.66015625 436.138671875 146.66015625 335.70703125 c 0
 146.66015625 330.319335938 146.955078125 324.752929688 147.565429688 319 c 0
 158.831054688 217.209960938 247.25 160.04296875 346.651367188 160.04296875 c 0
 377.557617188 160.04296875 409.525390625 165.5703125 440.565429688 177 c 1
 440.565429688 181 l 1
 478.16796875 197.328125 489.373046875 241.014648438 489.373046875 287.918945312 c 0
 489.373046875 302.543945312 488.284179688 317.481445312 486.565429688 332 c 1
 495.240234375 350.030273438 513.78125 358.955078125 532.123046875 358.955078125 c 0
 556.520507812 358.955078125 580.565429688 343.162109375 580.565429688 312 c 2
 580.565429688 -76 l 1
EndSplineSet
Validated: 33
EndChar

StartChar: h
Encoding: 104 104 54
Width: 614
Flags: HMW
HStem: 118 500<175.946 401.946> 359 77<296.446 428.446> 557 44<44.4466 129.946>
VStem: 439.446 129
LayerCount: 2
Fore
SplineSet
44.447265625 557 m 0x30
 43.4580078125 560.103515625 43 563.073242188 43 565.8984375 c 0
 43 587.766601562 70.4375 601.010742188 91.41796875 601.010742188 c 0
 91.7626953125 601.010742188 92.1064453125 601.006835938 92.447265625 601 c 0
 167.447265625 601 163.447265625 477 181.447265625 428 c 1
 188.547851562 427.302734375 195.557617188 427.0078125 202.502929688 427.0078125 c 0
 240.600585938 427.0078125 276.760742188 435.887695312 315.447265625 436 c 2
 379.447265625 436 l 1x70
 379.447265625 482 327.447265625 513 327.447265625 556 c 0
 327.447265625 596 346.447265625 618 388.447265625 618 c 0x90
 415.447265625 618 429.989257812 617.478515625 448.447265625 557 c 0
 476.989257812 463.478515625 503.447265625 374 534.447265625 281 c 0
 546.447265625 246 569.447265625 218 569.447265625 181 c 0
 569.447265625 154 555.447265625 134 527.447265625 134 c 0
 413.447265625 134 455.447265625 359 401.447265625 359 c 0x70
 381.447265625 359 206.447265625 327 206.447265625 305 c 0
 206.447265625 263 233.447265625 228 233.447265625 187 c 0
 233.447265625 166 222.447265625 118 190.447265625 118 c 0x90
 161.447265625 118 133.447265625 154 121.447265625 170 c 1
 98.9033203125 281.447265625 76.3310546875 456.958007812 44.447265625 557 c 0x30
EndSplineSet
Validated: 1
EndChar

StartChar: i
Encoding: 105 105 55
Width: 612
Flags: HMW
HStem: 24 112<184.5 258> 51 98<437 446.5>
VStem: 43 525<76.5 635 76.5 643>
LayerCount: 2
Fore
SplineSet
292 557 m 1xa0
 291.177855382 545.846736185 290.79540941 534.567561717 290.79540941 523.197497195 c 0
 290.79540941 401.577651627 334.552972518 269.558618792 352 170 c 1
 352 144 l 1
 376.8472725 144.987336409 414.87368829 149.009741469 452.133651584 149.009741469 c 0
 511.024154148 149.009741469 568 138.961467262 568 91 c 0
 568 50.7057551213 545.177669109 40.5264202934 515.777855982 40.5264202934 c 0
 487.809235091 40.5264202934 453.887932669 49.7388113354 428 51 c 0x60
 424.963606102 51.1479074242 421.882640719 51.2183079631 418.761315645 51.2183079631 c 0
 356.91716781 51.2183079631 279.228938806 23.5810341918 218.456770864 23.5810341918 c 0
 176.907840951 23.5810341918 143.26586976 36.4993360426 128 80 c 1
 128 136 233 135 258 136 c 1
 258 157 l 1
 255.755859375 246.151367188 211.845703125 414.422851562 197 497 c 0
 194.083007812 513.224609375 186 539 172 549 c 1
 163.544629044 547.471051581 153.32388979 546.742342449 142.377253083 546.742342449 c 0
 100.284227197 546.742342449 47.4578793922 557.517238642 43 575 c 1
 43 635 l 1
 62.4648060314 645.050502654 219.994556684 668.036398524 315.307888024 668.036398524 c 0
 348.743357897 668.036398524 374.522639994 665.207815058 384 658 c 1
 384 635 404 635 404 609 c 0
 404 563 319 569 292 557 c 1xa0
EndSplineSet
Validated: 1
EndChar

StartChar: j
Encoding: 106 106 56
Width: 711
Flags: HMW
HStem: 80 81<192.5 206> 638 80<232 548 241 321>
VStem: 373 88<376 385>
LayerCount: 2
Fore
SplineSet
49 241 m 0
 49 271 65 287 94 287 c 0
 165 287 151 161 234 161 c 0
 331.033816222 161 371.534980906 276.835614726 371.534980906 383.113055739 c 0
 371.534980906 408.152595293 369.286765022 432.661561514 365 455 c 0
 361.044921875 475.610351562 359 638 321 638 c 2
 241 638 l 1
 214.4407437 640.499327689 198.855615941 662.321627938 198.855615941 682.542636814 c 0
 198.855615941 700.933601633 211.747421729 718 241 718 c 2
 548 718 l 1
 591 712 666 715 666 655 c 0
 666 631.941176471 649.044982699 629.906574394 627.980867087 629.906574394 c 0
 623.467128028 629.906574394 618.764705882 630 614 630 c 0
 589.916992188 630 477 643 453 645 c 1
 440 643 438 642 438 635 c 0
 438 560 461 485.060546875 461 411 c 0
 461 341 406 109 314 96 c 1
 205 96 l 2
 149 96 49 194 49 241 c 0
EndSplineSet
Validated: 1
EndChar

StartChar: k
Encoding: 107 107 57
Width: 644
Flags: HMW
HStem: 44 638<491.214 570.714>
VStem: 107.214 102
LayerCount: 2
Fore
SplineSet
209.21484375 95 m 2
 209.21484375 73 187.21484375 73 174.21484375 73 c 0
 114.21484375 73 123.21484375 148 121.21484375 191 c 1
 107.21484375 201 84.21484375 226 84.21484375 246 c 0
 84.21484375 265 114.139648438 278.909179688 109.805664062 301.497070312 c 2
 43 649.65625 l 1
 60.1669135874 667.13880426 75.0985362784 674.546916052 88.0460541819 674.546916052 c 0
 148.285233733 674.546916052 165.575749068 514.188195177 165.21484375 462 c 1
 169.21484375 442 179.21484375 396 180.21484375 396 c 1
 180.21484375 388 l 1
 271.21484375 474 371.21484375 569 451.21484375 667 c 1
 462.619202798 674.285042826 483.462432875 682.331647293 500.128543311 682.331647293 c 0
 514.150000864 682.331647293 525.21484375 676.636165517 525.21484375 660 c 0
 525.21484375 594 389.881835938 529.08984375 389.881835938 482.08984375 c 1
 602.180664062 78.560546875 l 1
 602.180664062 59.560546875 554.98828125 30.7412109375 535.98828125 30.7412109375 c 1
 334.846679688 413.434570312 l 1
 288.846679688 376.434570312 253.21484375 325 209.21484375 286 c 1
 209.21484375 95 l 2
EndSplineSet
Validated: 33
EndChar

StartChar: l
Encoding: 108 108 58
Width: 575
Flags: HMW
HStem: 62 100 62 592<104.158 116.158 98.6581 143.658>
VStem: 71.1581 90<179.5 317.5>
LayerCount: 2
Fore
SplineSet
173.159179688 603 m 1x60
 168.737304688 528.543945312 159.9453125 438.0546875 159.9453125 352.233398438 c 0
 159.9453125 285.3984375 165.278320312 221.395507812 182.159179688 170 c 1
 209.822265625 163.854492188 236.328125 161.515625 262.166992188 161.515625 c 0
 339.719726562 161.515625 411.276367188 182.580078125 490.159179688 185 c 0
 491.247070312 185.033203125 492.310546875 185.049804688 493.348632812 185.049804688 c 0
 521.623046875 185.049804688 531.7578125 172.848632812 531.7578125 157.283203125 c 0
 531.7578125 129.86328125 500.305664062 92 481.159179688 92 c 2
 135.159179688 92 l 2
 73.1591796875 92 71.1591796875 152 71.1591796875 207 c 0
 71.0234375 251.350585938 69.3779296875 309.467773438 67.1591796875 363 c 0
 64.341796875 430.96484375 63.1591796875 505 63.1591796875 580 c 1
 58.8447265625 586.194335938 57 592.795898438 57 599.41015625 c 0
 57 626.607421875 88.1962890625 654 107.159179688 654 c 0
 125.159179688 654 157.159179688 647 173.159179688 626 c 1
 173.159179688 603 l 1x60
EndSplineSet
Validated: 1
EndChar

StartChar: m
Encoding: 109 109 59
Width: 835
Flags: HMW
HStem: 438 149<635.142 640.642>
VStem: 640.642 103<384 389 389 406 366 438>
LayerCount: 2
Fore
SplineSet
361.124023438 384.908203125 m 1
 465.466796875 421.703125 557.30859375 582.458984375 679.642578125 587 c 1
 734.150390625 577.53125 750.818359375 530.76171875 750.818359375 476.223632812 c 0
 750.818359375 453.453125 747.913085938 429.329101562 743.642578125 406 c 1
 743.642578125 389 l 2
 743.642578125 343 786.642578125 182 786.642578125 158 c 0
 786.642578125 143 766.642578125 114 751.642578125 105 c 1
 646.74609375 142.022460938 640.530273438 288.602539062 640.530273438 396.798828125 c 0
 640.530273438 411.346679688 640.642578125 425.200195312 640.642578125 438 c 1
 537.642578125 438 449.676757812 232.208007812 382.676757812 232.208007812 c 1
 175.811523438 441.081054688 l 1
 179.811523438 386.081054688 173.642578125 323 184.642578125 268 c 0
 188.642578125 248 209.642578125 212 209.642578125 191 c 0
 209.642578125 156 209.642578125 113 167.642578125 113 c 0
 88.642578125 113 96.2255859375 180.201171875 89.642578125 234 c 0
 84.62890625 274.96875 65.76171875 422.051757812 55.642578125 466 c 0
 49.89453125 490.962890625 46 510.916992188 46 528.96875 c 0
 46 549.248046875 50.916015625 567.124023438 63.642578125 587 c 1
 79.642578125 587 139.642578125 587 149.642578125 578 c 2
 361.124023438 384.908203125 l 1
EndSplineSet
Validated: 1
EndChar

StartChar: n
Encoding: 110 110 60
Width: 710
Flags: HMW
HStem: 100 527<539.028 622.528>
VStem: 46.0275 104<522 583>
LayerCount: 2
Fore
SplineSet
607.028320312 100 m 1
 481.028320312 185.212890625 311.221679688 331.53125 176.028320312 420 c 1
 169.328125 409.811523438 166.84765625 394.05859375 166.84765625 375.888671875 c 0
 166.84765625 336.624023438 178.428710938 286.072265625 184.028320312 256 c 1
 220.424804688 166.568359375 l 1
 220.424804688 130.568359375 198.028320312 109 164.028320312 109 c 0
 45.017578125 109 102.626953125 394.561523438 55.0283203125 506 c 1
 50.76171875 506.813476562 46 527.9375 46 550.9375 c 0
 46 578.689453125 52.931640625 609.171875 76.0283203125 610 c 0
 95.0283203125 610 134.028320312 594 150.028320312 583 c 1
 150.028320312 559 478.028320312 296 539.028320312 281 c 1
 546.365234375 297.811523438 548.571289062 309.624023438 548.571289062 323.294921875 c 0
 548.571289062 330.895507812 547.888671875 339.071289062 547.028320312 349 c 0
 541.625 411.288085938 533.512695312 519.09765625 512.028320312 562 c 1
 512.028320312 589 522.028320312 627 556.028320312 627 c 0
 651.028320312 627 631.028320312 334 642.028320312 272 c 0
 644.028320312 262 654.028320312 201 659.028320312 186 c 1
 659.028320312 176 659.028320312 166 659.028320312 156 c 0
 659.028320312 126 638.028320312 100 607.028320312 100 c 1
EndSplineSet
Validated: 1
EndChar

StartChar: o
Encoding: 111 111 61
Width: 553
Flags: HMW
HStem: 59 80<248 296> 469 95<253 259 259 321.5 215 334.5>
VStem: 55 99<249.5 288.5> 404 95<341.5 355.5>
LayerCount: 2
Fore
SplineSet
248 59 m 0
 141.30859375 59 55 143.163085938 55 264 c 0
 55 313 86 525 215 564 c 1
 259 564 l 1
 262.46395734 564.139863621 265.926313563 564.209413878 269.384277274 564.209413878 c 0
 385.772656471 564.209413878 497.184909166 485.418321976 497.184909166 356.933431295 c 0
 497.184909166 339.814817004 495.207183497 321.814067229 491 303 c 1
 495.856561163 293.121862896 497.962682664 282.765274187 497.962682664 272.518429881 c 0
 497.962682664 251.535088326 489.130817158 231.011951848 477 216 c 0
 414 134 344 59 248 59 c 0
154 296 m 0
 154 203 193 139 260 139 c 0
 332 139 404 247 404 325 c 0
 404 386 369 469 300 469 c 0
 206 469 154 400 154 296 c 0
EndSplineSet
Validated: 1
EndChar

StartChar: p
Encoding: 112 112 62
Width: 491
Flags: HMW
HStem: 592 80<266.135 272.635>
VStem: 41.6355 118<512.5 528> 335.635 89<509.5 533.5>
LayerCount: 2
Fore
SplineSet
195.63671875 221 m 0
 195.63671875 189.463867188 228.75 123.325195312 228.75 79.5341796875 c 0
 228.75 54.6494140625 218.056640625 36.9814453125 184.516601562 36.9814453125 c 0
 183.897460938 36.9814453125 183.270507812 36.98828125 182.63671875 37 c 0
 157.63671875 37 143.63671875 49 139.63671875 74 c 0
 132.63671875 121 86.63671875 406 79.63671875 452 c 0
 75.072265625 481.818359375 42 497.043945312 42 525.952148438 c 0
 42 528.212890625 42.2021484375 530.557617188 42.63671875 533 c 0
 42.63671875 536 58.63671875 582 64.63671875 599 c 0
 79.63671875 640 246.63671875 672 285.63671875 672 c 0
 377.63671875 672 436.280273438 587.62109375 436.280273438 507.62109375 c 1
 379.63671875 357 l 1
 367.63671875 333 311.63671875 291 298.63671875 284 c 1
 270.63671875 277 195.63671875 256 195.63671875 221 c 0
159.63671875 507 m 0
 159.63671875 453 159.63671875 390 189.63671875 342 c 1
 194.205078125 341.571289062 198.659179688 341.362304688 203.000976562 341.362304688 c 0
 293.0234375 341.362304688 334.438476562 431.267578125 334.438476562 515.685546875 c 0
 334.438476562 534.043945312 332.479492188 552.142578125 328.63671875 569 c 1
 316.63671875 575 273.63671875 592 273.63671875 592 c 1
 218.63671875 592 159.63671875 567 159.63671875 507 c 0
EndSplineSet
Validated: 1
EndChar

StartChar: q
Encoding: 113 113 63
Width: 726
Flags: HMW
HStem: -72 21G<636 661.5> 111 73<307 385.5> 677 73<320.5 403>
VStem: 49 88<403 435.5 403 445.5> 542 79
LayerCount: 2
Fore
SplineSet
652 -72 m 1
 593.36328125 -55.1689453125 530.625 86.3193359375 468 126 c 1
 428.461995931 116.983143423 389.647637717 112.473492467 352.565732763 112.473492467 c 0
 182.580393588 112.473492467 49 207.237144325 49 397 c 0
 49 492.338870932 107.573034961 740.896319242 224.535539885 740.896319242 c 0
 235.50971767 740.896319242 246.997921583 738.708167461 259 734 c 1
 285 734 307 750 334 750 c 0
 477 750 493 655 577 588 c 1
 602 529 603 477 621 419 c 1
 619 320 616 248 555 170 c 1
 620.791992188 64.5322265625 691.7265625 -4.8671875 686 -33 c 1
 686 -46 671 -72 652 -72 c 1
362 184 m 0
 488 184 542 267 542 385 c 0
 542 490 469 677 337 677 c 0
 242 677 245 536 196 536 c 0
 181 536 172 561 167 573 c 1
 141.222519596 526.13575732 136.993772692 477.882406252 136.993772692 424.226701702 c 0
 136.993772692 397.342360207 138.055416168 369.101736707 138 339 c 1
 168 234 252 184 362 184 c 0
EndSplineSet
Validated: 33
EndChar

StartChar: r
Encoding: 114 114 64
Width: 646
Flags: HW
LayerCount: 2
Fore
SplineSet
414.438476562 398.939453125 m 1
 415.028320312 396.528320312 l 2
 429.037109375 357.829101562 511.5234375 230.649414062 577.5 215.8125 c 5
 575.490234375 183.068359375 603.333984375 170.872070312 603.833984375 149.788085938 c 5
 603.833984375 126.301757812 588.161132812 91.9912109375 565.547851562 91.0390625 c 5
 555.401367188 94.8369140625 538.892578125 98.30859375 521.3671875 104.142578125 c 4
 495.338224647 112.806356508 473.535169867 124.657351755 473.535169867 143.171252317 c 0
 473.535169867 145.799199985 473.974463508 148.56139361 474.903320312 151.467773438 c 4
 475.098632812 152.081054688 l 5
 475.098632812 152.725585938 l 4
 475.098632812 163.102539062 472.7890625 174.524414062 463.967773438 178.354492188 c 5
 420.873046875 221.4140625 370.340820312 271.987304688 338.536132812 320.221679688 c 0
 329.034179688 343.497070312 337.479492188 350 316.375 350 c 0
 285.4921875 350 200.399414062 336.53515625 173.310546875 313.044921875 c 0
 172.1640625 312.051757812 l 1
 171.962890625 310.532226562 l 0
 170.607469989 300.392449275 170.032084965 290.32744343 170.032084965 280.339940979 c 0
 170.032084965 224.179249278 188.225308348 170.469154149 188.225308348 119.6953909 c 0
 188.225308348 103.851121892 186.453668829 88.2927902074 181.8046875 73.03515625 c 1
 146.815429688 74.03125 116.202148438 88.27734375 93.8427734375 113.677734375 c 1
 76.8134765625 272.8671875 51 442.5390625 51 598 c 0
 51 665.6171875 264.228515625 733 327.108398438 733 c 0
 411.329101562 733 491.0234375 672.306640625 491.0234375 581 c 0
 491.0234375 508.82421875 470.943359375 449.399414062 416.262695312 400.568359375 c 0
 414.438476562 398.939453125 l 1
174.381835938 548.86328125 m 0
 171.927734375 547.834960938 l 1
 171.927734375 465.426757812 l 0
 171.927734375 451.815429688 203.501953125 444 209.034179688 444 c 0
 281.232421875 444 398.368164062 474.837890625 398.368164062 577 c 0
 398.368164062 609.171875 372.291015625 637 339.793945312 637 c 0
 262.537109375 637 230.6328125 572.4140625 174.381835938 548.86328125 c 0
EndSplineSet
Validated: 33
EndChar

StartChar: s
Encoding: 115 115 65
Width: 483
Flags: HMW
HStem: 220 87<229.235 242.235> 697 73<235.735 271.735>
VStem: 45.2354 102<630 653 566.5 687.5> 339.235 94<339.5 381>
LayerCount: 2
Fore
SplineSet
126.235351562 135.982421875 m 5
 115.15234375 141.752929688 109.7109375 158.98046875 109.7109375 177.796875 c 0
 109.7109375 206.979492188 122.80078125 239.982421875 148.235351562 239.982421875 c 4
 164.235351562 239.982421875 168.235351562 217.982421875 192.235351562 194.982421875 c 5
 208.001953125 194.865234375 225.124023438 194.047851562 241.92578125 194.047851562 c 0
 292.004882812 194.047851562 339.235351562 201.305664062 339.235351562 255.982421875 c 4
 339.235351562 279.982421875 329.235351562 297.982421875 309.235351562 311.982421875 c 5
 193.235351562 349.982421875 100.041015625 363.448242188 52.2353515625 480.982421875 c 4
 45.87890625 496.610351562 43 511.104492188 43 524.501953125 c 0
 43 616.934570312 180.036132812 657.157226562 257.633789062 657.157226562 c 0
 260.590820312 657.157226562 263.461914062 657.098632812 266.235351562 656.982421875 c 4
 287.235351562 656.982421875 389.235351562 640.982421875 389.235351562 601.982421875 c 4
 389.235351562 569.124023438 372.59765625 558.935546875 350.250976562 558.935546875 c 0
 320.001953125 558.935546875 279.293945312 577.604492188 255.235351562 583.982421875 c 5
 216.235351562 583.982421875 147.235351562 565.982421875 147.235351562 513.982421875 c 4
 147.235351562 392.982421875 433.235351562 429.982421875 433.235351562 264.982421875 c 4
 433.235351562 152.631835938 324.826171875 108.3046875 222.114257812 108.3046875 c 0
 188.157226562 108.3046875 154.823242188 113.149414062 126.235351562 121.982421875 c 5
 126.235351562 135.982421875 l 5
EndSplineSet
Validated: 1
EndChar

StartChar: t
Encoding: 116 116 66
Width: 742
Flags: HMW
HStem: 649 7<559.5 560>
VStem: 8.5 655<514 619.5>
LayerCount: 2
Fore
SplineSet
694.032428224 623.900736215 m 0
 694.032428224 514.645145284 503.677561147 616.089050683 503.677561147 506.458493137 c 0
 503.677561147 497.71843231 504.887405914 487.636838491 507.5 476 c 1
 507.5 449 557.5 128 585.5 114 c 1
 585.630455118 101.214577959 586.489226973 86.8061638415 586.489226973 72.6865784221 c 0
 586.489226973 36.3889031711 580.813891555 2 542.5 2 c 0
 523.5 2 493.5 31 482.5 45 c 1
 473.5 99 409.399414062 529.5390625 396.5 527 c 2
 106.495117188 469.9140625 l 1
 84.4951171875 469.9140625 42 509.400390625 42 533.400390625 c 0
 42 600.471679688 158.147460938 587.153320312 206.5 596 c 2
 559.5 656 l 1
 598.416294344 658.503124417 626.174524292 660.376545492 645.94035891 660.376545492 c 0
 687.301246128 660.376545492 694.032428224 652.104870254 694.032428224 623.900736215 c 0
EndSplineSet
Validated: 33
EndChar

StartChar: u
Encoding: 117 117 67
Width: 653
Flags: HMW
HStem: 77 128<276.663 327.163>
VStem: 49.1629 112<408.5 422 422 447 381.5 503.5> 480.163 113<283 464 283 464>
LayerCount: 2
Fore
SplineSet
290.162109375 77 m 1
 124.067382812 125.599609375 49 297.586914062 49 471.018554688 c 0
 49 475.678710938 49.0546875 480.33984375 49.162109375 485 c 0
 49.162109375 490.692382812 49.0673828125 496.408203125 49.0673828125 502.005859375 c 0
 49.0673828125 532.79296875 51.931640625 560 89.162109375 560 c 0
 151.162109375 560 170.162109375 509 170.162109375 455 c 0
 170.162109375 454 162.162109375 448 161.162109375 447 c 1
 161.162109375 422 l 2
 161.162109375 341 204.162109375 205 300.162109375 205 c 0
 432.162109375 205 480.162109375 292 480.162109375 412 c 2
 480.162109375 464 l 1
 461.53515625 497.903320312 453.450195312 538.793945312 453.450195312 580.553710938 c 0
 453.450195312 607.90234375 456.91796875 635.624023438 463.162109375 662 c 1
 468.162109375 671 479.162109375 676 488.162109375 679 c 1
 586.125 621.92578125 593.381835938 494.463867188 593.381835938 367.08203125 c 0
 593.381835938 344.928710938 593.162109375 322.77734375 593.162109375 301 c 0
 593.162109375 265 519.162109375 150 502.162109375 138 c 0
 448.162109375 98 364.162109375 77 290.162109375 77 c 1
EndSplineSet
Validated: 1
EndChar

StartChar: v
Encoding: 118 118 68
Width: 580
Flags: HMW
HStem: 132 160<295.914 298.914 298.914 320.414 295.914 364.914> 584 17
VStem: 41.914 486
LayerCount: 2
Fore
SplineSet
298.913085938 132 m 1
 259.350585938 177.643554688 100.686523438 495.005859375 42.9130859375 557 c 1
 42.3388671875 560.823242188 42 564.875 42 568.911132812 c 0
 42 585.079101562 47.4345703125 601 64.9130859375 601 c 2
 123.913085938 601 l 2
 145.913085938 601 284.913085938 292 306.913085938 292 c 0
 333.913085938 292 420.913085938 601 445.913085938 601 c 2
 527.913085938 601 l 1
 512.658203125 499.375976562 384.772460938 328.137695312 379.913085938 191 c 0
 379.913085938 186.8515625 380.264648438 179.982421875 380.264648438 172.368164062 c 0
 380.264648438 154.284179688 378.283203125 132 364.913085938 132 c 2
 298.913085938 132 l 1
EndSplineSet
Validated: 1
EndChar

StartChar: w
Encoding: 119 119 69
Width: 879
Flags: HMW
HStem: 130 190<284 291 291 291.5 284 314.5> 130 536<251 805.5> 576 38<42 66>
VStem: 42 785<572.5 646> 665 88
LayerCount: 2
Fore
SplineSet
661 276 m 1xb0
 699.46875 358.19140625 679.858398438 666 786 666 c 0
 818.824476825 666 829.329465536 652.016440301 829.329465536 634.507208188 c 0
 829.329465536 617.862975212 819.836782885 598.032818836 811 584 c 1
 785 476 765 365 753 255 c 1
 762.805661111 240.46909211 767.427398189 223.718512138 767.427398189 207.486455568 c 0
 767.427398189 170.919897864 743.97289177 136.98475564 703.490938968 136.98475564 c 0
 702.996495561 136.98475564 702.499512001 136.989818081 702 137 c 1
 641 198 l 1
 588 198 488 391 430 423 c 1
 407 381 384 335 364 291 c 0
 346 250 353 130 276 130 c 0x48
 235.677419355 130 231.775234131 171.623309053 231.775234131 211.861971736 c 0
 231.775234131 221.51925078 232 231.096774194 232 240 c 0
 232 292.153320312 157 349 130 401 c 0
 119 423 67 525 57 548 c 1
 48 552 42 569 42 576 c 1
 42 576 52 606 64 614 c 1
 71.288399946 615.461982296 78.0582225003 616.150642367 84.3586783108 616.150642367 c 0
 162.434937947 616.150642367 168.432592276 510.396116588 196 460 c 0
 218 419 279 320 284 320 c 1
 350.261252353 377.891457786 323.610241336 542.857612489 444.447087621 542.857612489 c 0
 453.446831077 542.857612489 463.264695949 541.942538213 474 540 c 1
 497 526 501 494 511 474 c 1
 556.697265625 419.233398438 610.090820312 350.649414062 650 284 c 0
 654 278 655 276 661 276 c 1xb0
EndSplineSet
Validated: 1
EndChar

StartChar: x
Encoding: 120 120 70
Width: 562
Flags: HMW
HStem: 21 728<84.9058 448.406>
VStem: 207.906 106<403.5 404 404 404>
LayerCount: 2
Fore
SplineSet
51.90625 85 m 0
 51.90625 191.715820312 197.022460938 279.1796875 211.9140625 397.454101562 c 1
 47 666.8125 l 1
 47 691.97527645 77.9458526103 735.001053062 103.131890546 735.001053062 c 0
 165.494147001 735.001053062 219.199263623 493.799073861 262.749451052 493.799073861 c 0
 263.471175248 493.799073861 264.190110503 493.865317372 264.90625 494 c 1
 305.90625 569 354.90625 639 395.90625 715 c 0
 410.90625 742 398.90625 749 432.90625 749 c 0
 463.90625 749 486.90625 734 486.90625 700 c 0
 486.90625 633 313.90625 493 313.90625 404 c 1
 372.6953125 293.624023438 456.250976562 218.290039062 518.90625 111 c 1
 518.90625 85 502.90625 42 474.90625 42 c 0
 392.90625 42 326.90625 253 264.90625 297 c 1
 264.90625 289 l 1
 261.90625 287 192.90625 160 166.90625 109 c 0
 152.90625 81 138.90625 21 101.90625 21 c 0
 67.90625 21 51.90625 52 51.90625 85 c 0
EndSplineSet
Validated: 1
EndChar

StartChar: y
Encoding: 121 121 71
Width: 796
Flags: HMW
HStem: 190 8<395 397> 843 15 868 20G<721.5 728.5>
VStem: 325 98 344 91
LayerCount: 2
Fore
SplineSet
407 198 m 1xf0
 408.434570312 196.418945312 392.637695312 191.90234375 397 190 c 1
 385.322282565 187.575619248 371.79133878 178.667356471 359.920407936 178.667356471 c 0
 354.070290619 178.667356471 348.623327397 180.830835154 344 187 c 1xe8
 343.281582149 186.842099053 340.944599689 186.110770736 339.140150435 186.110770736 c 0
 338.14346685 186.110770736 337.309252807 186.333890302 337 187 c 0
 327.331923775 198.043409939 311.399982505 211.9732097 311.399982505 229.236745914 c 0
 311.399982505 235.9744896 313.826805761 243.220042663 320 251 c 1
 316.831737684 253.904745278 314.697074421 261.035148717 314.697074421 268.62995595 c 0
 314.697074421 278.175723901 318.069307709 288.455133527 327 292 c 1
 327.18359375 301.017578125 326.727539062 310.81640625 323 316 c 1
 323.451171875 348.279296875 335.142578125 408.61328125 339 431 c 1
 337.48240468 434.290616894 336.864357295 438.671035719 336.864357295 443.236880264 c 0
 336.864357295 451.18730173 338.738315222 459.699945453 341 464 c 1
 339.331054688 469 339.13671875 470.205078125 343 475 c 1
 343 498 l 1
 344.350585938 501.4140625 343.348632812 508.0546875 346 514 c 1
 339.086914062 526.181640625 341.486328125 529.96875 341 543 c 0
 341.001742227 543.213422775 332.820364292 568.186009702 320.605723946 568.186009702 c 0
 319.127129724 568.186009702 317.589434734 567.820077883 316 567 c 1
 317.956154789 569.06544217 318.815367264 571.076265371 318.815367264 573.044549055 c 0
 318.815367264 583.985894801 292.265235951 593.612746395 280 604 c 1
 274.944335938 604.64453125 274.502929688 624.506835938 267 618 c 1
 260 618 243 637 231 645 c 1
 203 645 159.596679688 699.250976562 124 718 c 0
 113.314453125 723.627929688 95.2265625 723.533203125 96 733 c 1
 84.9087857554 747.27465449 52.5409151629 747.938274425 52.5409151629 763.643768254 c 0
 52.5409151629 766.043824057 53.2967964868 768.795150158 55 772 c 1
 54.2284898163 778.513051336 42.1929102951 789.089428879 42.1929102951 797.378260142 c 0
 42.1929102951 799.843565376 43.2575969363 802.106510603 46 804 c 1
 46 808 45 818 39 821 c 1
 43.00390625 832.71875 50.9775390625 845.276367188 64 847 c 1
 64 845 l 1
 64 845 76 858 100 858 c 0
 122.142578125 858 169.912109375 815.51171875 214 775 c 0
 215 775 217 775 219 776 c 1
 229 757 241 759 257 741 c 1
 261 741 319 713 345 683 c 1
 360 677 356 662 379 662 c 0
 393 662 404 681 412 690 c 1
 463.176757812 726.146484375 495.264648438 749.577148438 547 782 c 1
 548 792 568 793 577 800 c 0
 612.141601562 824.984375 637.43359375 849.170898438 670 875 c 1
 684.07132436 881.43245104 702.373688893 887.040882052 718.659370717 887.040882052 c 0
 734.750569403 887.040882052 748.872964113 881.565602657 755 866 c 1
 752 865 752 864 751 862 c 1
 754.099752237 853.988691147 755.661423511 846.014565942 755.661423511 838.339701191 c 0
 755.661423511 827.357815119 752.463986278 816.988648594 746 808 c 1
 746 804 l 1
 734 783 687 776 663 750 c 1
 662 744 641 735 613 716 c 1
 611 693 555 699 458 608 c 1
 466.4140625 599.178710938 457.209960938 590.630859375 455 583 c 1
 457.045527957 576.52605112 457.899625129 570.840529407 457.899625129 565.653193306 c 0
 457.899625129 539.502849367 436.193949008 526.01319074 436 488 c 2
 436 458 l 1
 435.13921103 435.820800328 426.974028963 428.16205182 426.974028963 414.533664625 c 0
 426.974028963 410.907169236 427.552193174 406.857972748 429 402 c 1
 426.921875 397.53125 420.23046875 389.430664062 427 384 c 1
 427 359 l 1
 425.884765625 356.2734375 428.068359375 345.494140625 422 346 c 1
 421.823653376 337.571420145 420.221652517 329.869969456 420.221652517 321.796165628 c 0
 420.221652517 315.875532692 421.083127425 309.7546671 424 303 c 1
 423.626560909 286.276394625 416.908092831 268.982654919 416.908092831 254.821349881 c 0
 416.908092831 248.022235199 418.456796887 241.945192009 423 237 c 1
 424.900276968 231.851231496 406.967923377 207.211485428 406.967923377 204.181505937 c 0
 406.967923377 202.18580983 407 200.049101432 407 198 c 1xf0
671 871 m 2
 671.208007812 871.186523438 674.866210938 872.015625 674 874 c 0
 673 874 671 871 671 871 c 2
61 843 m 2
 61 842 61 841 61 840 c 2
 61 843 l 2
EndSplineSet
Validated: 41
EndChar

StartChar: z
Encoding: 122 122 72
Width: 776
Flags: HMW
HStem: 45 116<72.5 159.5> 112 110<516 661> 636 90<256 308.5>
VStem: 45 686<158.5 680>
LayerCount: 2
Fore
SplineSet
562 112 m 0x70
 422.219726562 108.45703125 275.279296875 45 135 45 c 0
 111 45 63 50 53 78 c 1xb0
 53.8839150029 79.6720957836 61.283988631 160.644762791 82.6439621467 160.644762791 c 0
 83.7264643941 160.644762791 84.8448207144 160.436795691 86 160 c 1
 141 210 438 610 438 627 c 1
 379.916737135 631.258488729 321.362355188 633.786039084 261.888538876 633.786039084 c 0
 208.120914396 633.786039084 153.601821355 631.720231342 98 627 c 1
 92 635 45 659 45 672 c 0
 45 688 55 722 70 726 c 1
 528 726 l 2
 580 726 620 715 620 662 c 0
 620 653 390 402 348 332 c 0
 318 282 244 219 244 161 c 1
 380.033203125 165.075195312 528.12109375 222 656 222 c 0
 685 222 705 198 730 189 c 1
 732.118307997 180.001818865 733.110847623 172.005800982 733.110847623 164.903940481 c 0
 733.110847623 117.958609572 689.740950801 110.084276335 641.483255124 110.084276335 c 0
 617.121857269 110.084276335 591.51484228 112.090988291 569.612898794 112.090988291 c 0
 567.020626725 112.090988291 564.480257655 112.062876994 562 112 c 0x70
EndSplineSet
Validated: 1
EndChar

StartChar: braceleft
Encoding: 123 123 73
Width: 631
Flags: HMW
HStem: -62 103<384 431> 312 130<103.5 181.5> 828 102<412 444>
VStem: 230 103<549 613 665 668 668 711 711 732> 245 104<183.5 209.5> 258 106<303 308 308 309>
LayerCount: 2
Fore
SplineSet
402 -62 m 0xb0
 270 -62 283 10 256 115 c 1
 256 123 l 1
 248.380240122 147.720325226 245.542372386 171.707682356 245.542372386 195.725419102 c 0
 245.542372386 233.424740296 252.534269851 271.198910351 259 312 c 1
 247.777638637 330.758692733 237.107465976 340.210752777 221.75720158 340.210752777 c 0
 212.560022428 340.210752777 201.682755632 336.817595082 188 330 c 1
 188 322 l 1xe4
 171.557423023 315.491112695 153.332391783 312.22690743 135.638419474 312.22690743 c 0
 90.5987160714 312.22690743 49 333.377270078 49 376 c 0
 49 427 106 434 149 440 c 1
 149 442 l 1
 184 442 230 511 230 549 c 2
 230 711 l 2
 230 830 313 930 432 930 c 0
 462 930 559 927 559 862 c 0
 559 825.253401614 532.612358406 815.00047388 503.685367814 815.00047388 c 0
 477.788053879 815.00047388 449.855454499 823.218184249 437 828 c 1
 387 828 333 782 333 732 c 2
 333 407 l 1xa4
 355.412423015 395.230191281 361.96250169 368.320954348 361.96250169 336.247565207 c 0
 361.96250169 291.127885473 349 235.788430518 349 198 c 0
 349 137 349 41 419 41 c 0xa8
 455 41 473 56 495 70 c 1
 495 84 l 1
 507.001839566 92.6188292125 523.60477474 97.282857001 539.221473361 97.282857001 c 0
 562.718520054 97.282857001 583.982872795 86.7241866562 583.982872795 63.191067955 c 0
 583.982872795 60.3217220705 583.666747677 57.2594923931 583 54 c 1
 583 -29 460 -62 402 -62 c 0xb0
EndSplineSet
Validated: 1
EndChar

StartChar: braceright
Encoding: 125 125 74
Width: 610
Flags: HMW
HStem: -54 99<256 257 194 260> 338 91 762 110<154 154>
VStem: 229 110<470 516> 252 102<625 692> 307 101
LayerCount: 2
Fore
SplineSet
162 872 m 0xe4
 266.712158937 872 354.906292962 793.24192463 354.906292962 673.304204183 c 0
 354.906292962 666.339220605 354.608874233 659.235366138 354 652 c 1
 354 629 l 1xe8
 353 629 349 555 339 539 c 1
 339 521 l 2xf0
 339.000940241 380.544881993 557.001068685 473.392556579 557.001068685 377.930356238 c 0
 557.001068685 374.242678517 556.675756906 370.273994446 556 366 c 1
 556 346 l 1
 546.785047308 335.68590228 520.875215398 329.410870902 497.192412657 329.410870902 c 0
 481.779978331 329.410870902 467.310740522 332.068486625 459 338 c 1
 417 338 408 306 408 264 c 2
 408 20 l 1
 376 -48 327 -54 257 -54 c 2
 194 -54 l 1
 170.609142065 -44.0641217488 158.770308606 -19.8548332714 158.770308606 3.36738697112 c 0
 158.770308606 30.5511922855 174.992963681 56.3824262031 207.898331515 56.3824262031 c 0
 210.184943156 56.3824262031 212.552114524 56.2576888649 215 56 c 1
 215 56 241 45 256 45 c 0
 311.074501635 45.210420866 317.645398901 62.0900990751 317.645398901 93.8321588687 c 0
 317.645398901 103.780184089 317 115.188004578 317 128 c 0
 317 163.338582677 307.252588505 228.206088412 307.252588505 284.687389028 c 0
 307.252588505 333.693223386 314.590551181 376.385826772 342 388 c 1
 341.875978993 387.91832653 341.678124988 387.877860685 341.410408959 387.877860685 c 0
 331.502756725 387.877860685 225.91229359 443.299755366 225.91229359 516.545534068 c 0
 225.91229359 527.034953711 228.077814664 537.889917698 233 549 c 1
 233 562 l 1
 245.38747927 596.520205349 252.025755579 627.779751046 252.025755579 654.860157216 c 0
 252.025755579 712.284474125 222.176283603 750.916998954 154 762 c 1
 154 761 l 1
 149.120030984 759.780007746 139.9535244 758.857691712 128.882827446 758.857691712 c 0
 94.5815274987 758.857691712 42 767.711925639 42 804 c 0
 42 868 130 872 162 872 c 0xe4
EndSplineSet
Validated: 5
EndChar

StartChar: asciitilde
Encoding: 126 126 75
Width: 816
Flags: HMW
HStem: 331 93<530.889 535.389 535.389 550.889 528.889 557.389> 488 95<191.889 207.889>
VStem: 704.389 108
LayerCount: 2
Fore
SplineSet
603.509765625 338.196289062 m 0
 462.362304688 338.196289062 390.72265625 437.991210938 265.298828125 471.5 c 1
 186.279296875 470.16015625 163.997070312 401.49609375 132.208984375 345 c 1
 123.123046875 335.615234375 113.052734375 331.638671875 103.224609375 331.638671875 c 0
 77.26953125 331.638671875 53 359.369140625 53 388.451171875 c 0
 53 402.07421875 58.326171875 415.995117188 71.298828125 427.5 c 0
 78.1875 433.609375 86.298828125 445.5 86.298828125 445.5 c 1
 86.298828125 444.5 l 1
 133.078125 520.91796875 192.739257812 566.5 286.298828125 566.5 c 0
 371.470703125 566.5 472.887695312 443.5 555.298828125 443.5 c 0
 583.129882812 443.5 647.810546875 446.231445312 650.298828125 497.5 c 0
 651.810546875 528.66015625 661.298828125 550.5 709.298828125 550.5 c 0
 745.298828125 550.5 759.298828125 521.5 759.298828125 492.5 c 0
 759.298828125 380.16796875 687.90234375 338.196289062 603.509765625 338.196289062 c 0
EndSplineSet
Validated: 1
EndChar

StartChar: cent
Encoding: 162 162 76
Width: 502
Flags: HMW
HStem: 172 79<300 376>
VStem: 54 88<16.5 62.5 16.5 68> 212 88<251 275 251 302 251 311> 228 74 241 83<-180 -134 -180 -134 -168 -134>
LayerCount: 2
Fore
SplineSet
257 337 m 0xe0
 279.916235877 337 303.620253697 314.661507704 303.620253697 290.678268183 c 0
 303.620253697 285.458979938 302.497643869 280.161797329 300 275 c 1
 300 251 l 1xe0
 302.367346939 251 305.0545606 251.01332778 307.993642105 251.01332778 c 0
 341.058309038 251.01332778 406 249.326530612 406 208 c 0
 406 179.024298811 382.905070543 171.492732317 356.74094791 171.492732317 c 0
 337.933927582 171.492732317 317.54109467 175.384195721 303 178 c 1
 303 147 l 2
 303 140 302 131 302 123 c 2
 302 100 l 2xd0
 302 60 304 20 312 -22 c 1
 355 -22 391 17 417 17 c 0
 436 17 453 13 453 -16 c 0
 453 -77 366 -96 326 -104 c 1
 326 -109 324 -114 324 -120 c 2
 324 -134 l 2
 324 -154 327 -172.900390625 327 -193 c 2
 327 -214 l 1
 328.495446756 -222.649225839 329.333842933 -231.377222402 329.333842933 -239.783100137 c 0
 329.333842933 -266.146063577 321.087306038 -289.340638518 299 -297 c 1
 298.365020859 -297.015339552 297.7352658 -297.022958394 297.110713395 -297.022958394 c 0
 253.292550281 -297.022958394 235.083558003 -259.520514704 235.083558003 -219.694882877 c 0
 235.083558003 -206.278597024 237.150009273 -192.598663684 241 -180 c 1
 241 -163 l 2xc8
 241 -145 240 -118 236 -116 c 1
 191.874023438 -108.791015625 54 -84.046875 54 40 c 0
 54 96 96.2451171875 156.07421875 138 190 c 0
 144.245117188 195.07421875 164 206 179 217 c 1
 179 216 l 1
 188 223 197 230 212 236 c 1
 212 302 l 2
 212 320 244 337 257 337 c 0xe0
142 40 m 0
 142 -7 187 -25 228 -29 c 1xd0
 227 18 223 109 216 154 c 1
 176 132 142 85 142 40 c 0
EndSplineSet
Validated: 1
EndChar

StartChar: sterling
Encoding: 163 163 77
Width: 600
Flags: HMW
HStem: 0 21G<122 169.5> 0 93<134.5 145 134.5 169.5> 136 82<176 177 176 176> 396 94<147 179 147 179> 721 98<385.5 408>
VStem: 48 82<99 108 108 110.5 99 152.5> 184 93<229 229.5> 204 93
LayerCount: 2
Fore
SplineSet
48 108 m 2xbe
 48 197 112 219 156 228 c 1
 150.581813838 226.195687382 148.189461218 224.655618548 148.189461218 223.362334318 c 0
 148.189461218 220.083384906 163.567702204 218.390787392 184 218 c 1xbe
 184 241 188 266 188 282 c 2
 188 301 l 1
 190.662562681 329.410101707 196.895286021 354.98576497 196.895286021 380.828150929 c 0
 196.895286021 386.19797653 196.626174064 391.579318487 196 397 c 1
 189 396 183 396 175 396 c 1
 152 412 120 425 120 445 c 0
 120 487 149 489 179 490 c 1
 179 499 178.026367188 508.057617188 179 517 c 0
 189.026367188 609.057617188 238 741 326 793 c 1
 326 797 l 1
 344.300478494 811.629789175 366.156417207 817.997964041 388.399134111 817.997964041 c 0
 444.072495482 817.997964041 502.169011852 778.101519134 513 728 c 1
 512.057904411 702.600452056 492.789578717 691.814754025 472.352797433 691.814754025 c 0
 457.22085627 691.814754025 441.448330492 697.727817633 432 708 c 1
 419.501974857 715.639141117 407.933670893 719.053190285 397.269749996 719.053190285 c 0
 328.629891218 719.053190285 297.458967959 577.607830642 297 511 c 1xbd
 320 512 343 514 369 517 c 1
 369 519 l 1
 392 521 435 523 459 524 c 0
 461.393738692 524.18089929 463.740200008 524.270135343 466.036118927 524.270135343 c 0
 500.992276202 524.270135343 524.232143631 503.584225554 524.232143631 470.778922439 c 0
 524.232143631 462.853104116 522.875600012 454.219859827 520 445 c 1
 465 410 287.931640625 429.46484375 285 413 c 0
 277.863688632 372.928677235 276.824591459 345.452114915 276.824591459 313.619048873 c 0
 276.824591459 300.540012233 277 286.725560291 277 271 c 0
 277 254.666992188 277 238.333007812 277 222 c 1
 361 208 553 165 553 97 c 0
 553 83 533.356445312 51.6044921875 514.356445312 51.6044921875 c 1
 279.975585938 159.780273438 l 1
 279.975585938 155.780273438 268 129 268 124 c 0
 268 71 198 0 141 0 c 0
 103 0 60 42 48 77 c 1
 48 108 l 2xbe
172 231 m 1
 172 228 l 1
 172 231 l 1
266 141 m 2
 266 139 l 2
 266 139.666992188 266 140.333007812 266 141 c 2
177 136 m 1
 160.502276213 135.113653813 130.582786959 119.235837035 130.582786959 104.442736437 c 0
 130.582786959 100.443310144 132.76969816 96.5231692278 138 93 c 1x7c
 152 93 171 117 177 136 c 1
EndSplineSet
Validated: 9
EndChar

StartChar: yen
Encoding: 165 165 78
Width: 735
Flags: HMW
HStem: -137 104<146.749 345.749 161.749 345.749> -123 86 -5 86 3 77<243.749 335.249>
VStem: 311.749 124<84 115> 347.749 94<-32 -5 -39 3 -39 3> 351.749 98<-294.5 -120>
LayerCount: 2
Fore
SplineSet
351.75 -267 m 2x62
 351.75 -121 l 1
 295.75 -121 227.75 -137 165.75 -137 c 0
 135.75 -137 112.75 -137 112.75 -98 c 0
 112.75 -40 168.737304688 -33 209.75 -33 c 2
 347.75 -33 l 1
 347.75 3 l 1
 344.786132812 3.13671875 341.791992188 3.201171875 338.76953125 3.201171875 c 0
 291.354492188 3.201171875 236.985351562 -12.669921875 184.75 -13 c 1
 184.75 -13 117.75 -9 117.75 35 c 0x92
 117.75 70.8466796875 142.530273438 90.9189453125 168.868164062 90.9189453125 c 0
 179.409179688 90.9189453125 190.198242188 87.7041015625 199.75 81 c 1
 215.225585938 80.478515625 231.294921875 80.091796875 247.390625 80.091796875 c 0
 272.860351562 80.091796875 298.395507812 81.060546875 321.75 84 c 1
 317.31640625 91.8359375 311.909179688 102.26171875 311.909179688 112.415039062 c 0
 311.909179688 114.6328125 312.166992188 116.837890625 312.75 119 c 1
 236.75 203 150.224609375 271.990234375 61.75 342 c 0
 54.1533203125 348.010742188 51 355.297851562 51 362.990234375 c 0
 51 389.178710938 87.5556640625 420.053710938 109.740234375 421.190429688 c 1
 362.790039062 191.14453125 l 1
 416.790039062 243.14453125 478.077148438 312.129882812 526.75 383 c 0
 537.788085938 399.07421875 545.491210938 402.796875 561.91015625 402.796875 c 0
 566.927734375 402.796875 572.759765625 402.44921875 579.75 402 c 1
 590.75 395 623.75 363 623.75 355 c 0
 623.682617188 280.7734375 430.870117188 193.154296875 435.75 84 c 1
 453.75 84 488.75 81 497.75 81 c 2x68
 544.75 81 l 1
 553.125976562 81.4482421875 561.650390625 81.7548828125 570.086914062 81.7548828125 c 0
 617.30859375 81.7548828125 661.75 72.1513671875 661.75 24.0859375 c 0
 661.729492188 -12.9873046875 623.833984375 -16 600.75 -16 c 0
 540.75 -16 486.75 -5 441.75 -5 c 1
 441.75 -39 l 1
 442.724609375 -39.017578125 443.780273438 -39.025390625 444.912109375 -39.025390625 c 0
 465.42578125 -39.025390625 510.936523438 -36.2939453125 557.268554688 -36.2939453125 c 0
 622.998046875 -36.2939453125 690.379882812 -41.7919921875 690.379882812 -68.388671875 c 0
 690.379882812 -69.8603515625 690.173828125 -71.396484375 689.75 -73 c 1
 689.75 -107 l 2
 689.75 -132 634.75 -141 629.75 -141 c 0
 562.75 -136 503.75 -125 445.75 -123 c 1
 444.932617188 -129.8203125 444.600585938 -137.153320312 444.600585938 -144.841796875 c 0
 444.600585938 -178.348632812 450.91015625 -218.62890625 450.91015625 -252.873046875 c 0
 450.91015625 -295.004882812 441.358398438 -328 398.75 -328 c 0
 367.75 -328 351.75 -292 351.75 -267 c 2x62
EndSplineSet
Validated: 33
EndChar

StartChar: florin
Encoding: 257 402 79
Width: 574
Flags: HMW
HStem: 79 84<141.561 189.561 141.561 193.561> 442 74 828 78<344.061 367.561 321.061 376.561>
VStem: 50.5603 82 182.561 84<630 708 630 712> 220.561 70 222.561 84<231 232 190 248.5>
LayerCount: 2
Fore
SplineSet
135.559570312 467 m 0xf0
 135.559570312 512.606445312 161.055664062 509.2734375 188.559570312 515 c 1
 188.559570312 526 l 2
 188.559570312 564 182.559570312 615 182.559570312 674 c 2
 182.559570312 708 l 2
 182.559570312 716 183.559570312 726 183.559570312 734 c 2
 183.559570312 747 l 1
 190.559570312 753 190.559570312 758 190.559570312 763 c 0
 195.116210938 844.381835938 275.47265625 905.569335938 357.58984375 905.569335938 c 0
 376.799804688 905.569335938 396.10546875 902.221679688 414.559570312 895 c 1
 414.559570312 891 l 1
 422.559570312 885 493.559570312 775 493.559570312 756 c 0
 493.559570312 735 483.559570312 711 455.559570312 711 c 0
 368.559570312 711 404.559570312 828 348.559570312 828 c 0
 339.559570312 828 305.559570312 802 299.559570312 802 c 1
 334.559570312 826 346.559570312 836 346.559570312 839 c 1
 346.021484375 839.239257812 345.330078125 839.352539062 344.504882812 839.352539062 c 0
 334.537109375 839.352539062 305.033203125 822.9453125 289.559570312 816 c 1
 289.559570312 805 l 1
 269.416015625 768.727539062 263.526367188 728.252929688 263.526367188 684.733398438 c 0
 263.526367188 632.241210938 272.095703125 575.319335938 274.559570312 516 c 1
 324.2265625 516 385.787109375 518.15234375 435.559570312 527 c 1
 435.559570312 531 l 1
 435.559570312 530 l 1
 446.287109375 534.66015625 457.158203125 536.887695312 467.412109375 536.887695312 c 0
 497.669921875 536.887695312 522.559570312 517.49609375 522.559570312 484 c 0
 522.559570312 458.095703125 505.895507812 439.368164062 482.787109375 439.368164062 c 0
 477.055664062 439.368164062 470.927734375 440.520507812 464.559570312 443 c 1
 456.559570312 442 443.559570312 442 427.559570312 442 c 2
 397.559570312 442 l 2
 348.559570312 442 290.559570312 442 290.559570312 438 c 0
 290.559570312 355 306.559570312 274 306.559570312 190 c 1
 308.907226562 183.607421875 309.989257812 177.424804688 309.989257812 171.470703125 c 0
 309.989257812 114.971679688 212.538085938 79 173.559570312 79 c 0
 82.5595703125 79 74.5595703125 115 58.5595703125 178 c 1
 58.5595703125 198 l 1
 53.3232421875 204.32421875 51 211.635742188 51 219.055664062 c 0
 51 241.532226562 72.318359375 265 98.5595703125 265 c 0
 151.559570312 265 111.559570312 163 171.559570312 163 c 0
 205.880859375 163 222.177734375 208.612304688 222.177734375 245.09375 c 0
 222.177734375 249.204101562 221.971679688 253.19921875 221.559570312 257 c 1
 221.559570312 284 l 1
 212.559570312 403 220.755859375 425.807617188 192.559570312 429 c 0
 167.755859375 431.807617188 135.559570312 432 135.559570312 467 c 0xf0
EndSplineSet
Validated: 5
EndChar

StartChar: currency
Encoding: 164 164 80
Width: 659
Flags: HMW
HStem: -143 78<293 302 302 316> 207 84<316 354> 211 59
VStem: 96 82<24 56 56 61.5> 440 84<106.5 132 106.5 145>
LayerCount: 2
Fore
SplineSet
513 176 m 1xb8
 520.110921962 156.468105767 523.091684574 133.206208036 523.091684574 109.100060752 c 0
 523.091684574 70.6431770002 515.505560218 30.0376544814 505 -1 c 1
 505 -2 l 1
 520 -16 525 -24 534 -35 c 1
 534 -41 l 1
 547 -55 559 -69 569 -79 c 1
 595.222837149 -79.8438454509 608.492335788 -101.408812171 608.492335788 -125.633974695 c 0
 608.492335788 -139.704910413 604.015542172 -154.673328991 595 -167 c 1
 576 -167 601 -172 546 -172 c 0
 519 -172 503 -149 493 -131 c 1
 493 -115 l 1
 487 -111 471 -105 467 -100 c 1
 467 -101 l 1
 467 -97 l 1
 459.51953125 -92.13671875 452.610351562 -90.6103515625 448 -86 c 1
 412.622221697 -127.943805713 361.414204611 -142.79138285 307.725206866 -142.79138285 c 0
 287.264175111 -142.79138285 266.442807198 -140.63492956 246 -137 c 1
 246 -134 l 1
 227.13601003 -131.357967572 212.552858037 -124.834964321 201.185999495 -124.834964321 c 0
 190.637935613 -124.834964321 182.859492188 -130.452064726 177 -150 c 1
 177 -149 l 1
 174.233495871 -178.49337488 140.205550851 -203.739787109 112.181696371 -203.739787109 c 0
 92.8907549955 -203.739787109 76.4449188679 -191.776493174 75 -161 c 0xd8
 75 -141 96 -117 114 -95 c 1
 114 -97 l 1
 124 -89 127 -79 129 -75 c 1
 128 -60 121 -45 114 -29 c 1
 114 -26 l 1
 101.276328393 -2.32519109647 95.9778945098 22.7485330838 95.9778945098 48.0168555745 c 0
 95.9778945098 94.137290079 113.629388843 140.906020108 136 181 c 1
 107 218 52 273 52 303 c 0
 52 326 68 347 103 347 c 0
 126 347 142 317 156 296 c 1
 156 288 l 1
 167 267 184 246 194 246 c 1
 194 246 203.705078125 251.555664062 214 258 c 1
 214 263 l 2
 214 262 229 260 246 260 c 1
 246 274 l 1
 248.909090909 276.909090909 254.727272727 277.041322314 262.540946657 277.041322314 c 0
 263.32231405 277.041322314 264.123636364 277.04 264.944 277.04 c 0
 278.48 277.04 297.2 277.4 317 290 c 1
 322.504951988 290.77150059 328.281235643 291.115175735 334.195092942 291.115175735 c 0
 365.05118062 291.115175735 399.652470592 281.759219897 419 275 c 1
 419 276 l 1
 419 273 l 1
 425.164985294 270.771518378 430.797686168 269.770509528 436.012482461 269.770509528 c 0
 482.020930019 269.770509528 495.499862156 347.688614132 555 348 c 0
 570 348 596 344 596 316 c 0
 596 287 581 274 566 263 c 0
 542 245 525 198 513 176 c 1xb8
178 56 m 1
 177.879821486 50.3595754175 177.820338134 45.1716983231 177.820338134 40.3988417531 c 0
 177.820338134 -55.4725494607 201.820641175 16.1082628565 240 -49 c 1
 239.735500025 -63.3022011859 252.995429672 -66.0437477506 267.889220765 -66.0437477506 c 0
 276.475940567 -66.0437477506 285.60573472 -65.1324932344 293 -65 c 0
 385 -65 440 43 440 126 c 0
 440 164 404 209 364 211 c 1
 365.404296875 208.720703125 364.754882812 208.221679688 364 206 c 1
 349.370921616 206.072893735 333.53486956 206.892488368 318.244368062 206.892488368 c 0
 281.913192415 206.892488368 248.662014863 202.265328022 242 172 c 1
 209 149 188 123 178 93 c 1
 178 56 l 1
225 264 m 1
 225 263 l 1
 225 264 l 1
EndSplineSet
Validated: 37
EndChar

StartChar: paragraph
Encoding: 182 182 81
Width: 797
Flags: HMW
HStem: 443 83<287 313.5> 501 92<525 578.5> 855 98<684 698> 875 88<371.5 483.5 427 483.5>
VStem: 44 92<612.5 698> 437 82<595 689 602 689> 447 81<308 451> 610 106
LayerCount: 2
Fore
SplineSet
672 16 m 1x6b
 610.115234375 30.4091796875 615.329101562 66.181640625 611 153 c 1
 611 181 l 1
 601 311 585 501 572 501 c 0
 564 501 546 490 533 484 c 1
 533 -32 l 1
 463 -32 447 31 447 164 c 2
 447 308 l 2
 447 393 446 463 441 463 c 0
 423 463 398 458 376 453 c 1
 376 452 l 1
 354.689537764 445.654723009 332.592518013 442.700518804 310.38311243 442.700518804 c 0
 179.153433462 442.700518804 44 545.841385023 44 662 c 0
 44 734 138 830 180 872 c 1
 200 879 207 885 217 892 c 0
 271.609115927 931.51919168 382.759327991 961.838981437 467.60322791 961.838981437 c 0
 475.663232254 961.838981437 483.485831919 961.565356616 491 961 c 1
 496.603279791 958.445464804 502.202738161 957.434529039 507.858642076 957.434529039 c 0
 529.327181947 957.434529039 551.608984135 972 578 972 c 0
 616 972 608 948 655 948 c 0
 669.250976562 948 669.5234375 953 692 953 c 0
 718 953 755 932 755 899 c 0
 755 863.630208521 724.462022048 855.008511728 691.74221038 855.008511728 c 0
 675.938796447 855.008511728 659.62640114 857.019793817 646 859 c 1
 646 862 l 1
 647 728 666 593.301757812 666 454 c 2
 666 283 l 1
 673 227 715 141 716 63 c 0
 716 41 695 16 672 16 c 1x6b
136 646 m 0
 136 579 259 526 315 526 c 0
 334 526 421 531 436 545 c 1
 436 571 l 1
 436.563068675 586.515900626 436.797515318 602.0358419 436.797515318 617.558290508 c 0
 436.797515318 694.843576866 430.985627835 772.19101953 430.985627835 849.411366136 c 0
 430.985627835 851.607681691 430.990329408 853.80389443 431 856 c 2
 431 875 l 1x99
 320 875 136 773 136 646 c 0
519 593 m 1x6d
 524 593 552 593 558 595 c 1
 558 855 l 1
 555 856 523 856 519 856 c 1
 519 593 l 1x6d
EndSplineSet
Validated: 5
EndChar

StartChar: bullet
Encoding: 258 8226 82
Width: 411
Flags: HMW
HStem: 272 327<179.5 235 171.5 249>
VStem: 54 296<415 451 399 454.5>
LayerCount: 2
Fore
SplineSet
215 599 m 0
 255 599 280 555 314 542 c 1
 339.641283763 513.695749402 350.712526836 477.810770921 350.712526836 441.520849686 c 0
 350.712526836 357.837073792 291.840787057 272 217 272 c 0
 142 272 54 337.896484375 54 415 c 0
 54 494 128 599 215 599 c 0
EndSplineSet
Validated: 1
EndChar

StartChar: guillemotright
Encoding: 187 187 83
Width: 628
Flags: HMW
HStem: 1 21G<380.501 408.501>
VStem: 48.0008 537<299 445>
LayerCount: 2
Fore
SplineSet
477 71 m 1
 474.713867188 63.6572265625 446.283203125 63.859375 446.283203125 59.2021484375 c 0
 446.283203125 58.568359375 446.809570312 57.8447265625 448 57 c 1
 446.057617188 23.3466796875 417.157226562 4.3056640625 390.46484375 4.3056640625 c 0
 366.870117188 4.3056640625 345 19.18359375 345 52 c 0
 345 66 351 70 355 88 c 1
 355 122 l 1
 385 166 445 224 461 274 c 1
 461 271 l 1
 464.45703125 278.599609375 456.642578125 284.452148438 450 288 c 1
 450 301 l 1
 439 311 411 323 401 333 c 1
 401 332 l 1
 370 364 l 2
 351.748046875 383.212890625 333.387695312 402.424804688 324 411 c 1
 324 430 l 1
 273 463 173 515 173 542 c 0
 173 572.793945312 197.545898438 584.40234375 225.923828125 584.40234375 c 0
 254.091796875 584.40234375 286.03515625 572.96484375 301.5 557.5 c 2
 579.5 279.5 l 1
 537.5 207.5 521 186 477 115 c 1
 477 71 l 1
196 102 m 0
 158.782226562 102 144.982421875 118.9296875 144.982421875 141.801757812 c 0
 144.982421875 173.543945312 171.559570312 216.731445312 199 242 c 1
 199 243 l 1
 203 249 214 262 213 262 c 1
 213 261 l 1
 214 264 216 267 216 267 c 1
 207 283 180 299 156 313 c 1
 156 317 l 1
 107.897460938 342.053710938 48 368.989257812 48 428.166992188 c 0
 48 457.2109375 66.396484375 462.797851562 87.515625 462.797851562 c 0
 92.919921875 462.797851562 98.501953125 462.432617188 104 462 c 1
 122.854492188 424.291992188 235.37890625 353.340820312 279 338 c 0
 302.864257812 329.607421875 333 305 333 269 c 0
 333 266 214 102 196 102 c 0
EndSplineSet
Validated: 5
EndChar

StartChar: grave
Encoding: 96 96 84
Width: 412
Flags: HMW
HStem: 528 287<76.5 309>
VStem: 54 306<557.5 783>
LayerCount: 2
Fore
SplineSet
326 528 m 1
 356.84765625 536.337890625 345.115234375 532.319335938 356 566 c 1
 356 593 351 586 285 647 c 0
 267 664 177.220703125 740.784179688 168 764 c 0
 156.322754815 793.399417082 128.511750488 811.716450805 102.090132424 811.716450805 c 0
 80.7351859696 811.716450805 60.2878534461 799.750883393 50 772 c 1
 50 750 80 735 219 596 c 0
 274 541 308 528 326 528 c 1
EndSplineSet
Validated: 9
EndChar

StartChar: circumflex
Encoding: 259 710 85
Width: 551
Flags: HMW
HStem: 372 140<258.5 288 258.5 288.5>
VStem: 49 450<115.5 217>
LayerCount: 2
Fore
SplineSet
49 137 m 1
 69.54296875 228.71484375 162.041992188 309.328125 189 406 c 1
 189 474 l 1
 210.836305366 501.129603252 233.196647795 512.009518058 254.528792924 512.009518058 c 0
 303.15937179 512.009518058 346.446444946 455.466978096 366 406 c 0
 380.475585938 369.379882812 499 253 499 181 c 0
 499 153 473 145 460 145 c 0
 416 145 403 214 387 240 c 0
 381 249 320 336 299 364 c 0
 293 372 293 372 284 372 c 0
 215 372 170 93 129 93 c 0
 92 93 49 94 49 137 c 1
EndSplineSet
Validated: 1
EndChar

StartChar: breve
Encoding: 260 728 86
Width: 663
Flags: HMW
HStem: 26 87<289 360.5 276 386>
VStem: 56 91<259 273.5 259 287> 488 9 503 99<225 294>
LayerCount: 2
Fore
SplineSet
311 26 m 0
 308.584044272 25.923651107 306.178475188 25.8858434579 303.783606354 25.8858434579 c 0
 160.828404195 25.8858434579 56 160.600899672 56 274 c 0
 56 300 62 309 95 327 c 1
 126 320 147 288 147 259 c 1
 176 180 232 113 320 113 c 0
 398.282477831 113.735673568 501.593919066 177.363185112 501.593919066 264.868826069 c 0
 501.593919066 272.729301649 500.760287856 280.782452442 499 289 c 1
 499 284 l 1
 491.028454672 291.190682973 487.725373217 299.100873716 487.725373217 306.897852114 c 0
 487.725373217 329.719678421 516.02413367 351.571571331 538.382226574 351.571571331 c 0
 541.763498529 351.571571331 545.008899745 351.071790315 548 350 c 1
 581 350 602 307 602 281 c 0
 602 125.484375 464.23828125 30.8427734375 311 26 c 0
EndSplineSet
Validated: 1
EndChar

StartChar: dieresis
Encoding: 168 168 87
Width: 430
Flags: HMW
HStem: 469 125<116.5 124> 479 124<301 335>
VStem: 59 113<541 561 521 561> 258 115<536.5 543 501 564.5>
LayerCount: 2
Fore
SplineSet
61 522 m 1xb0
 59.5723364405 528.320988672 58.8962551652 534.25336651 58.8962551652 539.787122744 c 0
 58.8962551652 575.330854708 86.7885925564 594.429096066 122.566277216 594.429096066 c 0
 125.656327697 594.429096066 128.805198515 594.286633729 132 594 c 1
 133.314041173 594.179371896 134.618095613 594.266902736 135.908268659 594.266902736 c 0
 155.237945482 594.266902736 171.451701953 574.619083499 171.451701953 549.818801017 c 0
 171.451701953 544.407636688 170.679818312 538.751180524 169 533 c 1
 169 531 l 1
 171 533 170 533 170 534 c 1
 171.298526754 530.583865097 171.887420567 527.22845816 171.887420567 523.961367166 c 0
 171.887420567 508.835135275 159.264029431 495.602023447 146 487 c 1
 146 483 l 1
 146 484 l 1
 139.755135976 473.516429666 130.411613873 469.312841692 120.018841598 469.312841692 c 0
 96.4301776231 469.312841692 67.4361749215 490.968131801 57 510 c 1
 57 515 59 519 61 522 c 1xb0
306 479 m 0x70
 284 479 258 527 258 546 c 0
 258 583 288 603 314 603 c 0
 357 603 373 572 373 514 c 0
 373 488 364 479 306 479 c 0x70
EndSplineSet
Validated: 5
EndChar

StartChar: AE
Encoding: 198 198 88
Width: 837
Flags: HMW
HStem: 22 115 271 77 680 89<644.021 662.521>
VStem: 59.5211 100 382.521 71 403.521 73<13 274.5 211 274.5>
LayerCount: 2
Fore
SplineSet
649.521484375 680 m 1xf0
 603.897830849 670.529700971 449.96177728 690.08989209 449.96177728 618.499038931 c 0
 449.96177728 612.361261803 451.093258895 605.553493933 453.521484375 598 c 1
 453.521484375 590.56 453.348684375 574.8832 453.348684375 555.268864 c 0
 453.348684375 493.1568 455.081484375 391.56 469.521484375 387 c 1
 535.521484375 402 608.521484375 417 675.521484375 417 c 0
 724.521484375 417 748.521484375 399 748.521484375 346 c 0
 748.521484375 322 515.521484375 306 477.521484375 292 c 1
 477.052526104 283.670222146 476.777079307 273.994624312 476.777079307 263.42042256 c 0
 476.777079307 210.445471892 483.690351626 134.917005804 507.819335938 93.0673828125 c 1
 789.8671875 139.220703125 l 1
 792.521484375 65 l 1
 792.521484375 22 525.521484375 30 484.521484375 -31 c 1
 476.073140521 -31.543151222 467.749514252 -31.9992361937 459.841595741 -31.9992361937 c 0
 428.351167918 -31.9992361937 403.452795994 -24.7669015445 403.521484375 13 c 2
 403.521484375 271 l 1
 344.521484375 271 254.521484375 247 198.521484375 233 c 0
 160.521484375 223 151.521484375 20 107.521484375 20 c 0
 84.521484375 20 45 49.1484375 43 72.1484375 c 1
 315.521484375 702 l 1
 324.297185467 740.441614642 355.288647474 760.513810829 391.894677462 760.513810829 c 0
 409.743588122 760.513810829 428.927355078 755.741672078 447.521484375 746 c 1
 546.521484375 760 602.521484375 769 685.521484375 769 c 0
 754.521484375 769 763.521484375 746 763.521484375 701 c 1
 751.797782573 680.324781064 729.416615882 674.090393736 703.634912211 674.090393736 c 0
 686.394389282 674.090393736 667.633230779 676.878256713 649.521484375 680 c 1xf0
242.82421875 351.265625 m 1
 252.889153815 351.265625 266.898474334 350.66478499 282.250676832 350.66478499 c 0
 320.284520438 350.66478499 366.560445414 354.352504638 381.521484375 380 c 1
 381.902775425 414.236321001 383.310871387 448.084649452 383.310871387 481.572328909 c 0
 383.310871387 525.876799103 380.84621012 569.550007203 370.278320312 612.655273438 c 1
 242.82421875 351.265625 l 1
EndSplineSet
Validated: 33
EndChar

StartChar: OE
Encoding: 261 338 89
Width: 1009
Flags: HMW
HStem: -282 88<310 369.5> -266 17 -241 86<834 840 834 834> -15 76 1 21G 1 92 216 83<761 825 808 825 825 838.5 808 840> 241 88<393 452 448 450>
VStem: 45 87<-53 -19 -19 0 -83.5 66.5> 485 83<169 204.5 169 208 169 208> 505 87<-149.5 -149 -149.5 -104 -149.5 -91>
LayerCount: 2
Fore
SplineSet
526 325 m 1x80c0
 535.583191616 327.912395486 545.388094679 329.097648691 555.296330574 329.097648691 c 0
 580.512031422 329.097648691 606.396981289 321.421196489 631 315 c 0
 678.881138071 302.130753724 723.005222319 298.489387889 768.389520676 298.489387889 c 0
 815.384826573 298.489387889 863.7314022 302.393857288 919 304 c 0
 938.20966679 304 957.01330817 303.508812599 957.01330817 273.287406907 c 0
 957.01330817 224.399652561 923.81492912 226.417707805 890 217 c 1
 881 217 852 216 840 216 c 2
 798 216 l 2
 724 216 657 222 587 230 c 1
 570 224 568 213 568 196 c 0
 568 142 573 104 573 61 c 1
 841 61 l 2x92c0
 851 61 888 93 898 93 c 1
 922.995360089 83.9833071575 936.937472371 63.8068866218 936.937472371 43.2917853205 c 0
 936.937472371 27.8474976571 929.035836567 12.2112640383 912 1 c 1
 866 -3 816.265625 -13 769 -13 c 2
 711 -13 l 1
 672.571249114 -15.3688476174 632.45958456 -26.4718836705 593.433302318 -26.4718836705 c 0
 588.9397366 -26.4718836705 584.460560543 -26.3246830696 580 -26 c 1
 579.932391353 -27.59355409 579.900302472 -29.3791960388 579.900302472 -31.3336856221 c 0
 579.900302472 -60.71595921 587.152316655 -128.257414863 590 -155 c 1
 953 -155 l 1x24c0
 953 -216 924.094726562 -243 840 -243 c 2
 628 -243 l 1
 602.730201426 -255.913042504 586.272195614 -285.363017056 557.764940303 -285.363017056 c 0
 549.139123165 -285.363017056 539.410117641 -282.666677348 528 -276 c 0
 512.540612687 -266.967435755 496.075513128 -263.782722758 478.733076396 -263.782722758 c 0
 437.255181909 -263.782722758 390.758720749 -282 341 -282 c 0
 279 -282 221 -256 164 -232 c 1
 121 -232 l 1
 121 -208 l 1
 59 -166 45 -89 45 -17 c 0
 45.654296875 159.5625 211.876953125 268.6796875 365 312 c 1
 365 314 l 1
 389.949349361 323.915895233 418.906386152 329.145188043 451.936034628 329.145188043 c 0
 464.073043359 329.145188043 476.759958052 328.439100766 490 327 c 1
 490 324 l 1
 490.972334235 324.038037964 491.915354065 324.054984843 492.831787135 324.054984843 c 0
 500.326915143 324.054984843 506.043673554 322.921420104 511.474247116 322.921420104 c 0
 516.204574753 322.921420104 520.717763466 323.781497177 526 327 c 1
 526 325 l 1x80c0
132 -19 m 2
 132 -148 233 -194 352 -194 c 0
 354.3 -194 356.64 -194.0025 359.013375 -194.0025 c 0
 404.1075 -194.0025 461.25 -193.1 485 -157 c 1
 485 240 l 1
 475.700942434 240.856642016 466.485660827 241.271222046 457.362414537 241.271222046 c 0
 335.076598248 241.271222046 229.325922393 166.787434183 160 84 c 0
 153.756835938 75.1181640625 146.302734375 55.408203125 148 42 c 1
 145 33 137 24 133 17 c 1
 133.33984375 10.7353515625 132.142578125 6.6142578125 132 0 c 2
 132 -19 l 2
514 -249 m 0x4080
 515 -249 515 -248 516 -247 c 1
 516 -246 l 2
 516 -248 513 -249 514 -249 c 0x4080
EndSplineSet
Validated: 33
EndChar

StartChar: trademark
Encoding: 262 8482 90
Width: 954
Flags: HMW
HStem: 576 81<199.569 247.069> 576 102<404.569 413.569>
VStem: 223.069 84<387.5 499.5> 485.069 97<306 333.5 297.5 558> 781.069 84 798.069 96<269.5 309>
LayerCount: 2
Fore
SplineSet
799.067382812 271 m 1x74
 799.1171875 285.409179688 797.396484375 316.368164062 797.067382812 331 c 1
 799.067382812 331 802.067382812 348 802.067382812 405 c 2
 802.067382812 404 l 1
 800.067382812 423 788.067382812 495 781.067382812 535 c 1
 756.698242188 507.995117188 731.321289062 476.361328125 731.321289062 438.299804688 c 0
 731.321289062 434.594726562 731.5625 430.829101562 732.067382812 427 c 1
 725.067382812 420 693.067382812 382 673.067382812 382 c 0
 624.067382812 382 618.067382812 408 608.067382812 438 c 1
 608.067382812 447 l 1
 607.067382812 449 593.067382812 468 589.067382812 472 c 1
 589.067382812 475 l 1
 586.067382812 478 581.067382812 484 580.067382812 487 c 1
 580.067382812 495 l 1
 574.61328125 471.155273438 572.454101562 446.950195312 572.454101562 422.247070312 c 0
 572.454101562 387.602539062 576.702148438 351.978515625 582.067382812 315 c 0
 582.572265625 311.524414062 582.811523438 308.211914062 582.811523438 305.059570312 c 0
 582.811523438 273.651367188 558.95703125 258.266601562 534.817382812 258.266601562 c 0
 510.091796875 258.266601562 485.067382812 274.40625 485.067382812 306 c 2
 485.067382812 604 l 2
 485.067382812 628 513.067382812 667 536.067382812 667 c 0
 608.067382812 667 632.067382812 560 667.067382812 518 c 1
 675.067382812 529 685.067382812 544 694.067382812 559 c 1
 694.067382812 575 l 1
 720.067382812 622 761.067382812 676 817.067382812 676 c 0
 855.83203125 676 874.322265625 643.076171875 874.322265625 609.146484375 c 0
 874.322265625 595.1953125 871.196289062 581.073242188 865.067382812 569 c 1
 865.067382812 496.32421875 872.165039062 412.74609375 884.067382812 338 c 1x78
 884.067382812 320 l 1
 884.840820312 304.555664062 894.139648438 286.3984375 894.139648438 271.520507812 c 0
 894.139648438 262.830078125 890.966796875 255.2578125 881.067382812 250 c 1
 847.067382812 250 l 1
 827.067382812 254 803.067382812 265 799.067382812 271 c 1x74
163.067382812 663 m 1
 164.067382812 660 218.067382812 657 247.067382812 657 c 1xb8
 247.067382812 672 l 1
 273.067382812 674 392.067382812 678 417.067382812 678 c 0
 442.067382812 678 465.067382812 640 465.067382812 619 c 0
 465.067382812 585 424.067382812 576 403.067382812 576 c 2
 371.067382812 576 l 1
 361.067382812 578 350.067382812 581 339.067382812 581 c 1
 316.853515625 538.85546875 306.26171875 495.737304688 306.26171875 443.3203125 c 0
 306.26171875 422.8046875 307.883789062 400.864257812 311.067382812 377 c 0
 313.067382812 356 336.067382812 335 336.067382812 305 c 0
 336.067382812 275 308.067382812 249 279.067382812 249 c 0
 226.55078125 249 223.75390625 343.94140625 223.75390625 436.069335938 c 0
 223.75390625 447.055664062 223.79296875 458.000976562 223.79296875 468.741210938 c 0
 223.79296875 511.07421875 223.17578125 550.209960938 217.067382812 576 c 1
 192.694335938 575.618164062 140.591796875 558.321289062 100.439453125 558.321289062 c 0
 70.369140625 558.321289062 47 568.022460938 47 601.796875 c 0
 47 680.4609375 102.168945312 647.798828125 163.067382812 663 c 1
165.067382812 663 m 1
 166.067382812 663 167.067382812 663 169.067382812 664 c 1
 167.067382812 663 166.067382812 663 165.067382812 663 c 1
EndSplineSet
Validated: 37
EndChar

StartChar: onehalf
Encoding: 189 189 91
Width: 910
Flags: HMW
HStem: -35 126<585.021 600.021> -30 117<322.521 325.521> -7 21G 382 94
VStem: 72.5215 88<752 816 752 899 752 899> 364.521 133<754 758.5> 452.521 88<280.5 291.5>
LayerCount: 2
Fore
SplineSet
638 212.400390625 m 5x18
 635.046875 228.840820312 651.751953125 230.9921875 658 249.400390625 c 5
 658 278.400390625 l 6
 658 292.400390625 674 308.400390625 674 317.400390625 c 4
 674 330.400390625 655 413.400390625 636 414.400390625 c 5
 635 413.400390625 634 412.400390625 633 412.400390625 c 5
 633 403.400390625 l 5
 619 396.400390625 580 390.400390625 580 390.400390625 c 5
 549 390.400390625 534 415.400390625 534 442.400390625 c 4
 534 488.400390625 597 508.400390625 630 508.400390625 c 4
 731.603739899 508.400390625 761.386196092 403.093538572 761.386196092 310.30230035 c 0
 761.386196092 298.378319588 760.894395434 286.6610104 760 275.400390625 c 4
 759.560221354 269.865234375 759.413628472 264.316514757 759.413628472 258.76099537 c 0
 759.413628472 247.649956597 760 236.51171875 760 225.400390625 c 5
 747 193.400390625 719 164.400390625 698 134.400390625 c 5
 698 125.400390625 l 5
 720.355396023 119.093687027 744.721325985 114.082048221 767.467214206 114.082048221 c 0
 783.957415278 114.082048221 799.596140557 116.716109442 813 123.400390625 c 5
 844.955749495 112.628987937 863.632077945 79.3970921165 863.632077945 49.7665093093 c 0
 863.632077945 22.0025134582 847.234675447 -2.599609375 810 -2.599609375 c 4
 784 -2.599609375 758 7.400390625 733 19.400390625 c 5
 733 25.400390625 l 5
 706.98980141 35.563646721 679.535790038 45.6909716064 653.885246369 45.6909716064 c 0
 636.410965555 45.6909716064 619.773662352 40.9909461018 605 28.400390625 c 5
 605 25.400390625 l 5
 586 15.400390625 560 2.400390625 534 2.400390625 c 5
 505.932987983 8.54219398805 494.523718829 29.5514220552 494.523718829 52.1688370479 c 0
 494.523718829 84.5787993283 517.951380491 120.290994089 549.363418236 120.290994089 c 0
 552.181724218 120.290994089 555.064302679 120.003518744 558 119.400390625 c 5
 571 119.400390625 607 164.400390625 619 178.400390625 c 5
 619 191.400390625 627 203.400390625 638 212.400390625 c 5x18
218.211914062 182.39453125 m 1
 197.917371987 188.946692314 151.324632186 219.851668141 151.324632186 249.780245352 c 0
 151.324632186 256.817364244 153.90057302 263.800501654 160 270.400390625 c 1
 160 269.400390625 l 1
 160 278.400390625 l 1
 266 424.400390625 364 571.400390625 459 726.400390625 c 1
 457 729.400390625 454 737.400390625 454 737.400390625 c 1
 454 770.400390625 506 801.400390625 535 801.400390625 c 1
 538.565204389 802.150854442 541.956953262 802.504210848 545.170638561 802.504210848 c 0
 571.400699861 802.504210848 585.768513071 778.964295977 585.768513071 755.67345107 c 0
 585.768513071 738.732497472 578.167072713 721.923316917 562 714.400390625 c 1
 562 703.400390625 l 1
 562 704.400390625 l 1
 507 636.400390625 435.1171875 541.821289062 398 468.400390625 c 0
 368.02734375 409.111328125 326.022460938 341.661132812 291.53515625 290.713867188 c 2
 218.211914062 182.39453125 l 1
54 472.400390625 m 2
 54 786.400390625 l 1
 101 786.400390625 l 2
 129 786.400390625 142 775.400390625 142 748.400390625 c 2
 142 404.400390625 l 1
 98 409.400390625 54 428.400390625 54 472.400390625 c 2
EndSplineSet
Validated: 37
EndChar

StartChar: threequarters
Encoding: 190 190 92
Width: 528
Flags: HMW
HStem: 1 21G<317.878 344.378> 173 73<202.878 268.378 202.878 282.378> 560 78<176.378 195.878> 949 78<258.378 271.878>
VStem: 51.3775 122<247 331.5> 285.378 87<115 143 126 143 267 267> 290.378 88<918 935 935 935>
LayerCount: 2
Fore
SplineSet
282.377929688 173 m 1xf8
 280.12890625 173.051757812 277.856445312 173.077148438 275.561523438 173.077148438 c 0
 222.544921875 173.077148438 158.202148438 159.456054688 122.377929688 144 c 1
 121.6640625 143.907226562 120.845703125 143.860351562 119.93359375 143.860351562 c 0
 102.965820312 143.860351562 53.880859375 159.905273438 53.880859375 189.204101562 c 0
 53.880859375 194.102539062 55.2529296875 199.373046875 58.3779296875 205 c 1
 58.3779296875 214 l 1
 73.3779296875 224 76.3779296875 244 86.3779296875 267 c 1
 61.3935546875 275.4296875 52 290.685546875 52 308.274414062 c 0
 52 344.966796875 92.87890625 391.809570312 118.377929688 408 c 1
 118.377929688 451 l 1
 133.377929688 490 176.377929688 523 198.377929688 541 c 1
 198.377929688 561 l 1
 193.1484375 560.61328125 185.55859375 560.23046875 176.6328125 560.23046875 c 0
 136.203125 560.23046875 68.3681640625 568.081054688 68.3681640625 618.961914062 c 0
 68.3681640625 653.654296875 92.2978515625 667.568359375 115.219726562 667.568359375 c 0
 131.370117188 667.568359375 147.594726562 660.907226562 156.377929688 650 c 1
 156.377929688 651 l 1
 166.005859375 641.755859375 177.989257812 638.119140625 191.012695312 638.119140625 c 0
 216.424804688 638.119140625 245.798828125 651.961914062 269.377929688 665 c 1
 285.377929688 690 302.377929688 715 319.377929688 739 c 1
 318.377929688 744 314.377929688 746 309.377929688 749 c 1
 309.377929688 748 l 1
 303.377929688 750 298.377929688 755 293.377929688 762 c 1
 285.620117188 762 261.041992188 758.90625 250.377929688 756 c 1
 250.377929688 753 l 1
 236.869140625 748.336914062 220.782226562 745.26171875 205.501953125 745.26171875 c 0
 176.483398438 745.26171875 150.376953125 756.352539062 150.376953125 788.721679688 c 0
 150.376953125 862.827148438 293.322265625 836.950195312 290.377929688 918 c 1
 290.377929688 935 l 1
 283.8515625 945.374023438 274.689453125 948.943359375 264.540039062 948.943359375 c 0
 249.534179688 948.943359375 232.370117188 941.140625 218.377929688 936 c 1
 218.377929688 935 l 1
 203.099609375 925.372070312 183.46875 919.786132812 165.26171875 919.786132812 c 0
 137.26953125 919.786132812 112.642578125 932.989257812 112.377929688 965 c 0
 112.377929688 1017 225.377929688 1027 258.377929688 1027 c 0
 332.663085938 1027 378.275390625 968.013671875 378.275390625 907.452148438 c 0
 378.275390625 878.173828125 367.614257812 848.52734375 344.377929688 825 c 1
 344.377929688 802 l 1
 363.979492188 819.924804688 392.065429688 832.588867188 415.211914062 832.588867188 c 0
 438.262695312 832.588867188 456.416015625 820.030273438 456.416015625 787.600585938 c 0
 456.416015625 760.500976562 423.53515625 726.583984375 403.377929688 699 c 1
 395.377929688 669 375.377929688 642 349.377929688 620 c 1
 320.377929688 577 293.377929688 533 266.377929688 488 c 1
 261.377929688 471 245.377929688 458 243.377929688 448 c 1
 212.377929688 388 176.377929688 313 173.377929688 247 c 1
 183.709960938 246.5546875 196.13671875 246.07421875 208.905273438 246.07421875 c 0
 243.55859375 246.07421875 280.73046875 249.61328125 285.377929688 267 c 1
 285.377929688 287 l 1
 282.041992188 294.193359375 280.966796875 301.217773438 280.966796875 308.374023438 c 0
 280.966796875 319.834960938 283.725585938 331.6328125 284.377929688 345 c 1
 281.21484375 349.805664062 279.844726562 354.3125 279.844726562 358.499023438 c 0
 279.844726562 381.393554688 320.805664062 394.709960938 333.377929688 395 c 0
 362.377929688 395 372.377929688 378 372.377929688 350 c 2
 372.377929688 274 l 1
 387.885742188 275.587890625 413.463867188 281.083984375 435.7421875 281.083984375 c 0
 459.521484375 281.083984375 479.541015625 274.822265625 479.541015625 250.859375 c 0
 479.541015625 185.4453125 416.126953125 184.434570312 372.377929688 176 c 1
 372.377929688 143 l 1
 375.587890625 119.610351562 382.126953125 88.451171875 382.126953125 61.2685546875 c 0
 382.126953125 28.1083984375 372.396484375 0.8662109375 335.026367188 0.8662109375 c 0
 333.521484375 0.8662109375 331.97265625 0.91015625 330.377929688 1 c 0
 292.88671875 3.107421875 279.741210938 31.4765625 279.741210938 68.078125 c 0
 279.741210938 82.7802734375 281.861328125 98.8095703125 285.377929688 115 c 1
 285.377929688 126 l 2
 285.377929688 142 285.377929688 156 282.377929688 173 c 1xf8
EndSplineSet
Validated: 33
EndChar

StartChar: registered
Encoding: 174 174 93
Width: 909
Flags: HMW
HStem: -47 79<480.06 527.06 480.06 571.56> 521 85<382.06 407.56> 648 87<342.56 371.06 342.56 377.56>
VStem: 52.0598 80<307 307> 293.06 80<418 423 382 450.5> 303.06 82<192 201 174 209.5> 462.06 82<437 467.5> 463.06 110<163 177.5 150 181.5> 771.06 80<214.5 288>
LayerCount: 2
Fore
SplineSet
488.05859375 -47 m 0xf080
 322.143554688 -47 105.713867188 46.125 69.05859375 236 c 1
 69.05859375 260 l 1
 64.2568359375 280.166992188 53 296.64453125 53 300.577148438 c 0
 53 399.270507812 66.61328125 461.501953125 106.05859375 558 c 1
 131.05859375 577 145.142578125 610.045898438 175.05859375 638 c 0
 206.142578125 667.045898438 248.05859375 671 287.05859375 700 c 1
 287.05859375 710 l 1
 299.540039062 726.545898438 330.1328125 732.287109375 361.51953125 732.287109375 c 0
 380.723632812 732.287109375 400.225585938 730.137695312 416.05859375 727 c 0
 591.912109375 692.150390625 703.819335938 673.734375 806.05859375 509 c 1
 806.05859375 505 l 1
 813.05859375 483 826.05859375 455 835.05859375 442 c 1
 835.05859375 420 l 1
 844.05859375 382 851.05859375 329 851.05859375 284 c 0
 851.05859375 114 655.05859375 -47 488.05859375 -47 c 0xf080
771.05859375 260 m 0
 771.05859375 473.485351562 671.974609375 610.204101562 489.05859375 627 c 1
 489.05859375 630 l 1
 452.05859375 638 394.05859375 648 361.05859375 648 c 0
 278.05859375 648 207.05859375 567 161.05859375 504 c 1
 144.05859375 446 132.05859375 392 132.05859375 334 c 0
 132.05859375 145 300.05859375 32 480.05859375 32 c 2
 527.05859375 32 l 1
 620.05859375 59 771.05859375 169 771.05859375 260 c 0
377.05859375 287 m 2
 377.809570312 256.828125 385.21875 239.818359375 385.05859375 201 c 2
 385.05859375 190 l 1
 387.275390625 184.141601562 388.278320312 178.49609375 388.278320312 173.15625 c 0
 388.278320312 146.518554688 363.3359375 127.470703125 339.705078125 127.470703125 c 0
 324.01953125 127.470703125 308.911132812 135.86328125 302.05859375 156 c 1
 302.05859375 176 l 1
 302.736328125 186.53515625 303.013671875 197.010742188 303.013671875 207.498046875 c 0
 303.013671875 231.96875 301.504882812 256.50390625 300.05859375 282 c 1
 300.05859375 315 l 1
 297.853515625 358.459960938 293.654296875 403.7265625 293.654296875 449.481445312 c 0
 293.654296875 470.92578125 294.576171875 492.477539062 297.05859375 514 c 1
 297.05859375 535 l 1
 294.795898438 541.577148438 293.708007812 547.986328125 293.708007812 554.090820312 c 0
 293.708007812 583.58984375 319.103515625 606 360.05859375 606 c 0
 443.05859375 606 544.05859375 543 544.05859375 452 c 0
 544.05859375 386 487.05859375 360 487.05859375 335 c 0
 487.05859375 314 534.05859375 226 551.05859375 226 c 1
 566.05859375 179 573.05859375 193 573.05859375 162 c 0
 573.05859375 135.051757812 555.158203125 124.083984375 533.806640625 124.083984375 c 0
 502.259765625 124.083984375 463.180664062 148.02734375 463.180664062 179.744140625 c 0
 463.180664062 182.443359375 463.463867188 185.198242188 464.05859375 188 c 1
 464.05859375 228 l 2
 464.05859375 236 441.05859375 240 437.05859375 249 c 1
 437.05859375 263.333007812 437.05859375 277.666992188 437.05859375 292 c 1
 420.05859375 294 385.05859375 297 377.05859375 300 c 1
 377.05859375 287 l 2
402.05859375 386 m 1
 402.05859375 390 402.05859375 394 402.05859375 398 c 1
 425.05859375 413 462.05859375 423 462.05859375 451 c 0
 462.05859375 479.918945312 421.440429688 520.266601562 394.143554688 520.266601562 c 0
 380.328125 520.266601562 369.924804688 509.932617188 369.924804688 482.553710938 c 0
 369.924804688 480.775390625 369.96875 478.924804688 370.05859375 477 c 0
 370.05859375 457 373.05859375 437 373.05859375 423 c 2
 373.05859375 382 l 1
 377.703125 378.193359375 382.588867188 376.303710938 387.143554688 376.303710938 c 0
 393.119140625 376.303710938 398.5234375 379.556640625 402.05859375 386 c 1
EndSplineSet
Validated: 33
EndChar

StartChar: copyright
Encoding: 169 169 94
Width: 903
Flags: HMW
HStem: -42 86<436.738 540.738 355.238 575.738> 153 85<451.238 489.238 489.238 513.738 451.238 538.238> 489 87<422.738 448.738> 609 93<346.238 435.238 397.238 398.238>
VStem: 52.2375 85<267 375 267 380.5> 252.238 94<362.5 400 334.5 408> 761.238 84<263.5 381.5>
LayerCount: 2
Fore
SplineSet
458.239257812 -42 m 0
 215.575195312 -42 60.9365234375 132.16015625 52.2392578125 324 c 0
 52.0791015625 327.526367188 52 331.080078125 52 334.659179688 c 0
 52 445.5703125 127.8203125 580.055664062 219.239257812 641 c 0
 238.87109375 654.088867188 260.239257812 662 279.239257812 667 c 1
 279.239257812 666 l 1
 311.239257812 666 l 1
 319.809570312 688.192382812 359.58203125 703.272460938 385.640625 703.272460938 c 0
 389.94921875 703.272460938 393.8828125 702.860351562 397.239257812 702 c 1
 435.239257812 702 l 1
 467.239257812 704 475.239257812 712 540.239257812 712 c 1
 540.239257812 703 l 1
 684.239257812 692 845.239257812 502 845.239257812 366 c 0
 845.239257812 139 693.239257812 -42 458.239257812 -42 c 0
398.239257812 609 m 0
 397.939453125 609.000976562 397.639648438 609.001953125 397.33984375 609.001953125 c 0
 307.024414062 609.001953125 225.548828125 555.780273438 182.239257812 477 c 1
 182.239257812 467 l 1
 152.8515625 424.266601562 139.791992188 378.342773438 139.791992188 333.06640625 c 0
 139.791992188 185.067382812 279.334960938 44 444.239257812 44 c 0
 637.239257812 44 761.239257812 166 761.239257812 361 c 0
 761.239257812 492.3671875 635.374023438 604.750976562 519.239257812 612 c 0
 510.239257812 612 504.239257812 609 497.239257812 606 c 1
 497.239257812 605 l 1
 482.458007812 597.138671875 470.107421875 592.752929688 454.211914062 592.752929688 c 0
 444.380859375 592.752929688 433.194335938 594.4296875 419.239257812 598 c 1
 419.239257812 609 408.239257812 609 398.239257812 609 c 0
275.239257812 286 m 1
 275.239257812 289 275.239257812 292 275.239257812 295 c 1
 259.6171875 321.352539062 253.029296875 347.745117188 253.029296875 373.432617188 c 0
 253.029296875 440.521484375 297.963867188 502.80078125 344.239257812 547 c 1
 346.239257812 547 346.239257812 548 348.239257812 550 c 1
 348.239257812 549 l 1
 360.239257812 570 410.239257812 576 435.239257812 576 c 0
 464.239257812 576 560.239257812 542 560.239257812 494 c 0
 560.239257812 467.701171875 548.15625 459.137695312 531.373046875 459.137695312 c 0
 500.033203125 459.137695312 452.299804688 489 436.239257812 489 c 0
 388.239257812 489 346.239257812 422 346.239257812 378 c 0
 346.239257812 291 409.239257812 238 493.239257812 238 c 0
 534.239257812 238 563.239257812 275 610.239257812 275 c 0
 640.239257812 275 650.239257812 265 650.239257812 234 c 0
 650.239257812 178 576.239257812 161 538.239257812 153 c 1
 489.239257812 153 l 2
 387.239257812 153 311.239257812 190 275.239257812 286 c 1
EndSplineSet
Validated: 1
EndChar

StartChar: Odieresis
Encoding: 214 214 95
Width: 724
Flags: HMW
HStem: 62 103<257.5 374 257.5 400> 536 104<295 403.5> 669 125<269.5 277> 679 124<454 488>
VStem: 56 113<253 337> 212 113<741 761 721 761> 411 115<736.5 743 701 764.5> 574 95<324 446>
LayerCount: 2
Fore
SplineSet
49 402 m 1xcf
 100.782436305 542.285857309 184.880246917 640.003877711 333.377755292 640.003877711 c 0
 333.917651746 640.003877711 334.458399468 640.002586024 335 640 c 0
 485 640 669 568 669 390 c 0
 669 171 493 62 307 62 c 0
 306.260762229 61.9966116241 305.523415588 61.9949189464 304.787956799 61.9949189464 c 0
 122.157347322 61.9949189464 55.9389471814 166.371900281 55.9389471814 328.87584791 c 0
 55.9389471814 345.648298974 56.6443609296 363.039967071 58 381 c 1
 52 389 49 394 49 402 c 1xcf
169 308 m 0
 169 198 204 165 311 165 c 0
 437 165 574 254 574 394 c 0
 574 498 448 536 359 536 c 0
 231 536 169 422 169 308 c 0
214 722 m 1
 212.57233644 728.320988673 211.896255165 734.25336651 211.896255165 739.787122745 c 0
 211.896255165 775.330854708 239.788592556 794.429096066 275.566277216 794.429096066 c 0
 278.656327696 794.429096066 281.805198514 794.286633729 285 794 c 1xef
 286.314041173 794.179371896 287.618095613 794.266902736 288.908268659 794.266902736 c 0
 308.237945482 794.266902736 324.451701953 774.619083499 324.451701953 749.818801017 c 0
 324.451701953 744.407636688 323.679818312 738.751180524 322 733 c 1
 322 731 l 1
 324 733 323 733 323 734 c 1
 324.298526754 730.583865097 324.887420567 727.22845816 324.887420567 723.961367166 c 0
 324.887420567 708.835135275 312.264029431 695.602023447 299 687 c 1
 299 683 l 1
 299 684 l 1
 292.755135976 673.516429666 283.411613873 669.312841692 273.018841598 669.312841692 c 0
 249.430177623 669.312841692 220.436174922 690.968131801 210 710 c 1
 210 715 212 719 214 722 c 1
459 679 m 0xdf
 437 679 411 727 411 746 c 0
 411 783 441 803 467 803 c 0
 510 803 526 772 526 714 c 0
 526 688 517 679 459 679 c 0xdf
EndSplineSet
Validated: 5
EndChar

StartChar: Euro
Encoding: 263 8364 96
Width: 804
Flags: HMW
HStem: -165 88<423 473> -7 21G<208.5 209> 51 93<92.9994 108 92.9994 116> 76 73<244 327> 241 94<139.5 155> 266 94<493 579 520 579> 272 76 535 83<533 560>
VStem: 45.9994 62<79.5 144> 149 10<134 140> 155 88<180 187 187 241 241 241>
LayerCount: 2
Fore
SplineSet
172.000976562 59 m 1xd580
 153.245117188 56.576171875 127.715820312 51.4072265625 104.541015625 51.4072265625 c 0
 73.10546875 51.4072265625 46 60.9169921875 46 99.689453125 c 0
 46 128.907226562 64.806640625 144 93.0009765625 144 c 1
 93.0009765625 129 l 1
 114.672851562 129.41015625 148.611328125 131.202148438 148.611328125 135.782226562 c 0
 148.611328125 137.228515625 145.225585938 138.953125 137.000976562 141 c 1
 136.665039062 130.619140625 168.974609375 126.301757812 171.000976562 126 c 1
 171.000976562 241 l 1
 169.852539062 241 168.657226562 240.999023438 167.420898438 240.999023438 c 0
 135.275390625 240.999023438 75.0009765625 241.92578125 75.0009765625 292 c 0
 75.0009765625 302 92.0009765625 335 108.000976562 335 c 2
 171.000976562 335 l 2xe980
 180.000976562 335 191.765625 393.76953125 202.000976562 409 c 0
 275.765625 518.76953125 418.000976562 618 559.000976562 618 c 0
 603.060546875 618 694.969726562 607.998046875 695.000976562 541.95703125 c 0
 695.000976562 517.997070312 676.202148438 511.014648438 655.208984375 511.014648438 c 0
 638.85546875 511.014648438 621.170898438 515.250976562 610.000976562 519 c 1
 610.000976562 524 l 1
 590.247070312 531.599609375 569.943359375 534.760742188 549.657226562 534.760742188 c 0
 509.944335938 534.760742188 470.301757812 522.646484375 435.000976562 508 c 0
 401.000976562 493 284.000976562 396 268.000976562 347 c 1
 360.76171875 354.505859375 447.553710938 359.993164062 538.000976562 360 c 2
 579.000976562 360 l 1
 612.000976562 355 612.000976562 326 612.000976562 304 c 0
 612.000976562 267.63671875 566.545898438 265.983398438 537.245117188 265.983398438 c 0
 534.314453125 265.983398438 531.545898438 266 529.000976562 266 c 0
 471.369140625 267.333007812 417.30078125 272.0625 365.703125 272.0625 c 0
 323.337890625 272.0625 282.638671875 268.874023438 243.000976562 258 c 1
 243.000976562 149 l 1
 293.000976562 149 354.000976562 155 406.000976562 161 c 1
 406.000976562 163 l 1
 407.873046875 162.927734375 409.798828125 162.893554688 411.7734375 162.893554688 c 0
 448.491210938 162.893554688 502.208984375 174.69921875 545.615234375 174.69921875 c 0
 586.348632812 174.69921875 618.000976562 164.302734375 618.000976562 124 c 0
 618.000976562 104 596.095703125 76 575.000976562 76 c 2
 276.000976562 76 l 1
 309.000976562 -2 380.000976562 -77 466.000976562 -77 c 0
 540.000976562 -77 618.000976562 -54 684.000976562 -24 c 1
 691.561523438 -10.451171875 705.91015625 -3.626953125 720.19140625 -3.626953125 c 0
 740.665039062 -3.626953125 761.000976562 -17.6533203125 761.000976562 -46 c 0
 761.000976562 -88.5791015625 725.702148438 -116.017578125 692.000976562 -126 c 1
 539.000976562 -126 l 1
 524.000976562 -130 478.000976562 -165 468.000976562 -165 c 0
 356.000976562 -165 250.000976562 -109 205.000976562 -7 c 1
 205.000976562 59 l 1
 172.000976562 59 l 1xd580
158.000976562 146 m 1
 158.000976562 143 158.000976562 141 159.000976562 140 c 1
 159.000976562 141 158.000976562 143 158.000976562 146 c 1
137.000976562 141 m 1
 137.000976562 141 l 1
EndSplineSet
Validated: 37
EndChar

StartChar: asterisk.alt
Encoding: 264 -1 97
Width: 685
Flags: HMW
HStem: 386 25 386 28<174 189> 391 34<246 249 249 249>
VStem: 376 8 454 14<384 386>
LayerCount: 2
Fore
SplineSet
474 258 m 1x58
 474.3046875 183.426757812 506.435546875 130.08984375 514 52 c 0
 514 42 508 35 498 35 c 0
 472 35 391 183 333 183 c 1
 281.752929688 152.879882812 229.565429688 110.030273438 185 76 c 1
 175 76 168 78 168 89 c 1
 183.921875 148.157226562 194.030273438 200.877929688 212 254 c 1
 212 255 l 1
 183 295 142 326 105 359 c 0
 89 373 47 386 47 410 c 1
 51.5632142315 422.509251781 61.2761880438 426.505110639 74.7558066633 426.505110639 c 0
 98.6018486463 426.505110639 134.23567186 414 174 414 c 0x58
 187 414 211.599609375 415.6171875 228.599609375 415.6171875 c 1
 394.892578125 562.629882812 l 2
 394.892578125 563.629882812 374 587 373 587 c 1
 376.832120378 599.279201881 387.202039354 605.390074139 397.466560368 605.390074139 c 0
 408.572881924 605.390074139 419.555809117 598.235787845 422 584 c 1
 405.545138799 570.997997996 404.997210639 535.482444688 404.997210639 509.422147804 c 0
 404.997210639 507.562760346 405 505.751507158 405 504 c 0
 405 491 413 437 413 437 c 1
 413 425 l 1x38
 447.405646461 415.096345929 489.030903556 413.111268485 530.215544664 413.111268485 c 0
 557.772539123 413.111268485 585.132267065 414 610 414 c 0
 623 414 636 409 636 394 c 1
 578.491210938 357.776367188 533.23828125 291.52734375 474 258 c 1x58
177 382 m 1
 179.866210938 372.96484375 191.255859375 375.309570312 189 386 c 1
 187 386 178 386 177 382 c 1
468 119 m 1
 464.5703125 114.635742188 466.232421875 106.03515625 471 105 c 1
 471.481445312 110.708007812 474 117.903320312 468 119 c 1
474 385 m 0
 474.458007812 380.200195312 499.314453125 385.935546875 481 386 c 0
 477 386 474 386 474 385 c 0
283 185 m 1
 285 185 287 187 287 189 c 1
 285.755859375 188.670898438 282.32421875 187.106445312 283 185 c 1
494 385 m 0
 494.442862428 381.633574544 497.168853565 383.486255909 497.168853565 384.892213814 c 0
 497.168853565 385.532452986 496.603572694 386.080056411 495 386 c 1
 495 386 494 386 494 385 c 0
290 464 m 1
 286.418945312 463.483398438 286.419921875 469.265625 290 466 c 1
 290 464 l 1
461 383 m 1
 464.34375 383.255859375 461.783203125 388.35546875 460 385 c 0
 460 384 461 383 461 383 c 1
246 391 m 2x38
 246 392 246 393 246 394 c 2
 246 391 l 2x38
134 373 m 2
 134 374 134 375 134 376 c 2
 134 373 l 2
120 388 m 1
 120 387 119 387 119 387 c 0
 120 387 120 387 120 388 c 1
335 467 m 1
 334 467 335 466 335 465 c 2
 335 467 l 1
468 386 m 1x58
 468 384 l 1
 469 384 469 385 469 385 c 1
 469 385 469 386 468 386 c 1x58
130 380 m 1
 129 380 130 380 130 379 c 2
 130 380 l 1
143 368 m 1
 142.666992188 367.666992188 142.333007812 367.333007812 142 367 c 1
 143 367 143 367 143 368 c 1
454 386 m 2
 454 385.333007812 454 384.666992188 454 384 c 2
 454 386 l 2
385 598 m 1
 385 598.333007812 385 598.666992188 385 599 c 1
 385 598 384 598 385 598 c 1
EndSplineSet
Validated: 1
EndChar

StartChar: ff
Encoding: 265 -1 98
Width: 989
VWidth: 0
Flags: HW
LayerCount: 2
Fore
SplineSet
184 598 m 2
 235 598 l 2
 253.463867188 598 324.813476562 589.500976562 329.7421875 588.103515625 c 1
 329.7421875 590 l 1
 347.588867188 590.421875 417.3359375 563.265625 417.3359375 533.920898438 c 0
 417.3359375 526.279296875 412.606445312 518.490234375 401 511 c 1
 386.888671875 511.235351562 369.912109375 511.314453125 351.971679688 511.314453125 c 0
 316.091796875 511.314453125 276.360351562 511 248 511 c 2
 194 511 l 2
 169 511 145 509 145 484 c 0
 145 440 154 361 179 321 c 1
 233.775390625 321 283.985351562 328 338 328 c 0
 375 328 431 324 431 288 c 0
 431 270 393 258 381 256 c 1
 189 256 l 1
 183.092773438 237.649414062 180.8125 219.291992188 180.8125 200.927734375 c 0
 180.8125 138.698242188 207 76.388671875 207 14 c 0
 207 -15.17578125 182.706054688 -31.03125 158.700195312 -31.03125 c 0
 137.991210938 -31.03125 117.49609375 -19.23046875 113 6 c 1
 113 59 l 1
 105.181640625 159.030273438 95.6669921875 261.788085938 67 360 c 1
 63.240234375 432.837890625 54 492.278320312 54 555.609375 c 0
 54 593.982421875 125.122070312 598 184 598 c 2
606.5 593 m 4
 630.677734375 593 915.883789062 582.360351562 918.021484375 579 c 5
 919.98828125 570.903320312 920.841796875 563.559570312 920.841796875 556.919921875 c 0
 920.841796875 517.634765625 890.967773438 503 885.067382812 503 c 4
 818.404296875 503 759.584960938 497.077148438 685.079101562 496 c 5
 683.875976562 467.76953125 680.821289062 437.622070312 680.821289062 408.958007812 c 0
 680.821289062 379.075195312 684.140625 350.805664062 696.338867188 328 c 5
 752.692382812 329.065429688 842.545898438 330.887695312 906.973632812 333 c 4
 936.30859375 333 936.30859375 314 936.30859375 301 c 4
 936.30859375 233 796.03125 228.44921875 762.782226562 226 c 4
 700.9921875 221.44921875 686.3359375 229 686.3359375 191 c 4
 686.3359375 132 709.690429688 101 709.690429688 8 c 4
 709.690429688 -12 693.5234375 -52 671.069335938 -52 c 4
 640.63671875 -52 613.352539062 -33 602.858398438 -8 c 5
 579.432617188 179.798828125 566.370117188 255.43359375 566.370117188 492 c 4
 566.370117188 503.1875 565.45703125 516.53125 565.45703125 529.794921875 c 0
 565.45703125 561.627929688 570.71875 593 606.5 593 c 4
EndSplineSet
Validated: 33
LCarets2: 1 0 
Ligature2: "'liga' Standard Ligatures in Latin lookup 0-2" f f
EndChar

StartChar: ee
Encoding: 266 -1 99
Width: 1065
VWidth: 0
Flags: HW
LayerCount: 2
Fore
SplineSet
291.407226562 657 m 0
 313.751953125 657 340.288085938 660.91015625 364.166992188 660.91015625 c 0
 381.287109375 660.91015625 397.041015625 658.900390625 408.907226562 652 c 0
 434.546875 637.08984375 434.896484375 633.15625 434.896484375 621.9140625 c 0
 434.896484375 553.12109375 147.301757812 594.982421875 148.8046875 555 c 1
 148.8046875 392 l 1
 165.614257812 391.004882812 183.032226562 390.59375 200.78515625 390.59375 c 0
 270.065429688 390.59375 344.451171875 396.846679688 407.66796875 399 c 0
 423.657226562 399 464.044921875 377.918945312 464.044921875 357.37109375 c 0
 464.044921875 342.635742188 446.916015625 329.83203125 443.3671875 318 c 1
 157.833007812 318 l 1
 157.833007812 151 l 1
 210.821289062 144.341796875 276.717773438 141.97265625 339.651367188 141.97265625 c 0
 364.9921875 141.97265625 389.852539062 142.357421875 413.196289062 143 c 0
 413.211914062 142.999023438 465.638671875 139.499023438 465.638671875 107.288085938 c 0
 465.638671875 90.91015625 450.080078125 78.5693359375 438.361328125 78 c 0
 375.904296875 78.853515625 310.818359375 81.140625 247.009765625 81.140625 c 0
 204.520507812 81.140625 162.59765625 80.1259765625 122.395507812 77 c 1
 74.88671875 91.38671875 63 140.287109375 63 198.541992188 c 0
 63 256.883789062 74.921875 324.608398438 74.921875 376.444335938 c 0
 74.921875 384.36328125 74.6435546875 391.912109375 74.001953125 399 c 0
 67.71484375 468.451171875 63.47265625 536.004882812 63.47265625 615 c 0
 63.47265625 653.65234375 275.717773438 657 291.407226562 657 c 0
595.169921875 120.900390625 m 1
 600.815429688 169.811523438 603.061523438 222.124023438 603.061523438 275.353515625 c 0
 603.061523438 367.7734375 596.290039062 462.958007812 588.77734375 547.900390625 c 1
 588.77734375 563.900390625 l 1
 588.444335938 568.337890625 588.283203125 572.534179688 588.283203125 576.50390625 c 0
 588.283203125 635.713867188 624.23046875 644.297851562 664.069335938 644.297851562 c 0
 680.338867188 644.297851562 697.256835938 642.866210938 712.639648438 642.866210938 c 0
 713.9765625 642.866210938 715.30078125 642.876953125 716.612304688 642.900390625 c 1
 754.8125 642.900390625 l 1xd8
 794.422851562 621.806640625 937.802734375 628.977539062 993.678710938 620.900390625 c 1
 1009.59863281 613.106445312 1016.43359375 600.341796875 1016.43359375 587.169921875 c 0
 1016.43359375 563.577148438 994.5078125 538.674804688 963.596679688 538.674804688 c 0
 958.411132812 538.674804688 952.973632812 539.375 947.34375 540.900390625 c 1
 916.34375 540.900390625 l 2xe8
 839.619140625 540.900390625 763.161132812 546.900390625 691.810546875 546.900390625 c 1
 691.810546875 416.900390625 l 1
 969.674804688 416.900390625 l 1
 976.708007812 412.900390625 986.700195312 363.900390625 987.041015625 341.900390625 c 1
 699.33984375 341.900390625 l 1
 699.33984375 291.900390625 l 2
 699.500976562 284.536132812 699.559570312 277.58984375 699.559570312 270.890625 c 0
 699.559570312 253.60546875 699.171875 237.963867188 699.171875 221.02734375 c 0
 699.171875 212.4453125 699.271484375 203.530273438 699.571289062 193.900390625 c 1
 738.80859375 188.9375 790.100585938 187.673828125 843.947265625 187.673828125 c 0
 888.940429688 187.673828125 935.71875 188.556640625 978.737304688 188.900390625 c 1
 992.942382812 184.655273438 998.25390625 174.97265625 998.25390625 164.114257812 c 0
 998.25390625 143.52734375 979.162109375 118.71484375 965.3828125 118.71484375 c 0
 963.094726562 118.71484375 960.953125 119.399414062 959.069335938 120.900390625 c 1
 595.169921875 120.900390625 l 1
EndSplineSet
Validated: 33
LCarets2: 1 0 
Ligature2: "'liga' Standard Ligatures in Latin lookup 0-2" e e
EndChar

StartChar: slash
Encoding: 47 47 137
Width: 292
Flags: HW
HStem: 62 100 62 592<96.4384 108.439 90.9384 135.939>
VStem: 63.4384 90<179.5 317.5>
LayerCount: 2
Fore
SplineSet
243.032226562 732.055664062 m 0x20
 243.032226562 521.090820312 168.604492188 311.1875 118.45703125 107.572265625 c 0
 104.044921875 49.0517578125 85.1455078125 34.0078125 64.919921875 34.0078125 c 0
 53.8955078125 34.0078125 49 45.109375 49 66.55078125 c 0
 49 84.8564453125 52.568359375 110.697265625 58.9375 143.599609375 c 0
 95.271484375 331.291015625 137.291015625 492.90234375 162.9375 687.599609375 c 1
 175.810546875 717.966796875 175.998046875 780.381835938 207.9375 781.599609375 c 0
 223.3046875 781.599609375 243.032226562 775.451171875 243.032226562 732.055664062 c 0x20
EndSplineSet
Validated: 1
EndChar

StartChar: acute
Encoding: 180 180 141
Width: 411
Flags: HW
HStem: 528 287<75.4996 308>
VStem: 52.9996 306<557.5 783>
LayerCount: 2
Fore
SplineSet
94 537.828125 m 1
 87.8014370803 536.301926566 83.1826026784 535.602085379 79.554605591 535.602085379 c 0
 67.993473005 535.602085379 66.493991617 542.708759518 56 552.828125 c 1
 56 584.828125 61.6337890625 576.532226562 136 648.828125 c 0
 153.076171875 666.700195312 227.743164062 756.180664062 247 771.828125 c 0
 279.454092684 795.980007927 303.648375787 804.181913735 321.087622671 804.181913735 c 0
 349.860582262 804.181913735 360.245253659 781.855015282 359 772 c 1
 359 752.103515625 341.493164062 722.823242188 189 612.828125 c 0
 128 568.828125 119.728515625 550.721679688 94 537.828125 c 1
EndSplineSet
Validated: 33
EndChar

StartChar: ring
Encoding: 267 730 153
Width: 490
Flags: HW
LayerCount: 2
Fore
SplineSet
433.62890625 550.203125 m 0
 433.62890625 433.92578125 348.215820312 386.5 258.525390625 386.5 c 0
 159.376953125 386.5 55 444.456054688 55 531.424804688 c 0
 55 583.645507812 92.6328125 646.327148438 191.62890625 713.203125 c 1
 216.544618499 722.859652851 241.093481944 727.358684244 264.441511877 727.358684244 c 0
 358.852663986 727.358684244 433.62890625 653.794718153 433.62890625 550.203125 c 0
151.62890625 517.203125 m 0
 151.62890625 472.203125 189.62890625 464.203125 226.62890625 464.203125 c 0
 284.62890625 464.203125 352.62890625 502.203125 352.62890625 566.203125 c 0
 352.62890625 616.203125 317.62890625 652.203125 269.62890625 652.203125 c 0
 200.62890625 652.203125 151.62890625 585.203125 151.62890625 517.203125 c 0
EndSplineSet
Validated: 1
EndChar

